<?xml version="1.0" encoding="UTF-8" standalone="no"?>
<!DOCTYPE svg PUBLIC "-//W3C//DTD SVG 1.1//EN"
 "http://www.w3.org/Graphics/SVG/1.1/DTD/svg11.dtd">
<!-- Generated by graphviz version 2.44.0 ()
 -->
<!-- Pages: 1 -->
<svg width="428pt" height="198pt"
 viewBox="0.00 0.00 428.18 198.00" xmlns="http://www.w3.org/2000/svg" xmlns:xlink="http://www.w3.org/1999/xlink">
<g id="graph0" class="graph" transform="scale(1 1) rotate(0) translate(4 194)">
<polygon fill="white" stroke="transparent" points="-4,4 -4,-194 424.18,-194 424.18,4 -4,4"/>
<!-- BIOS_detects_RAM -->
<g id="node1" class="node">
<title>BIOS_detects_RAM</title>
<ellipse fill="none" stroke="black" cx="113.09" cy="-167" rx="89.08" ry="18"/>
<text text-anchor="middle" x="113.09" y="-163.3" font-family="Times,serif" font-size="14.00">BIOS detects RAM</text>
</g>
<!-- BIOS_detects_hardware -->
<g id="node2" class="node">
<title>BIOS_detects_hardware</title>
<ellipse fill="none" stroke="black" cx="113.09" cy="-90" rx="113.18" ry="18"/>
<text text-anchor="middle" x="113.09" y="-86.3" font-family="Times,serif" font-size="14.00">BIOS detects hardware</text>
</g>
<!-- BIOS_detects_RAM&#45;&gt;BIOS_detects_hardware -->
<g id="edge1" class="edge">
<title>BIOS_detects_RAM&#45;&gt;BIOS_detects_hardware</title>
<path fill="none" stroke="black" d="M113.09,-148.98C113.09,-139.94 113.09,-128.6 113.09,-118.35"/>
<polygon fill="black" stroke="black" points="116.59,-118.21 113.09,-108.21 109.59,-118.21 116.59,-118.21"/>
</g>
<!-- BIOS_loads_boot_sequence -->
<g id="node3" class="node">
<title>BIOS_loads_boot_sequence</title>
<g id="a_node3"><a xlink:href="single_layer_3_BIOS_loads_boot_sequence.svg" xlink:title="BIOS loads boot sequence">
<polygon fill="none" stroke="blue" points="211.59,-36 14.59,-36 14.59,0 211.59,0 211.59,-36"/>
<text text-anchor="middle" x="113.09" y="-14.3" font-family="Times,serif" font-size="14.00">BIOS loads boot sequence</text>
</a>
</g>
</g>
<!-- BIOS_detects_hardware&#45;&gt;BIOS_loads_boot_sequence -->
<g id="edge2" class="edge">
<title>BIOS_detects_hardware&#45;&gt;BIOS_loads_boot_sequence</title>
<path fill="none" stroke="black" d="M113.09,-71.7C113.09,-63.98 113.09,-54.71 113.09,-46.11"/>
<polygon fill="black" stroke="black" points="116.59,-46.1 113.09,-36.1 109.59,-46.1 116.59,-46.1"/>
</g>
<!-- zoom out -->
<g id="node4" class="node">
<title>zoom out</title>
<g id="a_node4"><a xlink:href="single_layer_1_computer_has_state_turning_on.svg" xlink:title="zoom out">
<polygon fill="none" stroke="red" points="320.09,-190 219.91,-155.5 420.27,-155.5 320.09,-190"/>
<text text-anchor="middle" x="320.09" y="-163.3" font-family="Times,serif" font-size="14.00">zoom out</text>
</a>
</g>
</g>
</g>
</svg>
