<?xml version="1.0" encoding="UTF-8" standalone="no"?>
<!DOCTYPE svg PUBLIC "-//W3C//DTD SVG 1.1//EN"
 "http://www.w3.org/Graphics/SVG/1.1/DTD/svg11.dtd">
<!-- Generated by graphviz version 2.44.0 ()
 -->
<!-- Pages: 1 -->
<svg width="779pt" height="342pt"
 viewBox="0.00 0.00 778.92 342.00" xmlns="http://www.w3.org/2000/svg" xmlns:xlink="http://www.w3.org/1999/xlink">
<g id="graph0" class="graph" transform="scale(1 1) rotate(0) translate(4 338)">
<polygon fill="white" stroke="transparent" points="-4,4 -4,-338 774.92,-338 774.92,4 -4,4"/>
<!-- while_computer_is_off_power_button_short_circuits_wire -->
<g id="node1" class="node">
<title>while_computer_is_off_power_button_short_circuits_wire</title>
<ellipse fill="none" stroke="black" cx="278.83" cy="-311" rx="274.05" ry="18"/>
<text text-anchor="middle" x="278.83" y="-307.3" font-family="Times,serif" font-size="14.00">while computer is off power button short circuits wire</text>
</g>
<!-- while_computer_is_off_motherboard_does_something_to_CPU -->
<g id="node2" class="node">
<title>while_computer_is_off_motherboard_does_something_to_CPU</title>
<ellipse fill="none" stroke="black" cx="278.83" cy="-234" rx="278.65" ry="18"/>
<text text-anchor="middle" x="278.83" y="-230.3" font-family="Times,serif" font-size="14.00">while computer is off motherboard does something to CPU</text>
</g>
<!-- while_computer_is_off_power_button_short_circuits_wire&#45;&gt;while_computer_is_off_motherboard_does_something_to_CPU -->
<g id="edge1" class="edge">
<title>while_computer_is_off_power_button_short_circuits_wire&#45;&gt;while_computer_is_off_motherboard_does_something_to_CPU</title>
<path fill="none" stroke="black" d="M278.83,-292.98C278.83,-283.94 278.83,-272.6 278.83,-262.35"/>
<polygon fill="black" stroke="black" points="282.33,-262.21 278.83,-252.21 275.33,-262.21 282.33,-262.21"/>
</g>
<!-- CPU_executes_BIOS_code_at_bottom_of_memory_map -->
<g id="node3" class="node">
<title>CPU_executes_BIOS_code_at_bottom_of_memory_map</title>
<ellipse fill="none" stroke="black" cx="278.83" cy="-162" rx="235.06" ry="18"/>
<text text-anchor="middle" x="278.83" y="-158.3" font-family="Times,serif" font-size="14.00">CPU executes BIOS code at bottom of memory map</text>
</g>
<!-- while_computer_is_off_motherboard_does_something_to_CPU&#45;&gt;CPU_executes_BIOS_code_at_bottom_of_memory_map -->
<g id="edge2" class="edge">
<title>while_computer_is_off_motherboard_does_something_to_CPU&#45;&gt;CPU_executes_BIOS_code_at_bottom_of_memory_map</title>
<path fill="none" stroke="black" d="M278.83,-215.7C278.83,-207.98 278.83,-198.71 278.83,-190.11"/>
<polygon fill="black" stroke="black" points="282.33,-190.1 278.83,-180.1 275.33,-190.1 282.33,-190.1"/>
</g>
<!-- BIOS_boots_computer -->
<g id="node4" class="node">
<title>BIOS_boots_computer</title>
<g id="a_node4"><a xlink:href="single_layer_2_BIOS_boots_computer.svg" xlink:title="BIOS boots computer">
<polygon fill="none" stroke="blue" points="358.33,-108 199.33,-108 199.33,-72 358.33,-72 358.33,-108"/>
<text text-anchor="middle" x="278.83" y="-86.3" font-family="Times,serif" font-size="14.00">BIOS boots computer</text>
</a>
</g>
</g>
<!-- CPU_executes_BIOS_code_at_bottom_of_memory_map&#45;&gt;BIOS_boots_computer -->
<g id="edge3" class="edge">
<title>CPU_executes_BIOS_code_at_bottom_of_memory_map&#45;&gt;BIOS_boots_computer</title>
<path fill="none" stroke="black" d="M278.83,-143.7C278.83,-135.98 278.83,-126.71 278.83,-118.11"/>
<polygon fill="black" stroke="black" points="282.33,-118.1 278.83,-108.1 275.33,-118.1 282.33,-118.1"/>
</g>
<!-- operating_system_starts_desktop -->
<g id="node5" class="node">
<title>operating_system_starts_desktop</title>
<ellipse fill="none" stroke="black" cx="278.83" cy="-18" rx="161.67" ry="18"/>
<text text-anchor="middle" x="278.83" y="-14.3" font-family="Times,serif" font-size="14.00">operating system starts desktop</text>
</g>
<!-- BIOS_boots_computer&#45;&gt;operating_system_starts_desktop -->
<g id="edge4" class="edge">
<title>BIOS_boots_computer&#45;&gt;operating_system_starts_desktop</title>
<path fill="none" stroke="black" d="M278.83,-71.7C278.83,-63.98 278.83,-54.71 278.83,-46.11"/>
<polygon fill="black" stroke="black" points="282.33,-46.1 278.83,-36.1 275.33,-46.1 282.33,-46.1"/>
</g>
<!-- zoom out -->
<g id="node6" class="node">
<title>zoom out</title>
<g id="a_node6"><a xlink:href="single_layer_0_top.svg" xlink:title="zoom out">
<polygon fill="none" stroke="red" points="670.83,-334 570.64,-299.5 771.01,-299.5 670.83,-334"/>
<text text-anchor="middle" x="670.83" y="-307.3" font-family="Times,serif" font-size="14.00">zoom out</text>
</a>
</g>
</g>
</g>
</svg>
