<?xml version="1.0" encoding="UTF-8" standalone="no"?>
<!DOCTYPE svg PUBLIC "-//W3C//DTD SVG 1.1//EN"
 "http://www.w3.org/Graphics/SVG/1.1/DTD/svg11.dtd">
<!-- Generated by graphviz version 2.44.0 ()
 -->
<!-- Pages: 1 -->
<svg width="524pt" height="198pt"
 viewBox="0.00 0.00 523.88 198.00" xmlns="http://www.w3.org/2000/svg" xmlns:xlink="http://www.w3.org/1999/xlink">
<g id="graph0" class="graph" transform="scale(1 1) rotate(0) translate(4 194)">
<polygon fill="white" stroke="transparent" points="-4,4 -4,-194 519.88,-194 519.88,4 -4,4"/>
<!-- NIC_sends_SYN_packet_to_router -->
<g id="node1" class="node">
<title>NIC_sends_SYN_packet_to_router</title>
<g id="a_node1"><a xlink:href="single_layer_8_NIC_sends_SYN_packet_to_router.svg" xlink:title="NIC sends SYN packet to router">
<polygon fill="none" stroke="blue" points="297.78,-185 55.78,-185 55.78,-149 297.78,-149 297.78,-185"/>
<text text-anchor="middle" x="176.78" y="-163.3" font-family="Times,serif" font-size="14.00">NIC sends SYN packet to router</text>
</a>
</g>
</g>
<!-- router_sends_SYNACK_packet_to_NIC -->
<g id="node2" class="node">
<title>router_sends_SYNACK_packet_to_NIC</title>
<ellipse fill="none" stroke="black" cx="176.78" cy="-90" rx="176.57" ry="18"/>
<text text-anchor="middle" x="176.78" y="-86.3" font-family="Times,serif" font-size="14.00">router sends SYN&#45;ACK packet to NIC</text>
</g>
<!-- NIC_sends_SYN_packet_to_router&#45;&gt;router_sends_SYNACK_packet_to_NIC -->
<g id="edge1" class="edge">
<title>NIC_sends_SYN_packet_to_router&#45;&gt;router_sends_SYNACK_packet_to_NIC</title>
<path fill="none" stroke="black" d="M176.78,-148.98C176.78,-139.94 176.78,-128.6 176.78,-118.35"/>
<polygon fill="black" stroke="black" points="180.28,-118.21 176.78,-108.21 173.28,-118.21 180.28,-118.21"/>
</g>
<!-- NIC_sends_ACK_packet_to_router -->
<g id="node3" class="node">
<title>NIC_sends_ACK_packet_to_router</title>
<ellipse fill="none" stroke="black" cx="176.78" cy="-18" rx="157.07" ry="18"/>
<text text-anchor="middle" x="176.78" y="-14.3" font-family="Times,serif" font-size="14.00">NIC sends ACK packet to router</text>
</g>
<!-- router_sends_SYNACK_packet_to_NIC&#45;&gt;NIC_sends_ACK_packet_to_router -->
<g id="edge2" class="edge">
<title>router_sends_SYNACK_packet_to_NIC&#45;&gt;NIC_sends_ACK_packet_to_router</title>
<path fill="none" stroke="black" d="M176.78,-71.7C176.78,-63.98 176.78,-54.71 176.78,-46.11"/>
<polygon fill="black" stroke="black" points="180.28,-46.1 176.78,-36.1 173.28,-46.1 180.28,-46.1"/>
</g>
<!-- zoom out -->
<g id="node4" class="node">
<title>zoom out</title>
<g id="a_node4"><a xlink:href="single_layer_6_operating_system_sends_request_to_router.svg" xlink:title="zoom out">
<polygon fill="none" stroke="red" points="415.78,-190 315.6,-155.5 515.97,-155.5 415.78,-190"/>
<text text-anchor="middle" x="415.78" y="-163.3" font-family="Times,serif" font-size="14.00">zoom out</text>
</a>
</g>
</g>
</g>
</svg>
