<?xml version="1.0" encoding="UTF-8" standalone="no"?>
<!DOCTYPE svg PUBLIC "-//W3C//DTD SVG 1.1//EN"
 "http://www.w3.org/Graphics/SVG/1.1/DTD/svg11.dtd">
<!-- Generated by graphviz version 2.44.0 ()
 -->
<!-- Pages: 1 -->
<svg width="498pt" height="126pt"
 viewBox="0.00 0.00 497.59 126.00" xmlns="http://www.w3.org/2000/svg" xmlns:xlink="http://www.w3.org/1999/xlink">
<g id="graph0" class="graph" transform="scale(1 1) rotate(0) translate(4 122)">
<polygon fill="white" stroke="transparent" points="-4,4 -4,-122 493.59,-122 493.59,4 -4,4"/>
<!-- NIC_creates_IP_dataframe -->
<g id="node1" class="node">
<title>NIC_creates_IP_dataframe</title>
<ellipse fill="none" stroke="black" cx="143.5" cy="-95" rx="128.08" ry="18"/>
<text text-anchor="middle" x="143.5" y="-91.3" font-family="Times,serif" font-size="14.00">NIC creates IP dataframe</text>
</g>
<!-- NIC_sends_IP_dataframe_to_router_NIC -->
<g id="node2" class="node">
<title>NIC_sends_IP_dataframe_to_router_NIC</title>
<g id="a_node2"><a xlink:href="single_layer_9_NIC_sends_IP_dataframe_to_router_NIC.svg" xlink:title="NIC sends IP dataframe to router NIC">
<polygon fill="none" stroke="blue" points="287,-36 0,-36 0,0 287,0 287,-36"/>
<text text-anchor="middle" x="143.5" y="-14.3" font-family="Times,serif" font-size="14.00">NIC sends IP dataframe to router NIC</text>
</a>
</g>
</g>
<!-- NIC_creates_IP_dataframe&#45;&gt;NIC_sends_IP_dataframe_to_router_NIC -->
<g id="edge1" class="edge">
<title>NIC_creates_IP_dataframe&#45;&gt;NIC_sends_IP_dataframe_to_router_NIC</title>
<path fill="none" stroke="black" d="M143.5,-76.98C143.5,-67.94 143.5,-56.6 143.5,-46.35"/>
<polygon fill="black" stroke="black" points="147,-46.21 143.5,-36.21 140,-46.21 147,-46.21"/>
</g>
<!-- zoom out -->
<g id="node3" class="node">
<title>zoom out</title>
<g id="a_node3"><a xlink:href="single_layer_7_operating_system_implements_TCP_connection_to_router.svg" xlink:title="zoom out">
<polygon fill="none" stroke="red" points="389.5,-118 289.32,-83.5 489.68,-83.5 389.5,-118"/>
<text text-anchor="middle" x="389.5" y="-91.3" font-family="Times,serif" font-size="14.00">zoom out</text>
</a>
</g>
</g>
</g>
</svg>
