<?xml version="1.0" encoding="UTF-8" standalone="no"?>
<!DOCTYPE svg PUBLIC "-//W3C//DTD SVG 1.1//EN"
 "http://www.w3.org/Graphics/SVG/1.1/DTD/svg11.dtd">
<!-- Generated by graphviz version 2.44.0 ()
 -->
<!-- Pages: 1 -->
<svg width="914pt" height="232pt"
 viewBox="0.00 0.00 913.58 232.00" xmlns="http://www.w3.org/2000/svg" xmlns:xlink="http://www.w3.org/1999/xlink">
<g id="graph0" class="graph" transform="scale(1 1) rotate(0) translate(4 228)">
<polygon fill="white" stroke="transparent" points="-4,4 -4,-228 909.58,-228 909.58,4 -4,4"/>
<g id="clust1" class="cluster">
<title>cluster_NIC_sends_SYN_packet_to_router</title>
<g id="a_clust1"><a xlink:href="auto_8_NIC_sends_SYN_packet_to_router.svg" xlink:title="NIC sends SYN packet to router">
<polygon fill="none" stroke="black" points="8,-64 8,-216 554,-216 554,-64 8,-64"/>
<text text-anchor="middle" x="281" y="-200.8" font-family="Times,serif" font-size="14.00">NIC sends SYN packet to router</text>
</a>
</g>
</g>
<!-- NIC_sends_SYN_packet_to_router -->
<!-- router_sends_SYNACK_packet_to_NIC -->
<g id="node4" class="node">
<title>router_sends_SYNACK_packet_to_NIC</title>
<ellipse fill="none" stroke="black" cx="734" cy="-90" rx="171.67" ry="18"/>
<text text-anchor="middle" x="734" y="-86.3" font-family="Times,serif" font-size="14.00">router_sends_SYNACK_packet_to_NIC</text>
</g>
<!-- NIC_sends_SYN_packet_to_router&#45;&gt;router_sends_SYNACK_packet_to_NIC -->
<g id="edge2" class="edge">
<title>NIC_sends_SYN_packet_to_router&#45;&gt;router_sends_SYNACK_packet_to_NIC</title>
<path fill="none" stroke="black" d="M554,-130.13C588.46,-122.64 623.33,-115.06 653.08,-108.59"/>
<polygon fill="black" stroke="black" points="654.08,-111.96 663.1,-106.41 652.59,-105.12 654.08,-111.96"/>
</g>
<!-- NIC_sends_SYN_packet_to_routerNIC_creates_IP_dataframe -->
<g id="node2" class="node">
<title>NIC_sends_SYN_packet_to_routerNIC_creates_IP_dataframe</title>
<polygon fill="none" stroke="black" points="213.5,-185 16.5,-185 16.5,-149 213.5,-149 213.5,-185"/>
<text text-anchor="middle" x="115" y="-163.3" font-family="Times,serif" font-size="14.00">NIC creates IP dataframe</text>
</g>
<!-- NIC_sends_SYN_packet_to_routerNIC_sends_IP_dataframe_to_router_NIC -->
<g id="node3" class="node">
<title>NIC_sends_SYN_packet_to_routerNIC_sends_IP_dataframe_to_router_NIC</title>
<g id="a_node3"><a xlink:href="auto_8_NIC_sends_SYN_packet_to_router.svg" xlink:title="NIC sends IP dataframe to router NIC">
<polygon fill="none" stroke="blue" points="303.5,-108 16.5,-108 16.5,-72 303.5,-72 303.5,-108"/>
<text text-anchor="middle" x="160" y="-86.3" font-family="Times,serif" font-size="14.00">NIC sends IP dataframe to router NIC</text>
</a>
</g>
</g>
<!-- NIC_sends_SYN_packet_to_routerNIC_creates_IP_dataframe&#45;&gt;NIC_sends_SYN_packet_to_routerNIC_sends_IP_dataframe_to_router_NIC -->
<g id="edge1" class="edge">
<title>NIC_sends_SYN_packet_to_routerNIC_creates_IP_dataframe&#45;&gt;NIC_sends_SYN_packet_to_routerNIC_sends_IP_dataframe_to_router_NIC</title>
<path fill="none" stroke="black" d="M125.21,-148.98C130.87,-139.55 138.02,-127.64 144.36,-117.06"/>
<polygon fill="black" stroke="black" points="147.53,-118.59 149.67,-108.21 141.53,-114.99 147.53,-118.59"/>
</g>
<!-- NIC_sends_ACK_packet_to_router -->
<g id="node5" class="node">
<title>NIC_sends_ACK_packet_to_router</title>
<ellipse fill="none" stroke="black" cx="734" cy="-18" rx="157.07" ry="18"/>
<text text-anchor="middle" x="734" y="-14.3" font-family="Times,serif" font-size="14.00">NIC_sends_ACK_packet_to_router</text>
</g>
<!-- router_sends_SYNACK_packet_to_NIC&#45;&gt;NIC_sends_ACK_packet_to_router -->
<g id="edge3" class="edge">
<title>router_sends_SYNACK_packet_to_NIC&#45;&gt;NIC_sends_ACK_packet_to_router</title>
<path fill="none" stroke="black" d="M734,-71.7C734,-63.98 734,-54.71 734,-46.11"/>
<polygon fill="black" stroke="black" points="737.5,-46.1 734,-36.1 730.5,-46.1 737.5,-46.1"/>
</g>
<!-- zoom out -->
<g id="node6" class="node">
<title>zoom out</title>
<g id="a_node6"><a xlink:href="auto_6_operating_system_sends_request_to_router.svg" xlink:title="zoom out">
<polygon fill="none" stroke="red" points="664,-190 563.82,-155.5 764.18,-155.5 664,-190"/>
<text text-anchor="middle" x="664" y="-163.3" font-family="Times,serif" font-size="14.00">zoom out</text>
</a>
</g>
</g>
</g>
</svg>
