<?xml version="1.0" encoding="UTF-8" standalone="no"?>
<!DOCTYPE svg PUBLIC "-//W3C//DTD SVG 1.1//EN"
 "http://www.w3.org/Graphics/SVG/1.1/DTD/svg11.dtd">
<!-- Generated by graphviz version 2.44.0 ()
 -->
<!-- Pages: 1 -->
<svg width="2512pt" height="775pt"
 viewBox="0.00 0.00 2512.00 775.00" xmlns="http://www.w3.org/2000/svg" xmlns:xlink="http://www.w3.org/1999/xlink">
<g id="graph0" class="graph" transform="scale(1 1) rotate(0) translate(4 771)">
<polygon fill="white" stroke="transparent" points="-4,4 -4,-771 2508,-771 2508,4 -4,4"/>
<g id="clust1" class="cluster">
<title>cluster_computer_has_state_turning_on</title>
<g id="a_clust1"><a xlink:href="auto_1_computer_has_state_turning_on.svg" xlink:title="computer has state turning on">
<polygon fill="none" stroke="black" points="1047,-8 1047,-371 1807,-371 1807,-8 1047,-8"/>
<text text-anchor="middle" x="1427" y="-355.8" font-family="Times,serif" font-size="14.00">computer has state turning on</text>
</a>
</g>
</g>
<g id="clust2" class="cluster">
<title>cluster_computer_has_state_off</title>
<g id="a_clust2"><a xlink:href="auto_1_computer_has_state_off.svg" xlink:title="computer has state off">
<polygon fill="none" stroke="black" points="1814,-451 1814,-601 2110,-601 2110,-451 1814,-451"/>
<text text-anchor="middle" x="1962" y="-585.8" font-family="Times,serif" font-size="14.00">computer has state off</text>
</a>
</g>
</g>
<g id="clust3" class="cluster">
<title>cluster_user_turns_on_computer</title>
<g id="a_clust3"><a xlink:href="auto_1_user_turns_on_computer.svg" xlink:title="user turns on computer">
<polygon fill="none" stroke="black" points="2118,-379 2118,-526 2496,-526 2496,-379 2118,-379"/>
<text text-anchor="middle" x="2307" y="-510.8" font-family="Times,serif" font-size="14.00">user turns on computer</text>
</a>
</g>
</g>
<g id="clust4" class="cluster">
<title>cluster_user_browses_the_web</title>
<g id="a_clust4"><a xlink:href="auto_1_user_browses_the_web.svg" xlink:title="user browses the web">
<polygon fill="none" stroke="black" points="8,-296 8,-759 442,-759 442,-296 8,-296"/>
<text text-anchor="middle" x="225" y="-743.8" font-family="Times,serif" font-size="14.00">user browses the web</text>
</a>
</g>
</g>
<g id="clust5" class="cluster">
<title>cluster_computer_has_state_idle</title>
<g id="a_clust5"><a xlink:href="auto_1_computer_has_state_idle.svg" xlink:title="computer has state idle">
<polygon fill="none" stroke="black" points="450,-609 450,-759 768,-759 768,-609 450,-609"/>
<text text-anchor="middle" x="609" y="-743.8" font-family="Times,serif" font-size="14.00">computer has state idle</text>
</a>
</g>
</g>
<g id="clust6" class="cluster">
<title>cluster_user_turns_off_the_computer</title>
<g id="a_clust6"><a xlink:href="auto_1_user_turns_off_the_computer.svg" xlink:title="user turns off the computer">
<polygon fill="none" stroke="black" points="776,-451 776,-684 1806,-684 1806,-451 776,-451"/>
<text text-anchor="middle" x="1291" y="-668.8" font-family="Times,serif" font-size="14.00">user turns off the computer</text>
</a>
</g>
</g>
<!-- computer_has_state_turning_on -->
<!-- user_browses_the_web -->
<!-- computer_has_state_turning_on&#45;&gt;user_browses_the_web -->
<g id="edge19" class="edge">
<title>computer_has_state_turning_on&#45;&gt;user_browses_the_web</title>
<path fill="none" stroke="black" d="M1486,-371C1384.85,-390.68 682.88,-364.6 451.67,-426.92"/>
<polygon fill="black" stroke="black" points="450.66,-423.56 442,-429.66 452.57,-430.3 450.66,-423.56"/>
</g>
<!-- computer_has_state_turning_onwhile_computer_is_off_power_button_short_circuits_wire -->
<g id="node2" class="node">
<title>computer_has_state_turning_onwhile_computer_is_off_power_button_short_circuits_wire</title>
<polygon fill="none" stroke="black" points="1477,-340 1055,-340 1055,-304 1477,-304 1477,-340"/>
<text text-anchor="middle" x="1266" y="-318.3" font-family="Times,serif" font-size="14.00">while computer is off power button short circuits wire</text>
</g>
<!-- computer_has_state_turning_onwhile_computer_is_off_motherboard_does_something_to_CPU -->
<g id="node3" class="node">
<title>computer_has_state_turning_onwhile_computer_is_off_motherboard_does_something_to_CPU</title>
<polygon fill="none" stroke="black" points="1484.5,-268 1055.5,-268 1055.5,-232 1484.5,-232 1484.5,-268"/>
<text text-anchor="middle" x="1270" y="-246.3" font-family="Times,serif" font-size="14.00">while computer is off motherboard does something to CPU</text>
</g>
<!-- computer_has_state_turning_onwhile_computer_is_off_power_button_short_circuits_wire&#45;&gt;computer_has_state_turning_onwhile_computer_is_off_motherboard_does_something_to_CPU -->
<g id="edge1" class="edge">
<title>computer_has_state_turning_onwhile_computer_is_off_power_button_short_circuits_wire&#45;&gt;computer_has_state_turning_onwhile_computer_is_off_motherboard_does_something_to_CPU</title>
<path fill="none" stroke="black" d="M1266.99,-303.7C1267.43,-295.98 1267.96,-286.71 1268.45,-278.11"/>
<polygon fill="black" stroke="black" points="1271.95,-278.29 1269.02,-268.1 1264.96,-277.89 1271.95,-278.29"/>
</g>
<!-- computer_has_state_turning_onCPU_executes_BIOS_code_at_bottom_of_memory_map -->
<g id="node4" class="node">
<title>computer_has_state_turning_onCPU_executes_BIOS_code_at_bottom_of_memory_map</title>
<polygon fill="none" stroke="black" points="1451,-196 1089,-196 1089,-160 1451,-160 1451,-196"/>
<text text-anchor="middle" x="1270" y="-174.3" font-family="Times,serif" font-size="14.00">CPU executes BIOS code at bottom of memory map</text>
</g>
<!-- computer_has_state_turning_onwhile_computer_is_off_motherboard_does_something_to_CPU&#45;&gt;computer_has_state_turning_onCPU_executes_BIOS_code_at_bottom_of_memory_map -->
<g id="edge2" class="edge">
<title>computer_has_state_turning_onwhile_computer_is_off_motherboard_does_something_to_CPU&#45;&gt;computer_has_state_turning_onCPU_executes_BIOS_code_at_bottom_of_memory_map</title>
<path fill="none" stroke="black" d="M1270,-231.7C1270,-223.98 1270,-214.71 1270,-206.11"/>
<polygon fill="black" stroke="black" points="1273.5,-206.1 1270,-196.1 1266.5,-206.1 1273.5,-206.1"/>
</g>
<!-- computer_has_state_turning_onBIOS_boots_computer -->
<g id="node5" class="node">
<title>computer_has_state_turning_onBIOS_boots_computer</title>
<g id="a_node5"><a xlink:href="auto_1_computer_has_state_turning_on.svg" xlink:title="BIOS boots computer">
<polygon fill="none" stroke="blue" points="1349.5,-124 1190.5,-124 1190.5,-88 1349.5,-88 1349.5,-124"/>
<text text-anchor="middle" x="1270" y="-102.3" font-family="Times,serif" font-size="14.00">BIOS boots computer</text>
</a>
</g>
</g>
<!-- computer_has_state_turning_onCPU_executes_BIOS_code_at_bottom_of_memory_map&#45;&gt;computer_has_state_turning_onBIOS_boots_computer -->
<g id="edge3" class="edge">
<title>computer_has_state_turning_onCPU_executes_BIOS_code_at_bottom_of_memory_map&#45;&gt;computer_has_state_turning_onBIOS_boots_computer</title>
<path fill="none" stroke="black" d="M1270,-159.7C1270,-151.98 1270,-142.71 1270,-134.11"/>
<polygon fill="black" stroke="black" points="1273.5,-134.1 1270,-124.1 1266.5,-134.1 1273.5,-134.1"/>
</g>
<!-- computer_has_state_turning_onoperating_system_starts_desktop -->
<g id="node6" class="node">
<title>computer_has_state_turning_onoperating_system_starts_desktop</title>
<polygon fill="none" stroke="black" points="1394.5,-52 1145.5,-52 1145.5,-16 1394.5,-16 1394.5,-52"/>
<text text-anchor="middle" x="1270" y="-30.3" font-family="Times,serif" font-size="14.00">operating system starts desktop</text>
</g>
<!-- computer_has_state_turning_onBIOS_boots_computer&#45;&gt;computer_has_state_turning_onoperating_system_starts_desktop -->
<g id="edge4" class="edge">
<title>computer_has_state_turning_onBIOS_boots_computer&#45;&gt;computer_has_state_turning_onoperating_system_starts_desktop</title>
<path fill="none" stroke="black" d="M1270,-87.7C1270,-79.98 1270,-70.71 1270,-62.11"/>
<polygon fill="black" stroke="black" points="1273.5,-62.1 1270,-52.1 1266.5,-62.1 1273.5,-62.1"/>
</g>
<!-- computer_has_state_off -->
<!-- user_turns_on_computer -->
<!-- computer_has_state_off&#45;&gt;user_turns_on_computer -->
<g id="edge17" class="edge">
<title>computer_has_state_off&#45;&gt;user_turns_on_computer</title>
<path fill="none" stroke="black" d="M2062.7,-451C2077.43,-447.35 2092.8,-443.53 2108.09,-439.74"/>
<polygon fill="black" stroke="black" points="2109.14,-443.08 2118,-437.28 2107.45,-436.29 2109.14,-443.08"/>
</g>
<!-- computer_has_state_offmotherboard_uses_power_from_battery -->
<g id="node8" class="node">
<title>computer_has_state_offmotherboard_uses_power_from_battery</title>
<polygon fill="none" stroke="black" points="2101.5,-570 1822.5,-570 1822.5,-534 2101.5,-534 2101.5,-570"/>
<text text-anchor="middle" x="1962" y="-548.3" font-family="Times,serif" font-size="14.00">motherboard uses power from battery</text>
</g>
<!-- computer_has_state_offmotherboard_uses_power_from_battery&#45;&gt;computer_has_state_off -->
<!-- user_turns_on_computer&#45;&gt;computer_has_state_turning_on -->
<g id="edge18" class="edge">
<title>user_turns_on_computer&#45;&gt;computer_has_state_turning_on</title>
<path fill="none" stroke="black" d="M2118,-386.9C2030.48,-375.03 1912.84,-359.07 1817.02,-346.07"/>
<polygon fill="black" stroke="black" points="1817.38,-342.58 1807,-344.71 1816.43,-349.52 1817.38,-342.58"/>
</g>
<!-- user_turns_on_computerwhile_computer_is_off_user_pushes_power_button -->
<g id="node10" class="node">
<title>user_turns_on_computerwhile_computer_is_off_user_pushes_power_button</title>
<polygon fill="none" stroke="black" points="2488,-495 2126,-495 2126,-459 2488,-459 2488,-495"/>
<text text-anchor="middle" x="2307" y="-473.3" font-family="Times,serif" font-size="14.00">while computer is off user pushes power button</text>
</g>
<!-- user_turns_on_computerwhile_computer_is_off_user_pushes_power_button&#45;&gt;user_turns_on_computer -->
<!-- computer_has_state_idle -->
<!-- user_browses_the_web&#45;&gt;computer_has_state_idle -->
<g id="edge20" class="edge">
<title>user_browses_the_web&#45;&gt;computer_has_state_idle</title>
<path fill="none" stroke="black" d="M442,-685.5C444,-684.87 446,-684.24 448,-683.62"/>
<polygon fill="black" stroke="black" points="441.5,-689.32 450,-682.99 439.41,-682.64 441.5,-689.32"/>
</g>
<!-- user_browses_the_webuser_opens_web_browser -->
<g id="node12" class="node">
<title>user_browses_the_webuser_opens_web_browser</title>
<g id="a_node12"><a xlink:href="auto_1_user_browses_the_web.svg" xlink:title="user opens web browser">
<polygon fill="none" stroke="blue" points="198,-728 16,-728 16,-692 198,-692 198,-728"/>
<text text-anchor="middle" x="107" y="-706.3" font-family="Times,serif" font-size="14.00">user opens web browser</text>
</a>
</g>
</g>
<!-- user_browses_the_webuser_types_URL_of_website -->
<g id="node13" class="node">
<title>user_browses_the_webuser_types_URL_of_website</title>
<g id="a_node13"><a xlink:href="auto_1_user_browses_the_web.svg" xlink:title="user types URL of website">
<polygon fill="none" stroke="blue" points="220,-653 16,-653 16,-617 220,-617 220,-653"/>
<text text-anchor="middle" x="118" y="-631.3" font-family="Times,serif" font-size="14.00">user types URL of website</text>
</a>
</g>
</g>
<!-- user_browses_the_webuser_opens_web_browser&#45;&gt;user_browses_the_webuser_types_URL_of_website -->
<g id="edge7" class="edge">
<title>user_browses_the_webuser_opens_web_browser&#45;&gt;user_browses_the_webuser_types_URL_of_website</title>
<path fill="none" stroke="black" d="M109.61,-691.7C110.89,-683.15 112.48,-672.65 113.92,-663.07"/>
<polygon fill="black" stroke="black" points="117.38,-663.59 115.41,-653.18 110.46,-662.54 117.38,-663.59"/>
</g>
<!-- user_browses_the_webweb_browser_shows_webpage -->
<g id="node14" class="node">
<title>user_browses_the_webweb_browser_shows_webpage</title>
<g id="a_node14"><a xlink:href="auto_1_user_browses_the_web.svg" xlink:title="web browser shows webpage">
<polygon fill="none" stroke="blue" points="220,-570 16,-570 16,-534 220,-534 220,-570"/>
<text text-anchor="middle" x="118" y="-548.3" font-family="Times,serif" font-size="14.00">web browser shows webpage</text>
</a>
</g>
</g>
<!-- user_browses_the_webuser_types_URL_of_website&#45;&gt;user_browses_the_webweb_browser_shows_webpage -->
<g id="edge8" class="edge">
<title>user_browses_the_webuser_types_URL_of_website&#45;&gt;user_browses_the_webweb_browser_shows_webpage</title>
<path fill="none" stroke="black" d="M118,-616.82C118,-606.19 118,-592.31 118,-580.2"/>
<polygon fill="black" stroke="black" points="121.5,-580.15 118,-570.15 114.5,-580.15 121.5,-580.15"/>
</g>
<!-- user_browses_the_webuser_reads_webpage -->
<g id="node15" class="node">
<title>user_browses_the_webuser_reads_webpage</title>
<polygon fill="none" stroke="black" points="194,-495 42,-495 42,-459 194,-459 194,-495"/>
<text text-anchor="middle" x="118" y="-473.3" font-family="Times,serif" font-size="14.00">user reads webpage</text>
</g>
<!-- user_browses_the_webweb_browser_shows_webpage&#45;&gt;user_browses_the_webuser_reads_webpage -->
<g id="edge9" class="edge">
<title>user_browses_the_webweb_browser_shows_webpage&#45;&gt;user_browses_the_webuser_reads_webpage</title>
<path fill="none" stroke="black" d="M118,-533.7C118,-525.25 118,-514.87 118,-505.37"/>
<polygon fill="black" stroke="black" points="121.5,-505.18 118,-495.18 114.5,-505.18 121.5,-505.18"/>
</g>
<!-- user_browses_the_webuser_clicks_on_link -->
<g id="node16" class="node">
<title>user_browses_the_webuser_clicks_on_link</title>
<g id="a_node16"><a xlink:href="auto_1_user_browses_the_web.svg" xlink:title="user clicks on link">
<polygon fill="none" stroke="blue" points="197.5,-423 38.5,-423 38.5,-387 197.5,-387 197.5,-423"/>
<text text-anchor="middle" x="118" y="-401.3" font-family="Times,serif" font-size="14.00">user clicks on link</text>
</a>
</g>
</g>
<!-- user_browses_the_webuser_reads_webpage&#45;&gt;user_browses_the_webuser_clicks_on_link -->
<g id="edge10" class="edge">
<title>user_browses_the_webuser_reads_webpage&#45;&gt;user_browses_the_webuser_clicks_on_link</title>
<path fill="none" stroke="black" d="M118,-458.7C118,-450.98 118,-441.71 118,-433.11"/>
<polygon fill="black" stroke="black" points="121.5,-433.1 118,-423.1 114.5,-433.1 121.5,-433.1"/>
</g>
<!-- user_browses_the_webuser_closes_web_browser -->
<g id="node17" class="node">
<title>user_browses_the_webuser_closes_web_browser</title>
<g id="a_node17"><a xlink:href="auto_1_user_browses_the_web.svg" xlink:title="user closes web browser">
<polygon fill="none" stroke="blue" points="212.5,-340 23.5,-340 23.5,-304 212.5,-304 212.5,-340"/>
<text text-anchor="middle" x="118" y="-318.3" font-family="Times,serif" font-size="14.00">user closes web browser</text>
</a>
</g>
</g>
<!-- user_browses_the_webuser_clicks_on_link&#45;&gt;user_browses_the_webuser_closes_web_browser -->
<g id="edge11" class="edge">
<title>user_browses_the_webuser_clicks_on_link&#45;&gt;user_browses_the_webuser_closes_web_browser</title>
<path fill="none" stroke="black" d="M118,-386.82C118,-376.19 118,-362.31 118,-350.2"/>
<polygon fill="black" stroke="black" points="121.5,-350.15 118,-340.15 114.5,-350.15 121.5,-350.15"/>
</g>
<!-- user_turns_off_the_computer -->
<!-- computer_has_state_idle&#45;&gt;user_turns_off_the_computer -->
<g id="edge21" class="edge">
<title>computer_has_state_idle&#45;&gt;user_turns_off_the_computer</title>
<path fill="none" stroke="black" d="M768,-609.59C770,-609.36 772,-609.14 774,-608.91"/>
<polygon fill="black" stroke="black" points="766.46,-613.29 776,-608.68 765.67,-606.34 766.46,-613.29"/>
</g>
<!-- computer_has_state_idleoperating_system_waiting_for_interrupt -->
<g id="node19" class="node">
<title>computer_has_state_idleoperating_system_waiting_for_interrupt</title>
<polygon fill="none" stroke="black" points="760,-728 458,-728 458,-692 760,-692 760,-728"/>
<text text-anchor="middle" x="609" y="-706.3" font-family="Times,serif" font-size="14.00">operating system waiting for interrupt</text>
</g>
<!-- computer_has_state_idleoperating_system_waiting_for_interrupt&#45;&gt;computer_has_state_idle -->
<!-- user_turns_off_the_computer&#45;&gt;computer_has_state_off -->
<g id="edge22" class="edge">
<title>user_turns_off_the_computer&#45;&gt;computer_has_state_off</title>
<path fill="none" stroke="black" d="M1806,-526.77C1808,-526.4 1810,-526.04 1812,-525.67"/>
<polygon fill="black" stroke="black" points="1804.8,-530.55 1814,-525.3 1803.54,-523.66 1804.8,-530.55"/>
</g>
<!-- user_turns_off_the_computerwhile_computer_is_on_user_pushes_power_button -->
<g id="node21" class="node">
<title>user_turns_off_the_computerwhile_computer_is_on_user_pushes_power_button</title>
<polygon fill="none" stroke="black" points="1168,-653 814,-653 814,-617 1168,-617 1168,-653"/>
<text text-anchor="middle" x="991" y="-631.3" font-family="Times,serif" font-size="14.00">while computer is on user pushes power button</text>
</g>
<!-- user_turns_off_the_computerwhile_computer_is_on_power_button_short_circuits_wire -->
<g id="node22" class="node">
<title>user_turns_off_the_computerwhile_computer_is_on_power_button_short_circuits_wire</title>
<polygon fill="none" stroke="black" points="1198,-570 784,-570 784,-534 1198,-534 1198,-570"/>
<text text-anchor="middle" x="991" y="-548.3" font-family="Times,serif" font-size="14.00">while computer is on power button short circuits wire</text>
</g>
<!-- user_turns_off_the_computerwhile_computer_is_on_user_pushes_power_button&#45;&gt;user_turns_off_the_computerwhile_computer_is_on_power_button_short_circuits_wire -->
<g id="edge13" class="edge">
<title>user_turns_off_the_computerwhile_computer_is_on_user_pushes_power_button&#45;&gt;user_turns_off_the_computerwhile_computer_is_on_power_button_short_circuits_wire</title>
<path fill="none" stroke="black" d="M991,-616.82C991,-606.19 991,-592.31 991,-580.2"/>
<polygon fill="black" stroke="black" points="994.5,-580.15 991,-570.15 987.5,-580.15 994.5,-580.15"/>
</g>
<!-- user_turns_off_the_computerwhile_computer_is_on_motherboard_does_something_to_CPU -->
<g id="node23" class="node">
<title>user_turns_off_the_computerwhile_computer_is_on_motherboard_does_something_to_CPU</title>
<polygon fill="none" stroke="black" points="1206,-495 784,-495 784,-459 1206,-459 1206,-495"/>
<text text-anchor="middle" x="995" y="-473.3" font-family="Times,serif" font-size="14.00">while computer is on motherboard does something to CPU</text>
</g>
<!-- user_turns_off_the_computerwhile_computer_is_on_power_button_short_circuits_wire&#45;&gt;user_turns_off_the_computerwhile_computer_is_on_motherboard_does_something_to_CPU -->
<g id="edge14" class="edge">
<title>user_turns_off_the_computerwhile_computer_is_on_power_button_short_circuits_wire&#45;&gt;user_turns_off_the_computerwhile_computer_is_on_motherboard_does_something_to_CPU</title>
<path fill="none" stroke="black" d="M991.95,-533.7C992.41,-525.25 992.98,-514.87 993.5,-505.37"/>
<polygon fill="black" stroke="black" points="997.01,-505.35 994.06,-495.18 990.02,-504.97 997.01,-505.35"/>
</g>
<!-- user_turns_off_the_computeruser_selects_shutdown_menu_option_on_desktop -->
<g id="node24" class="node">
<title>user_turns_off_the_computeruser_selects_shutdown_menu_option_on_desktop</title>
<polygon fill="none" stroke="black" points="1798.5,-653 1451.5,-653 1451.5,-617 1798.5,-617 1798.5,-653"/>
<text text-anchor="middle" x="1625" y="-631.3" font-family="Times,serif" font-size="14.00">user selects shutdown menu option on desktop</text>
</g>
<!-- user_turns_off_the_computeroperating_system_terminates_desktop -->
<g id="node25" class="node">
<title>user_turns_off_the_computeroperating_system_terminates_desktop</title>
<polygon fill="none" stroke="black" points="1797.5,-570 1518.5,-570 1518.5,-534 1797.5,-534 1797.5,-570"/>
<text text-anchor="middle" x="1658" y="-548.3" font-family="Times,serif" font-size="14.00">operating system terminates desktop</text>
</g>
<!-- user_turns_off_the_computeruser_selects_shutdown_menu_option_on_desktop&#45;&gt;user_turns_off_the_computeroperating_system_terminates_desktop -->
<g id="edge15" class="edge">
<title>user_turns_off_the_computeruser_selects_shutdown_menu_option_on_desktop&#45;&gt;user_turns_off_the_computeroperating_system_terminates_desktop</title>
<path fill="none" stroke="black" d="M1632,-616.82C1636.42,-605.98 1642.22,-591.74 1647.21,-579.47"/>
<polygon fill="black" stroke="black" points="1650.48,-580.73 1651.01,-570.15 1644,-578.09 1650.48,-580.73"/>
</g>
<!-- user_turns_off_the_computeruser_types_REISUB -->
<g id="node26" class="node">
<title>user_turns_off_the_computeruser_types_REISUB</title>
<g id="a_node26"><a xlink:href="auto_1_user_turns_off_the_computer.svg" xlink:title="user types REISUB">
<polygon fill="none" stroke="blue" points="1430,-653 1286,-653 1286,-617 1430,-617 1430,-653"/>
<text text-anchor="middle" x="1358" y="-631.3" font-family="Times,serif" font-size="14.00">user types REISUB</text>
</a>
</g>
</g>
<!-- user_turns_off_the_computeruser_types_REISUB&#45;&gt;user_turns_off_the_computer -->
</g>
</svg>
