<?xml version="1.0" encoding="UTF-8" standalone="no"?>
<!DOCTYPE svg PUBLIC "-//W3C//DTD SVG 1.1//EN"
 "http://www.w3.org/Graphics/SVG/1.1/DTD/svg11.dtd">
<!-- Generated by graphviz version 2.44.0 ()
 -->
<!-- Pages: 1 -->
<svg width="2730pt" height="703pt"
 viewBox="0.00 0.00 2730.40 703.00" xmlns="http://www.w3.org/2000/svg" xmlns:xlink="http://www.w3.org/1999/xlink">
<g id="graph0" class="graph" transform="scale(1 1) rotate(0) translate(4 699)">
<polygon fill="white" stroke="transparent" points="-4,4 -4,-699 2726.4,-699 2726.4,4 -4,4"/>
<g id="clust1" class="cluster">
<title>cluster_action_user_turns_on_computer</title>
<g id="a_clust1"><a xlink:href="auto_1_action_user_turns_on_computer.svg" xlink:title="action: user turns on computer">
<polygon fill="none" stroke="black" points="1369,-540 1369,-687 1747,-687 1747,-540 1369,-540"/>
<text text-anchor="middle" x="1558" y="-671.8" font-family="Times,serif" font-size="14.00">action: user turns on computer</text>
</a>
</g>
</g>
<g id="clust2" class="cluster">
<title>cluster_state_computer_is_off</title>
<g id="a_clust2"><a xlink:href="auto_1_state_computer_is_off.svg" xlink:title="state: computer is off">
<polygon fill="none" stroke="black" points="2395,-152 2395,-299 2691,-299 2691,-152 2395,-152"/>
<text text-anchor="middle" x="2543" y="-283.8" font-family="Times,serif" font-size="14.00">state: computer is off</text>
</a>
</g>
</g>
<g id="clust3" class="cluster">
<title>cluster_state_computer_is_turning_on</title>
<g id="a_clust3"><a xlink:href="auto_1_state_computer_is_turning_on.svg" xlink:title="state: computer is turning on">
<polygon fill="none" stroke="black" points="8,-152 8,-532 760,-532 760,-152 8,-152"/>
<text text-anchor="middle" x="384" y="-516.8" font-family="Times,serif" font-size="14.00">state: computer is turning on</text>
</a>
</g>
</g>
<g id="clust4" class="cluster">
<title>cluster_action_user_browses_the_web</title>
<g id="a_clust4"><a xlink:href="auto_1_action_user_browses_the_web.svg" xlink:title="action: user browses the web">
<polygon fill="none" stroke="black" points="768,-8 768,-457 1268,-457 1268,-8 768,-8"/>
<text text-anchor="middle" x="1018" y="-441.8" font-family="Times,serif" font-size="14.00">action: user browses the web</text>
</a>
</g>
</g>
<g id="clust5" class="cluster">
<title>cluster_state_computer_is_idle</title>
<g id="a_clust5"><a xlink:href="auto_1_state_computer_is_idle.svg" xlink:title="state: computer is idle">
<polygon fill="none" stroke="black" points="2384,-307 2384,-457 2702,-457 2702,-307 2384,-307"/>
<text text-anchor="middle" x="2543" y="-441.8" font-family="Times,serif" font-size="14.00">state: computer is idle</text>
</a>
</g>
</g>
<g id="clust6" class="cluster">
<title>cluster_action_user_turns_off_the_computer</title>
<g id="a_clust6"><a xlink:href="auto_1_action_user_turns_off_the_computer.svg" xlink:title="action: user turns off the computer">
<polygon fill="none" stroke="black" points="1276,-152 1276,-382 2376,-382 2376,-152 1276,-152"/>
<text text-anchor="middle" x="1826" y="-366.8" font-family="Times,serif" font-size="14.00">action: user turns off the computer</text>
</a>
</g>
</g>
<!-- action_user_turns_on_computer -->
<!-- state_computer_is_turning_on -->
<!-- action_user_turns_on_computer&#45;&gt;state_computer_is_turning_on -->
<g id="edge18" class="edge">
<title>action_user_turns_on_computer&#45;&gt;state_computer_is_turning_on</title>
<path fill="none" stroke="black" d="M1369,-548.95C1194.28,-534.12 937.15,-512.29 770.13,-498.11"/>
<polygon fill="black" stroke="black" points="770.26,-494.6 760,-497.25 769.67,-501.58 770.26,-494.6"/>
</g>
<!-- action_user_turns_on_computerwhile_computer_is_off_user_pushes_power_button -->
<g id="node2" class="node">
<title>action_user_turns_on_computerwhile_computer_is_off_user_pushes_power_button</title>
<polygon fill="none" stroke="black" points="1739,-656 1377,-656 1377,-620 1739,-620 1739,-656"/>
<text text-anchor="middle" x="1558" y="-634.3" font-family="Times,serif" font-size="14.00">while computer is off user pushes power button</text>
</g>
<!-- action_user_turns_on_computerwhile_computer_is_off_user_pushes_power_button&#45;&gt;action_user_turns_on_computer -->
<!-- state_computer_is_off -->
<!-- state_computer_is_off&#45;&gt;action_user_turns_on_computer -->
<g id="edge17" class="edge">
<title>state_computer_is_off&#45;&gt;action_user_turns_on_computer</title>
<path fill="none" stroke="black" d="M2691,-230.96C2691.33,-231.3 2691.67,-231.65 2692,-232 2723.98,-265.63 2722,-285.6 2722,-332 2722,-409 2722,-409 2722,-409 2722,-431.49 2723.61,-443.01 2706,-457 2633.53,-514.58 2066.55,-545.33 1757.43,-557.97"/>
<polygon fill="black" stroke="black" points="1756.85,-554.49 1747,-558.39 1757.13,-561.48 1756.85,-554.49"/>
</g>
<!-- state_computer_is_offmotherboard_uses_power_from_battery -->
<g id="node4" class="node">
<title>state_computer_is_offmotherboard_uses_power_from_battery</title>
<polygon fill="none" stroke="black" points="2682.5,-268 2403.5,-268 2403.5,-232 2682.5,-232 2682.5,-268"/>
<text text-anchor="middle" x="2543" y="-246.3" font-family="Times,serif" font-size="14.00">motherboard uses power from battery</text>
</g>
<!-- state_computer_is_offmotherboard_uses_power_from_battery&#45;&gt;state_computer_is_off -->
<!-- action_user_browses_the_web -->
<!-- state_computer_is_turning_on&#45;&gt;action_user_browses_the_web -->
<g id="edge19" class="edge">
<title>state_computer_is_turning_on&#45;&gt;action_user_browses_the_web</title>
<path fill="none" stroke="black" d="M760,-479.42C821.33,-476.4 892.39,-470.43 956.97,-458.85"/>
<polygon fill="black" stroke="black" points="957.8,-462.26 967,-457 956.53,-455.38 957.8,-462.26"/>
</g>
<!-- state_computer_is_turning_onwhile_computer_is_off_power_button_short_circuits_wire -->
<g id="node6" class="node">
<title>state_computer_is_turning_onwhile_computer_is_off_power_button_short_circuits_wire</title>
<polygon fill="none" stroke="black" points="438,-501 16,-501 16,-465 438,-465 438,-501"/>
<text text-anchor="middle" x="227" y="-479.3" font-family="Times,serif" font-size="14.00">while computer is off power button short circuits wire</text>
</g>
<!-- state_computer_is_turning_onwhile_computer_is_off_motherboard_does_something_to_CPU -->
<g id="node7" class="node">
<title>state_computer_is_turning_onwhile_computer_is_off_motherboard_does_something_to_CPU</title>
<polygon fill="none" stroke="black" points="445.5,-426 16.5,-426 16.5,-390 445.5,-390 445.5,-426"/>
<text text-anchor="middle" x="231" y="-404.3" font-family="Times,serif" font-size="14.00">while computer is off motherboard does something to CPU</text>
</g>
<!-- state_computer_is_turning_onwhile_computer_is_off_power_button_short_circuits_wire&#45;&gt;state_computer_is_turning_onwhile_computer_is_off_motherboard_does_something_to_CPU -->
<g id="edge3" class="edge">
<title>state_computer_is_turning_onwhile_computer_is_off_power_button_short_circuits_wire&#45;&gt;state_computer_is_turning_onwhile_computer_is_off_motherboard_does_something_to_CPU</title>
<path fill="none" stroke="black" d="M227.95,-464.7C228.41,-456.25 228.98,-445.87 229.5,-436.37"/>
<polygon fill="black" stroke="black" points="233.01,-436.35 230.06,-426.18 226.02,-435.97 233.01,-436.35"/>
</g>
<!-- state_computer_is_turning_onCPU_executes_BIOS_code_at_bottom_of_memory_map -->
<g id="node8" class="node">
<title>state_computer_is_turning_onCPU_executes_BIOS_code_at_bottom_of_memory_map</title>
<polygon fill="none" stroke="black" points="412,-351 50,-351 50,-315 412,-315 412,-351"/>
<text text-anchor="middle" x="231" y="-329.3" font-family="Times,serif" font-size="14.00">CPU executes BIOS code at bottom of memory map</text>
</g>
<!-- state_computer_is_turning_onwhile_computer_is_off_motherboard_does_something_to_CPU&#45;&gt;state_computer_is_turning_onCPU_executes_BIOS_code_at_bottom_of_memory_map -->
<g id="edge4" class="edge">
<title>state_computer_is_turning_onwhile_computer_is_off_motherboard_does_something_to_CPU&#45;&gt;state_computer_is_turning_onCPU_executes_BIOS_code_at_bottom_of_memory_map</title>
<path fill="none" stroke="black" d="M231,-389.7C231,-381.25 231,-370.87 231,-361.37"/>
<polygon fill="black" stroke="black" points="234.5,-361.18 231,-351.18 227.5,-361.18 234.5,-361.18"/>
</g>
<!-- state_computer_is_turning_onBIOS_boots_computer -->
<g id="node9" class="node">
<title>state_computer_is_turning_onBIOS_boots_computer</title>
<g id="a_node9"><a xlink:href="auto_1_state_computer_is_turning_on.svg" xlink:title="BIOS boots computer">
<polygon fill="none" stroke="blue" points="310.5,-268 151.5,-268 151.5,-232 310.5,-232 310.5,-268"/>
<text text-anchor="middle" x="231" y="-246.3" font-family="Times,serif" font-size="14.00">BIOS boots computer</text>
</a>
</g>
</g>
<!-- state_computer_is_turning_onCPU_executes_BIOS_code_at_bottom_of_memory_map&#45;&gt;state_computer_is_turning_onBIOS_boots_computer -->
<g id="edge5" class="edge">
<title>state_computer_is_turning_onCPU_executes_BIOS_code_at_bottom_of_memory_map&#45;&gt;state_computer_is_turning_onBIOS_boots_computer</title>
<path fill="none" stroke="black" d="M231,-314.82C231,-304.19 231,-290.31 231,-278.2"/>
<polygon fill="black" stroke="black" points="234.5,-278.15 231,-268.15 227.5,-278.15 234.5,-278.15"/>
</g>
<!-- state_computer_is_turning_onoperating_system_starts_desktop -->
<g id="node10" class="node">
<title>state_computer_is_turning_onoperating_system_starts_desktop</title>
<polygon fill="none" stroke="black" points="355.5,-196 106.5,-196 106.5,-160 355.5,-160 355.5,-196"/>
<text text-anchor="middle" x="231" y="-174.3" font-family="Times,serif" font-size="14.00">operating system starts desktop</text>
</g>
<!-- state_computer_is_turning_onBIOS_boots_computer&#45;&gt;state_computer_is_turning_onoperating_system_starts_desktop -->
<g id="edge6" class="edge">
<title>state_computer_is_turning_onBIOS_boots_computer&#45;&gt;state_computer_is_turning_onoperating_system_starts_desktop</title>
<path fill="none" stroke="black" d="M231,-231.7C231,-223.98 231,-214.71 231,-206.11"/>
<polygon fill="black" stroke="black" points="234.5,-206.1 231,-196.1 227.5,-206.1 234.5,-206.1"/>
</g>
<!-- state_computer_is_idle -->
<!-- action_user_browses_the_web&#45;&gt;state_computer_is_idle -->
<g id="edge20" class="edge">
<title>action_user_browses_the_web&#45;&gt;state_computer_is_idle</title>
<path fill="none" stroke="black" d="M1268,-406.83C1570.63,-406.09 2236.93,-402.31 2373.97,-382.84"/>
<polygon fill="black" stroke="black" points="2374.69,-386.27 2384,-381.21 2373.57,-379.36 2374.69,-386.27"/>
</g>
<!-- action_user_browses_the_webuser_opens_web_browser -->
<g id="node12" class="node">
<title>action_user_browses_the_webuser_opens_web_browser</title>
<g id="a_node12"><a xlink:href="auto_1_action_user_browses_the_web.svg" xlink:title="user opens web browser">
<polygon fill="none" stroke="blue" points="958,-426 776,-426 776,-390 958,-390 958,-426"/>
<text text-anchor="middle" x="867" y="-404.3" font-family="Times,serif" font-size="14.00">user opens web browser</text>
</a>
</g>
</g>
<!-- action_user_browses_the_webuser_types_URL_of_website -->
<g id="node13" class="node">
<title>action_user_browses_the_webuser_types_URL_of_website</title>
<g id="a_node13"><a xlink:href="auto_1_action_user_browses_the_web.svg" xlink:title="user types URL of website">
<polygon fill="none" stroke="blue" points="980,-351 776,-351 776,-315 980,-315 980,-351"/>
<text text-anchor="middle" x="878" y="-329.3" font-family="Times,serif" font-size="14.00">user types URL of website</text>
</a>
</g>
</g>
<!-- action_user_browses_the_webuser_opens_web_browser&#45;&gt;action_user_browses_the_webuser_types_URL_of_website -->
<g id="edge7" class="edge">
<title>action_user_browses_the_webuser_opens_web_browser&#45;&gt;action_user_browses_the_webuser_types_URL_of_website</title>
<path fill="none" stroke="black" d="M869.61,-389.7C870.89,-381.15 872.48,-370.65 873.92,-361.07"/>
<polygon fill="black" stroke="black" points="877.38,-361.59 875.41,-351.18 870.46,-360.54 877.38,-361.59"/>
</g>
<!-- action_user_browses_the_webweb_browser_shows_webpage -->
<g id="node14" class="node">
<title>action_user_browses_the_webweb_browser_shows_webpage</title>
<g id="a_node14"><a xlink:href="auto_1_action_user_browses_the_web.svg" xlink:title="web browser shows webpage">
<polygon fill="none" stroke="blue" points="980,-268 776,-268 776,-232 980,-232 980,-268"/>
<text text-anchor="middle" x="878" y="-246.3" font-family="Times,serif" font-size="14.00">web browser shows webpage</text>
</a>
</g>
</g>
<!-- action_user_browses_the_webuser_types_URL_of_website&#45;&gt;action_user_browses_the_webweb_browser_shows_webpage -->
<g id="edge8" class="edge">
<title>action_user_browses_the_webuser_types_URL_of_website&#45;&gt;action_user_browses_the_webweb_browser_shows_webpage</title>
<path fill="none" stroke="black" d="M878,-314.82C878,-304.19 878,-290.31 878,-278.2"/>
<polygon fill="black" stroke="black" points="881.5,-278.15 878,-268.15 874.5,-278.15 881.5,-278.15"/>
</g>
<!-- action_user_browses_the_webuser_reads_webpage -->
<g id="node15" class="node">
<title>action_user_browses_the_webuser_reads_webpage</title>
<polygon fill="none" stroke="black" points="954,-196 802,-196 802,-160 954,-160 954,-196"/>
<text text-anchor="middle" x="878" y="-174.3" font-family="Times,serif" font-size="14.00">user reads webpage</text>
</g>
<!-- action_user_browses_the_webweb_browser_shows_webpage&#45;&gt;action_user_browses_the_webuser_reads_webpage -->
<g id="edge9" class="edge">
<title>action_user_browses_the_webweb_browser_shows_webpage&#45;&gt;action_user_browses_the_webuser_reads_webpage</title>
<path fill="none" stroke="black" d="M878,-231.7C878,-223.98 878,-214.71 878,-206.11"/>
<polygon fill="black" stroke="black" points="881.5,-206.1 878,-196.1 874.5,-206.1 881.5,-206.1"/>
</g>
<!-- action_user_browses_the_webuser_clicks_on_link -->
<g id="node16" class="node">
<title>action_user_browses_the_webuser_clicks_on_link</title>
<g id="a_node16"><a xlink:href="auto_1_action_user_browses_the_web.svg" xlink:title="user clicks on link">
<polygon fill="none" stroke="blue" points="957.5,-124 798.5,-124 798.5,-88 957.5,-88 957.5,-124"/>
<text text-anchor="middle" x="878" y="-102.3" font-family="Times,serif" font-size="14.00">user clicks on link</text>
</a>
</g>
</g>
<!-- action_user_browses_the_webuser_reads_webpage&#45;&gt;action_user_browses_the_webuser_clicks_on_link -->
<g id="edge10" class="edge">
<title>action_user_browses_the_webuser_reads_webpage&#45;&gt;action_user_browses_the_webuser_clicks_on_link</title>
<path fill="none" stroke="black" d="M878,-159.7C878,-151.98 878,-142.71 878,-134.11"/>
<polygon fill="black" stroke="black" points="881.5,-134.1 878,-124.1 874.5,-134.1 881.5,-134.1"/>
</g>
<!-- action_user_browses_the_webuser_closes_web_browser -->
<g id="node17" class="node">
<title>action_user_browses_the_webuser_closes_web_browser</title>
<g id="a_node17"><a xlink:href="auto_1_action_user_browses_the_web.svg" xlink:title="user closes web browser">
<polygon fill="none" stroke="blue" points="972.5,-52 783.5,-52 783.5,-16 972.5,-16 972.5,-52"/>
<text text-anchor="middle" x="878" y="-30.3" font-family="Times,serif" font-size="14.00">user closes web browser</text>
</a>
</g>
</g>
<!-- action_user_browses_the_webuser_clicks_on_link&#45;&gt;action_user_browses_the_webuser_closes_web_browser -->
<g id="edge11" class="edge">
<title>action_user_browses_the_webuser_clicks_on_link&#45;&gt;action_user_browses_the_webuser_closes_web_browser</title>
<path fill="none" stroke="black" d="M878,-87.7C878,-79.98 878,-70.71 878,-62.11"/>
<polygon fill="black" stroke="black" points="881.5,-62.1 878,-52.1 874.5,-62.1 881.5,-62.1"/>
</g>
<!-- action_user_turns_off_the_computer -->
<!-- state_computer_is_idle&#45;&gt;action_user_turns_off_the_computer -->
<g id="edge21" class="edge">
<title>state_computer_is_idle&#45;&gt;action_user_turns_off_the_computer</title>
<path fill="none" stroke="black" d="M2411.55,-307C2403.23,-304.89 2394.65,-302.71 2385.92,-300.49"/>
<polygon fill="black" stroke="black" points="2386.55,-297.04 2376,-297.97 2384.83,-303.83 2386.55,-297.04"/>
</g>
<!-- state_computer_is_idleoperating_system_waiting_for_interrupt -->
<g id="node19" class="node">
<title>state_computer_is_idleoperating_system_waiting_for_interrupt</title>
<polygon fill="none" stroke="black" points="2694,-426 2392,-426 2392,-390 2694,-390 2694,-426"/>
<text text-anchor="middle" x="2543" y="-404.3" font-family="Times,serif" font-size="14.00">operating system waiting for interrupt</text>
</g>
<!-- state_computer_is_idleoperating_system_waiting_for_interrupt&#45;&gt;state_computer_is_idle -->
<!-- action_user_turns_off_the_computer&#45;&gt;state_computer_is_off -->
<g id="edge22" class="edge">
<title>action_user_turns_off_the_computer&#45;&gt;state_computer_is_off</title>
<path fill="none" stroke="black" d="M2376,-212.21C2378.99,-211.62 2381.98,-211.02 2384.97,-210.43"/>
<polygon fill="black" stroke="black" points="2385.88,-213.81 2395,-208.43 2384.51,-206.95 2385.88,-213.81"/>
</g>
<!-- action_user_turns_off_the_computerwhile_computer_is_on_user_pushes_power_button -->
<g id="node21" class="node">
<title>action_user_turns_off_the_computerwhile_computer_is_on_user_pushes_power_button</title>
<polygon fill="none" stroke="black" points="2002,-351 1648,-351 1648,-315 2002,-315 2002,-351"/>
<text text-anchor="middle" x="1825" y="-329.3" font-family="Times,serif" font-size="14.00">while computer is on user pushes power button</text>
</g>
<!-- action_user_turns_off_the_computerwhile_computer_is_on_power_button_short_circuits_wire -->
<g id="node22" class="node">
<title>action_user_turns_off_the_computerwhile_computer_is_on_power_button_short_circuits_wire</title>
<polygon fill="none" stroke="black" points="1996,-268 1582,-268 1582,-232 1996,-232 1996,-268"/>
<text text-anchor="middle" x="1789" y="-246.3" font-family="Times,serif" font-size="14.00">while computer is on power button short circuits wire</text>
</g>
<!-- action_user_turns_off_the_computerwhile_computer_is_on_user_pushes_power_button&#45;&gt;action_user_turns_off_the_computerwhile_computer_is_on_power_button_short_circuits_wire -->
<g id="edge13" class="edge">
<title>action_user_turns_off_the_computerwhile_computer_is_on_user_pushes_power_button&#45;&gt;action_user_turns_off_the_computerwhile_computer_is_on_power_button_short_circuits_wire</title>
<path fill="none" stroke="black" d="M1817.37,-314.82C1812.54,-303.98 1806.22,-289.74 1800.77,-277.47"/>
<polygon fill="black" stroke="black" points="1803.88,-275.87 1796.62,-268.15 1797.49,-278.71 1803.88,-275.87"/>
</g>
<!-- action_user_turns_off_the_computerwhile_computer_is_on_motherboard_does_something_to_CPU -->
<g id="node23" class="node">
<title>action_user_turns_off_the_computerwhile_computer_is_on_motherboard_does_something_to_CPU</title>
<polygon fill="none" stroke="black" points="2000,-196 1578,-196 1578,-160 2000,-160 2000,-196"/>
<text text-anchor="middle" x="1789" y="-174.3" font-family="Times,serif" font-size="14.00">while computer is on motherboard does something to CPU</text>
</g>
<!-- action_user_turns_off_the_computerwhile_computer_is_on_power_button_short_circuits_wire&#45;&gt;action_user_turns_off_the_computerwhile_computer_is_on_motherboard_does_something_to_CPU -->
<g id="edge14" class="edge">
<title>action_user_turns_off_the_computerwhile_computer_is_on_power_button_short_circuits_wire&#45;&gt;action_user_turns_off_the_computerwhile_computer_is_on_motherboard_does_something_to_CPU</title>
<path fill="none" stroke="black" d="M1789,-231.7C1789,-223.98 1789,-214.71 1789,-206.11"/>
<polygon fill="black" stroke="black" points="1792.5,-206.1 1789,-196.1 1785.5,-206.1 1792.5,-206.1"/>
</g>
<!-- action_user_turns_off_the_computeruser_selects_shutdown_menu_option_on_desktop -->
<g id="node24" class="node">
<title>action_user_turns_off_the_computeruser_selects_shutdown_menu_option_on_desktop</title>
<polygon fill="none" stroke="black" points="1630.5,-351 1283.5,-351 1283.5,-315 1630.5,-315 1630.5,-351"/>
<text text-anchor="middle" x="1457" y="-329.3" font-family="Times,serif" font-size="14.00">user selects shutdown menu option on desktop</text>
</g>
<!-- action_user_turns_off_the_computeroperating_system_terminates_desktop -->
<g id="node25" class="node">
<title>action_user_turns_off_the_computeroperating_system_terminates_desktop</title>
<polygon fill="none" stroke="black" points="1563.5,-268 1284.5,-268 1284.5,-232 1563.5,-232 1563.5,-268"/>
<text text-anchor="middle" x="1424" y="-246.3" font-family="Times,serif" font-size="14.00">operating system terminates desktop</text>
</g>
<!-- action_user_turns_off_the_computeruser_selects_shutdown_menu_option_on_desktop&#45;&gt;action_user_turns_off_the_computeroperating_system_terminates_desktop -->
<g id="edge15" class="edge">
<title>action_user_turns_off_the_computeruser_selects_shutdown_menu_option_on_desktop&#45;&gt;action_user_turns_off_the_computeroperating_system_terminates_desktop</title>
<path fill="none" stroke="black" d="M1450,-314.82C1445.58,-303.98 1439.78,-289.74 1434.79,-277.47"/>
<polygon fill="black" stroke="black" points="1438,-276.09 1430.99,-268.15 1431.52,-278.73 1438,-276.09"/>
</g>
<!-- action_user_turns_off_the_computeruser_types_REISUB -->
<g id="node26" class="node">
<title>action_user_turns_off_the_computeruser_types_REISUB</title>
<g id="a_node26"><a xlink:href="auto_1_action_user_turns_off_the_computer.svg" xlink:title="user types REISUB">
<polygon fill="none" stroke="blue" points="2263,-351 2119,-351 2119,-315 2263,-315 2263,-351"/>
<text text-anchor="middle" x="2191" y="-329.3" font-family="Times,serif" font-size="14.00">user types REISUB</text>
</a>
</g>
</g>
<!-- action_user_turns_off_the_computeruser_types_REISUB&#45;&gt;action_user_turns_off_the_computer -->
</g>
</svg>
