<?xml version="1.0" encoding="UTF-8" standalone="no"?>
<!DOCTYPE svg PUBLIC "-//W3C//DTD SVG 1.1//EN"
 "http://www.w3.org/Graphics/SVG/1.1/DTD/svg11.dtd">
<!-- Generated by graphviz version 2.44.0 ()
 -->
<!-- Pages: 1 -->
<svg width="1039pt" height="361pt"
 viewBox="0.00 0.00 1039.09 361.00" xmlns="http://www.w3.org/2000/svg" xmlns:xlink="http://www.w3.org/1999/xlink">
<g id="graph0" class="graph" transform="scale(1 1) rotate(0) translate(4 357)">
<polygon fill="white" stroke="transparent" points="-4,4 -4,-357 1035.09,-357 1035.09,4 -4,4"/>
<g id="clust1" class="cluster">
<title>cluster_operating_system_checks_the_router_cache</title>
<g id="a_clust1"><a xlink:href="auto_5_operating_system_checks_the_router_cache.svg" xlink:title="operating system checks the router cache">
<polygon fill="none" stroke="black" points="8,-8 8,-227 772,-227 772,-8 8,-8"/>
<text text-anchor="middle" x="390" y="-211.8" font-family="Times,serif" font-size="14.00">operating system checks the router cache</text>
</a>
</g>
</g>
<!-- operating_system_checks_the_router_cache -->
<!-- operating_system_checks_the_router_cacheoperating_system_sends_request_to_router -->
<g id="node2" class="node">
<title>operating_system_checks_the_router_cacheoperating_system_sends_request_to_router</title>
<g id="a_node2"><a xlink:href="auto_5_operating_system_checks_the_router_cache.svg" xlink:title="operating system sends request to router">
<polygon fill="none" stroke="blue" points="333.5,-196 16.5,-196 16.5,-160 333.5,-160 333.5,-196"/>
<text text-anchor="middle" x="175" y="-174.3" font-family="Times,serif" font-size="14.00">operating system sends request to router</text>
</a>
</g>
</g>
<!-- operating_system_checks_the_router_cacherouter_checks_local_cache_on_router -->
<g id="node3" class="node">
<title>operating_system_checks_the_router_cacherouter_checks_local_cache_on_router</title>
<polygon fill="none" stroke="black" points="314.5,-124 35.5,-124 35.5,-88 314.5,-88 314.5,-124"/>
<text text-anchor="middle" x="175" y="-102.3" font-family="Times,serif" font-size="14.00">router checks local cache on router</text>
</g>
<!-- operating_system_checks_the_router_cacheoperating_system_sends_request_to_router&#45;&gt;operating_system_checks_the_router_cacherouter_checks_local_cache_on_router -->
<g id="edge1" class="edge">
<title>operating_system_checks_the_router_cacheoperating_system_sends_request_to_router&#45;&gt;operating_system_checks_the_router_cacherouter_checks_local_cache_on_router</title>
<path fill="none" stroke="black" d="M175,-159.7C175,-151.98 175,-142.71 175,-134.11"/>
<polygon fill="black" stroke="black" points="178.5,-134.1 175,-124.1 171.5,-134.1 178.5,-134.1"/>
</g>
<!-- operating_system_checks_the_router_cacherouter_checks_the_ISP_cache -->
<g id="node4" class="node">
<title>operating_system_checks_the_router_cacherouter_checks_the_ISP_cache</title>
<polygon fill="none" stroke="black" points="284.5,-52 65.5,-52 65.5,-16 284.5,-16 284.5,-52"/>
<text text-anchor="middle" x="175" y="-30.3" font-family="Times,serif" font-size="14.00">router checks the ISP cache</text>
</g>
<!-- operating_system_checks_the_router_cacherouter_checks_local_cache_on_router&#45;&gt;operating_system_checks_the_router_cacherouter_checks_the_ISP_cache -->
<g id="edge2" class="edge">
<title>operating_system_checks_the_router_cacherouter_checks_local_cache_on_router&#45;&gt;operating_system_checks_the_router_cacherouter_checks_the_ISP_cache</title>
<path fill="none" stroke="black" d="M175,-87.7C175,-79.98 175,-70.71 175,-62.11"/>
<polygon fill="black" stroke="black" points="178.5,-62.1 175,-52.1 171.5,-62.1 178.5,-62.1"/>
</g>
<!-- web_browser_make_a_system_call_to_operating_system -->
<g id="node5" class="node">
<title>web_browser_make_a_system_call_to_operating_system</title>
<ellipse fill="none" stroke="black" cx="558" cy="-330" rx="254.55" ry="18"/>
<text text-anchor="middle" x="558" y="-326.3" font-family="Times,serif" font-size="14.00">web_browser_make_a_system_call_to_operating_system</text>
</g>
<!-- operating_system_checks_the_local_cache_in_OS -->
<g id="node6" class="node">
<title>operating_system_checks_the_local_cache_in_OS</title>
<ellipse fill="none" stroke="black" cx="558" cy="-253" rx="230.16" ry="18"/>
<text text-anchor="middle" x="558" y="-249.3" font-family="Times,serif" font-size="14.00">operating_system_checks_the_local_cache_in_OS</text>
</g>
<!-- web_browser_make_a_system_call_to_operating_system&#45;&gt;operating_system_checks_the_local_cache_in_OS -->
<g id="edge3" class="edge">
<title>web_browser_make_a_system_call_to_operating_system&#45;&gt;operating_system_checks_the_local_cache_in_OS</title>
<path fill="none" stroke="black" d="M558,-311.98C558,-302.94 558,-291.6 558,-281.35"/>
<polygon fill="black" stroke="black" points="561.5,-281.21 558,-271.21 554.5,-281.21 561.5,-281.21"/>
</g>
<!-- operating_system_checks_the_local_cache_in_OS&#45;&gt;operating_system_checks_the_router_cache -->
<g id="edge4" class="edge">
<title>operating_system_checks_the_local_cache_in_OS&#45;&gt;operating_system_checks_the_router_cache</title>
<path fill="none" stroke="black" d="M558,-234.7C558,-234.55 558,-234.4 558,-234.24"/>
<polygon fill="black" stroke="black" points="561.5,-237 558,-227 554.5,-237 561.5,-237"/>
</g>
<!-- zoom out -->
<g id="node7" class="node">
<title>zoom out</title>
<g id="a_node7"><a xlink:href="auto_3_web_browser_browser_checks_the_cache_for_a_DNS_record_to_find_the_corresponding_IP_address_of_URL.svg" xlink:title="zoom out">
<polygon fill="none" stroke="red" points="931,-353 830.82,-318.5 1031.18,-318.5 931,-353"/>
<text text-anchor="middle" x="931" y="-326.3" font-family="Times,serif" font-size="14.00">zoom out</text>
</a>
</g>
</g>
</g>
</svg>
