<?xml version="1.0" encoding="UTF-8" standalone="no"?>
<!DOCTYPE svg PUBLIC "-//W3C//DTD SVG 1.1//EN"
 "http://www.w3.org/Graphics/SVG/1.1/DTD/svg11.dtd">
<!-- Generated by graphviz version 2.44.0 ()
 -->
<!-- Pages: 1 -->
<svg width="1117pt" height="289pt"
 viewBox="0.00 0.00 1117.09 289.00" xmlns="http://www.w3.org/2000/svg" xmlns:xlink="http://www.w3.org/1999/xlink">
<g id="graph0" class="graph" transform="scale(1 1) rotate(0) translate(4 285)">
<polygon fill="white" stroke="transparent" points="-4,4 -4,-285 1113.09,-285 1113.09,4 -4,4"/>
<g id="clust1" class="cluster">
<title>cluster_web_browser_checks_the_operating_system_cache</title>
<g id="a_clust1"><a xlink:href="auto_4_web_browser_checks_the_operating_system_cache.svg" xlink:title="web browser checks the operating system cache">
<polygon fill="none" stroke="black" points="8,-8 8,-227 894,-227 894,-8 8,-8"/>
<text text-anchor="middle" x="451" y="-211.8" font-family="Times,serif" font-size="14.00">web browser checks the operating system cache</text>
</a>
</g>
</g>
<!-- web_browser_checks_the_operating_system_cache -->
<!-- web_browser_checks_the_operating_system_cacheweb_browser_make_a_system_call_to_operating_system -->
<g id="node2" class="node">
<title>web_browser_checks_the_operating_system_cacheweb_browser_make_a_system_call_to_operating_system</title>
<polygon fill="none" stroke="black" points="408,-196 16,-196 16,-160 408,-160 408,-196"/>
<text text-anchor="middle" x="212" y="-174.3" font-family="Times,serif" font-size="14.00">web browser make a system call to operating system</text>
</g>
<!-- web_browser_checks_the_operating_system_cacheoperating_system_checks_the_local_cache_in_OS -->
<g id="node3" class="node">
<title>web_browser_checks_the_operating_system_cacheoperating_system_checks_the_local_cache_in_OS</title>
<polygon fill="none" stroke="black" points="389,-124 35,-124 35,-88 389,-88 389,-124"/>
<text text-anchor="middle" x="212" y="-102.3" font-family="Times,serif" font-size="14.00">operating system checks the local cache in OS</text>
</g>
<!-- web_browser_checks_the_operating_system_cacheweb_browser_make_a_system_call_to_operating_system&#45;&gt;web_browser_checks_the_operating_system_cacheoperating_system_checks_the_local_cache_in_OS -->
<g id="edge1" class="edge">
<title>web_browser_checks_the_operating_system_cacheweb_browser_make_a_system_call_to_operating_system&#45;&gt;web_browser_checks_the_operating_system_cacheoperating_system_checks_the_local_cache_in_OS</title>
<path fill="none" stroke="black" d="M212,-159.7C212,-151.98 212,-142.71 212,-134.11"/>
<polygon fill="black" stroke="black" points="215.5,-134.1 212,-124.1 208.5,-134.1 215.5,-134.1"/>
</g>
<!-- web_browser_checks_the_operating_system_cacheoperating_system_checks_the_router_cache -->
<g id="node4" class="node">
<title>web_browser_checks_the_operating_system_cacheoperating_system_checks_the_router_cache</title>
<g id="a_node4"><a xlink:href="auto_4_web_browser_checks_the_operating_system_cache.svg" xlink:title="operating system checks the router cache">
<polygon fill="none" stroke="blue" points="370.5,-52 53.5,-52 53.5,-16 370.5,-16 370.5,-52"/>
<text text-anchor="middle" x="212" y="-30.3" font-family="Times,serif" font-size="14.00">operating system checks the router cache</text>
</a>
</g>
</g>
<!-- web_browser_checks_the_operating_system_cacheoperating_system_checks_the_local_cache_in_OS&#45;&gt;web_browser_checks_the_operating_system_cacheoperating_system_checks_the_router_cache -->
<g id="edge2" class="edge">
<title>web_browser_checks_the_operating_system_cacheoperating_system_checks_the_local_cache_in_OS&#45;&gt;web_browser_checks_the_operating_system_cacheoperating_system_checks_the_router_cache</title>
<path fill="none" stroke="black" d="M212,-87.7C212,-79.98 212,-70.71 212,-62.11"/>
<polygon fill="black" stroke="black" points="215.5,-62.1 212,-52.1 208.5,-62.1 215.5,-62.1"/>
</g>
<!-- web_browser_checks_the_browsers_inmemory_cache -->
<g id="node5" class="node">
<title>web_browser_checks_the_browsers_inmemory_cache</title>
<ellipse fill="none" stroke="black" cx="656" cy="-258" rx="235.06" ry="18"/>
<text text-anchor="middle" x="656" y="-254.3" font-family="Times,serif" font-size="14.00">web_browser_checks_the_browsers_inmemory_cache</text>
</g>
<!-- web_browser_checks_the_browsers_inmemory_cache&#45;&gt;web_browser_checks_the_operating_system_cache -->
<g id="edge3" class="edge">
<title>web_browser_checks_the_browsers_inmemory_cache&#45;&gt;web_browser_checks_the_operating_system_cache</title>
<path fill="none" stroke="black" d="M656,-239.69C656,-238.84 656,-237.97 656,-237.08"/>
<polygon fill="black" stroke="black" points="659.5,-237 656,-227 652.5,-237 659.5,-237"/>
</g>
<!-- zoom out -->
<g id="node6" class="node">
<title>zoom out</title>
<g id="a_node6"><a xlink:href="auto_2_web_browser_shows_webpage.svg" xlink:title="zoom out">
<polygon fill="none" stroke="red" points="1009,-281 908.82,-246.5 1109.18,-246.5 1009,-281"/>
<text text-anchor="middle" x="1009" y="-254.3" font-family="Times,serif" font-size="14.00">zoom out</text>
</a>
</g>
</g>
</g>
</svg>
