<?xml version="1.0" encoding="UTF-8" standalone="no"?>
<!DOCTYPE svg PUBLIC "-//W3C//DTD SVG 1.1//EN"
 "http://www.w3.org/Graphics/SVG/1.1/DTD/svg11.dtd">
<!-- Generated by graphviz version 2.44.0 ()
 -->
<!-- Pages: 1 -->
<svg width="2600pt" height="1129pt"
 viewBox="0.00 0.00 2600.00 1129.00" xmlns="http://www.w3.org/2000/svg" xmlns:xlink="http://www.w3.org/1999/xlink">
<g id="graph0" class="graph" transform="scale(1 1) rotate(0) translate(4 1125)">
<polygon fill="white" stroke="transparent" points="-4,4 -4,-1125 2596,-1125 2596,4 -4,4"/>
<g id="clust1" class="cluster">
<title>cluster_web_browser_shows_webpage</title>
<g id="a_clust1"><a xlink:href="auto_2_web_browser_shows_webpage.svg" xlink:title="web browser shows webpage">
<polygon fill="none" stroke="black" points="730,-8 730,-958 1466,-958 1466,-8 730,-8"/>
<text text-anchor="middle" x="1098" y="-942.8" font-family="Times,serif" font-size="14.00">web browser shows webpage</text>
</a>
</g>
</g>
<g id="clust2" class="cluster">
<title>cluster_user_opens_web_browser</title>
<g id="a_clust2"><a xlink:href="auto_2_user_opens_web_browser.svg" xlink:title="user opens web browser">
<polygon fill="none" stroke="black" points="8,-883 8,-1113 722,-1113 722,-883 8,-883"/>
<text text-anchor="middle" x="365" y="-1097.8" font-family="Times,serif" font-size="14.00">user opens web browser</text>
</a>
</g>
</g>
<g id="clust3" class="cluster">
<title>cluster_user_types_URL_of_website</title>
<g id="a_clust3"><a xlink:href="auto_2_user_types_URL_of_website.svg" xlink:title="user types URL of website">
<polygon fill="none" stroke="black" points="1474,-883 1474,-1033 2076,-1033 2076,-883 1474,-883"/>
<text text-anchor="middle" x="1775" y="-1017.8" font-family="Times,serif" font-size="14.00">user types URL of website</text>
</a>
</g>
</g>
<g id="clust4" class="cluster">
<title>cluster_user_clicks_on_link</title>
<g id="a_clust4"><a xlink:href="auto_2_user_clicks_on_link.svg" xlink:title="user clicks on link">
<polygon fill="none" stroke="black" points="2026,-516 2026,-808 2584,-808 2584,-516 2026,-516"/>
<text text-anchor="middle" x="2305" y="-792.8" font-family="Times,serif" font-size="14.00">user clicks on link</text>
</a>
</g>
</g>
<g id="clust5" class="cluster">
<title>cluster_user_closes_web_browser</title>
<g id="a_clust5"><a xlink:href="auto_2_user_closes_web_browser.svg" xlink:title="user closes web browser">
<polygon fill="none" stroke="black" points="1474,-588 1474,-809 2018,-809 2018,-588 1474,-588"/>
<text text-anchor="middle" x="1746" y="-793.8" font-family="Times,serif" font-size="14.00">user closes web browser</text>
</a>
</g>
</g>
<!-- web_browser_shows_webpage -->
<!-- user_reads_webpage -->
<g id="node32" class="node">
<title>user_reads_webpage</title>
<ellipse fill="none" stroke="black" cx="1855" cy="-836" rx="98.58" ry="18"/>
<text text-anchor="middle" x="1855" y="-832.3" font-family="Times,serif" font-size="14.00">user_reads_webpage</text>
</g>
<!-- web_browser_shows_webpage&#45;&gt;user_reads_webpage -->
<g id="edge24" class="edge">
<title>web_browser_shows_webpage&#45;&gt;user_reads_webpage</title>
<path fill="none" stroke="black" d="M1466,-883.59C1467.34,-883.39 1468.67,-883.19 1470,-883 1569.13,-868.54 1683.11,-855.35 1761.18,-846.84"/>
<polygon fill="black" stroke="black" points="1761.91,-850.28 1771.47,-845.72 1761.15,-843.32 1761.91,-850.28"/>
</g>
<!-- web_browser_shows_webpageweb_browser_separate_path_from_domain_name_from_protocol -->
<g id="node2" class="node">
<title>web_browser_shows_webpageweb_browser_separate_path_from_domain_name_from_protocol</title>
<polygon fill="none" stroke="black" points="1174.5,-927 737.5,-927 737.5,-891 1174.5,-891 1174.5,-927"/>
<text text-anchor="middle" x="956" y="-905.3" font-family="Times,serif" font-size="14.00">web browser separate path from domain name from protocol</text>
</g>
<!-- web_browser_shows_webpageweb_browser_browser_checks_the_cache_for_a_DNS_record_to_find_the_corresponding_IP_address_of_URL -->
<g id="node3" class="node">
<title>web_browser_shows_webpageweb_browser_browser_checks_the_cache_for_a_DNS_record_to_find_the_corresponding_IP_address_of_URL</title>
<g id="a_node3"><a xlink:href="auto_2_web_browser_shows_webpage.svg" xlink:title="web browser browser checks the cache for a DNS record &#10;to find the corresponding IP address of URL">
<polygon fill="none" stroke="blue" points="1175,-855 753,-855 753,-817 1175,-817 1175,-855"/>
<text text-anchor="middle" x="964" y="-839.8" font-family="Times,serif" font-size="14.00">web browser browser checks the cache for a DNS record </text>
<text text-anchor="middle" x="964" y="-824.8" font-family="Times,serif" font-size="14.00">to find the corresponding IP address of URL</text>
</a>
</g>
</g>
<!-- web_browser_shows_webpageweb_browser_separate_path_from_domain_name_from_protocol&#45;&gt;web_browser_shows_webpageweb_browser_browser_checks_the_cache_for_a_DNS_record_to_find_the_corresponding_IP_address_of_URL -->
<g id="edge1" class="edge">
<title>web_browser_shows_webpageweb_browser_separate_path_from_domain_name_from_protocol&#45;&gt;web_browser_shows_webpageweb_browser_browser_checks_the_cache_for_a_DNS_record_to_find_the_corresponding_IP_address_of_URL</title>
<path fill="none" stroke="black" d="M957.94,-890.81C958.8,-883.11 959.85,-873.82 960.83,-865.15"/>
<polygon fill="black" stroke="black" points="964.33,-865.35 961.97,-855.02 957.37,-864.56 964.33,-865.35"/>
</g>
<!-- web_browser_shows_webpageweb_browser_initiates_TCP_connection_with_the_remote_server -->
<g id="node4" class="node">
<title>web_browser_shows_webpageweb_browser_initiates_TCP_connection_with_the_remote_server</title>
<polygon fill="none" stroke="black" points="1202.5,-777 743.5,-777 743.5,-741 1202.5,-741 1202.5,-777"/>
<text text-anchor="middle" x="973" y="-755.3" font-family="Times,serif" font-size="14.00">web browser initiates TCP connection with the remote server</text>
</g>
<!-- web_browser_shows_webpageweb_browser_browser_checks_the_cache_for_a_DNS_record_to_find_the_corresponding_IP_address_of_URL&#45;&gt;web_browser_shows_webpageweb_browser_initiates_TCP_connection_with_the_remote_server -->
<g id="edge2" class="edge">
<title>web_browser_shows_webpageweb_browser_browser_checks_the_cache_for_a_DNS_record_to_find_the_corresponding_IP_address_of_URL&#45;&gt;web_browser_shows_webpageweb_browser_initiates_TCP_connection_with_the_remote_server</title>
<path fill="none" stroke="black" d="M966.18,-816.84C967.24,-807.99 968.54,-797.16 969.72,-787.34"/>
<polygon fill="black" stroke="black" points="973.22,-787.56 970.93,-777.22 966.27,-786.73 973.22,-787.56"/>
</g>
<!-- web_browser_shows_webpageweb_browser_sends_an_HTTP_request_to_the_remote_server -->
<g id="node5" class="node">
<title>web_browser_shows_webpageweb_browser_sends_an_HTTP_request_to_the_remote_server</title>
<polygon fill="none" stroke="black" points="1184,-704 762,-704 762,-668 1184,-668 1184,-704"/>
<text text-anchor="middle" x="973" y="-682.3" font-family="Times,serif" font-size="14.00">web browser sends an HTTP request to the remote server</text>
</g>
<!-- web_browser_shows_webpageweb_browser_initiates_TCP_connection_with_the_remote_server&#45;&gt;web_browser_shows_webpageweb_browser_sends_an_HTTP_request_to_the_remote_server -->
<g id="edge3" class="edge">
<title>web_browser_shows_webpageweb_browser_initiates_TCP_connection_with_the_remote_server&#45;&gt;web_browser_shows_webpageweb_browser_sends_an_HTTP_request_to_the_remote_server</title>
<path fill="none" stroke="black" d="M973,-740.81C973,-732.79 973,-723.05 973,-714.07"/>
<polygon fill="black" stroke="black" points="976.5,-714.03 973,-704.03 969.5,-714.03 976.5,-714.03"/>
</g>
<!-- web_browser_shows_webpageserver_handles_the_request -->
<g id="node6" class="node">
<title>web_browser_shows_webpageserver_handles_the_request</title>
<polygon fill="none" stroke="black" points="1080,-632 868,-632 868,-596 1080,-596 1080,-632"/>
<text text-anchor="middle" x="974" y="-610.3" font-family="Times,serif" font-size="14.00">server handles the request</text>
</g>
<!-- web_browser_shows_webpageweb_browser_sends_an_HTTP_request_to_the_remote_server&#45;&gt;web_browser_shows_webpageserver_handles_the_request -->
<g id="edge4" class="edge">
<title>web_browser_shows_webpageweb_browser_sends_an_HTTP_request_to_the_remote_server&#45;&gt;web_browser_shows_webpageserver_handles_the_request</title>
<path fill="none" stroke="black" d="M973.25,-667.7C973.36,-659.98 973.49,-650.71 973.61,-642.11"/>
<polygon fill="black" stroke="black" points="977.11,-642.15 973.76,-632.1 970.11,-642.05 977.11,-642.15"/>
</g>
<!-- web_browser_shows_webpageserver_sends_back_an_HTTP_response -->
<g id="node7" class="node">
<title>web_browser_shows_webpageserver_sends_back_an_HTTP_response</title>
<polygon fill="none" stroke="black" points="1113,-560 841,-560 841,-524 1113,-524 1113,-560"/>
<text text-anchor="middle" x="977" y="-538.3" font-family="Times,serif" font-size="14.00">server sends back an HTTP response</text>
</g>
<!-- web_browser_shows_webpageserver_handles_the_request&#45;&gt;web_browser_shows_webpageserver_sends_back_an_HTTP_response -->
<g id="edge5" class="edge">
<title>web_browser_shows_webpageserver_handles_the_request&#45;&gt;web_browser_shows_webpageserver_sends_back_an_HTTP_response</title>
<path fill="none" stroke="black" d="M974.74,-595.7C975.07,-587.98 975.47,-578.71 975.84,-570.11"/>
<polygon fill="black" stroke="black" points="979.34,-570.25 976.27,-560.1 972.34,-569.95 979.34,-570.25"/>
</g>
<!-- web_browser_shows_webpageweb_browser_renders_the_HTML_content -->
<g id="node8" class="node">
<title>web_browser_shows_webpageweb_browser_renders_the_HTML_content</title>
<g id="a_node8"><a xlink:href="auto_2_web_browser_shows_webpage.svg" xlink:title="web browser renders the HTML content">
<polygon fill="none" stroke="blue" points="1121.5,-488 834.5,-488 834.5,-452 1121.5,-452 1121.5,-488"/>
<text text-anchor="middle" x="978" y="-466.3" font-family="Times,serif" font-size="14.00">web browser renders the HTML content</text>
</a>
</g>
</g>
<!-- web_browser_shows_webpageserver_sends_back_an_HTTP_response&#45;&gt;web_browser_shows_webpageweb_browser_renders_the_HTML_content -->
<g id="edge6" class="edge">
<title>web_browser_shows_webpageserver_sends_back_an_HTTP_response&#45;&gt;web_browser_shows_webpageweb_browser_renders_the_HTML_content</title>
<path fill="none" stroke="black" d="M977.25,-523.7C977.36,-515.98 977.49,-506.71 977.61,-498.11"/>
<polygon fill="black" stroke="black" points="981.11,-498.15 977.76,-488.1 974.11,-498.05 981.11,-498.15"/>
</g>
<!-- web_browser_shows_webpageweb_browser_sends_additional_requests_for_objects_embedded_in_the_html_file_CSS_files_images_javascript -->
<g id="node9" class="node">
<title>web_browser_shows_webpageweb_browser_sends_additional_requests_for_objects_embedded_in_the_html_file_CSS_files_images_javascript</title>
<polygon fill="none" stroke="black" points="1220,-416 738,-416 738,-378 1220,-378 1220,-416"/>
<text text-anchor="middle" x="979" y="-400.8" font-family="Times,serif" font-size="14.00">web browser sends additional requests for objects embedded in </text>
<text text-anchor="middle" x="979" y="-385.8" font-family="Times,serif" font-size="14.00">the html file &#45; CSS files, images, javascript</text>
</g>
<!-- web_browser_shows_webpageweb_browser_renders_the_HTML_content&#45;&gt;web_browser_shows_webpageweb_browser_sends_additional_requests_for_objects_embedded_in_the_html_file_CSS_files_images_javascript -->
<g id="edge7" class="edge">
<title>web_browser_shows_webpageweb_browser_renders_the_HTML_content&#45;&gt;web_browser_shows_webpageweb_browser_sends_additional_requests_for_objects_embedded_in_the_html_file_CSS_files_images_javascript</title>
<path fill="none" stroke="black" d="M978.24,-451.81C978.35,-444.11 978.48,-434.82 978.6,-426.15"/>
<polygon fill="black" stroke="black" points="982.1,-426.07 978.75,-416.02 975.11,-425.97 982.1,-426.07"/>
</g>
<!-- web_browser_shows_webpageserver_sends_back_additional_content -->
<g id="node10" class="node">
<title>web_browser_shows_webpageserver_sends_back_additional_content</title>
<polygon fill="none" stroke="black" points="1122.5,-342 835.5,-342 835.5,-306 1122.5,-306 1122.5,-342"/>
<text text-anchor="middle" x="979" y="-320.3" font-family="Times,serif" font-size="14.00">server sends back additional content</text>
</g>
<!-- web_browser_shows_webpageweb_browser_sends_additional_requests_for_objects_embedded_in_the_html_file_CSS_files_images_javascript&#45;&gt;web_browser_shows_webpageserver_sends_back_additional_content -->
<g id="edge8" class="edge">
<title>web_browser_shows_webpageweb_browser_sends_additional_requests_for_objects_embedded_in_the_html_file_CSS_files_images_javascript&#45;&gt;web_browser_shows_webpageserver_sends_back_additional_content</title>
<path fill="none" stroke="black" d="M979,-377.72C979,-369.97 979,-360.79 979,-352.27"/>
<polygon fill="black" stroke="black" points="982.5,-352 979,-342 975.5,-352 982.5,-352"/>
</g>
<!-- web_browser_shows_webpageweb_browser_process_CSS_markup_and_build_the_CSSOM_tree -->
<g id="node11" class="node">
<title>web_browser_shows_webpageweb_browser_process_CSS_markup_and_build_the_CSSOM_tree</title>
<polygon fill="none" stroke="black" points="1193.5,-270 764.5,-270 764.5,-234 1193.5,-234 1193.5,-270"/>
<text text-anchor="middle" x="979" y="-248.3" font-family="Times,serif" font-size="14.00">web browser process CSS markup and build the CSSOM tree</text>
</g>
<!-- web_browser_shows_webpageserver_sends_back_additional_content&#45;&gt;web_browser_shows_webpageweb_browser_process_CSS_markup_and_build_the_CSSOM_tree -->
<g id="edge9" class="edge">
<title>web_browser_shows_webpageserver_sends_back_additional_content&#45;&gt;web_browser_shows_webpageweb_browser_process_CSS_markup_and_build_the_CSSOM_tree</title>
<path fill="none" stroke="black" d="M979,-305.7C979,-297.98 979,-288.71 979,-280.11"/>
<polygon fill="black" stroke="black" points="982.5,-280.1 979,-270.1 975.5,-280.1 982.5,-280.1"/>
</g>
<!-- web_browser_shows_webpageweb_browser_combine_the_DOM_and_CSSOM_into_a_render_tree -->
<g id="node12" class="node">
<title>web_browser_shows_webpageweb_browser_combine_the_DOM_and_CSSOM_into_a_render_tree</title>
<polygon fill="none" stroke="black" points="1197.5,-198 760.5,-198 760.5,-162 1197.5,-162 1197.5,-198"/>
<text text-anchor="middle" x="979" y="-176.3" font-family="Times,serif" font-size="14.00">web browser combine the DOM and CSSOM into a render tree</text>
</g>
<!-- web_browser_shows_webpageweb_browser_process_CSS_markup_and_build_the_CSSOM_tree&#45;&gt;web_browser_shows_webpageweb_browser_combine_the_DOM_and_CSSOM_into_a_render_tree -->
<g id="edge10" class="edge">
<title>web_browser_shows_webpageweb_browser_process_CSS_markup_and_build_the_CSSOM_tree&#45;&gt;web_browser_shows_webpageweb_browser_combine_the_DOM_and_CSSOM_into_a_render_tree</title>
<path fill="none" stroke="black" d="M979,-233.7C979,-225.98 979,-216.71 979,-208.11"/>
<polygon fill="black" stroke="black" points="982.5,-208.1 979,-198.1 975.5,-208.1 982.5,-208.1"/>
</g>
<!-- web_browser_shows_webpageweb_browser_run_the_layout_on_the_render_tree_to_compute_the_geometry_of_each_node_aka_layout_aka_reflow -->
<g id="node13" class="node">
<title>web_browser_shows_webpageweb_browser_run_the_layout_on_the_render_tree_to_compute_the_geometry_of_each_node_aka_layout_aka_reflow</title>
<polygon fill="none" stroke="black" points="1201,-126 757,-126 757,-88 1201,-88 1201,-126"/>
<text text-anchor="middle" x="979" y="-110.8" font-family="Times,serif" font-size="14.00">web browser run the layout on the render tree to compute </text>
<text text-anchor="middle" x="979" y="-95.8" font-family="Times,serif" font-size="14.00">the geometry of each node aka layout &#160;aka reflow</text>
</g>
<!-- web_browser_shows_webpageweb_browser_combine_the_DOM_and_CSSOM_into_a_render_tree&#45;&gt;web_browser_shows_webpageweb_browser_run_the_layout_on_the_render_tree_to_compute_the_geometry_of_each_node_aka_layout_aka_reflow -->
<g id="edge11" class="edge">
<title>web_browser_shows_webpageweb_browser_combine_the_DOM_and_CSSOM_into_a_render_tree&#45;&gt;web_browser_shows_webpageweb_browser_run_the_layout_on_the_render_tree_to_compute_the_geometry_of_each_node_aka_layout_aka_reflow</title>
<path fill="none" stroke="black" d="M979,-161.81C979,-154.11 979,-144.82 979,-136.15"/>
<polygon fill="black" stroke="black" points="982.5,-136.02 979,-126.02 975.5,-136.02 982.5,-136.02"/>
</g>
<!-- web_browser_shows_webpageweb_browser_paint_the_individual_nodes_to_the_screen -->
<g id="node14" class="node">
<title>web_browser_shows_webpageweb_browser_paint_the_individual_nodes_to_the_screen</title>
<polygon fill="none" stroke="black" points="1182.5,-52 775.5,-52 775.5,-16 1182.5,-16 1182.5,-52"/>
<text text-anchor="middle" x="979" y="-30.3" font-family="Times,serif" font-size="14.00">web browser paint the individual nodes to the screen</text>
</g>
<!-- web_browser_shows_webpageweb_browser_run_the_layout_on_the_render_tree_to_compute_the_geometry_of_each_node_aka_layout_aka_reflow&#45;&gt;web_browser_shows_webpageweb_browser_paint_the_individual_nodes_to_the_screen -->
<g id="edge12" class="edge">
<title>web_browser_shows_webpageweb_browser_run_the_layout_on_the_render_tree_to_compute_the_geometry_of_each_node_aka_layout_aka_reflow&#45;&gt;web_browser_shows_webpageweb_browser_paint_the_individual_nodes_to_the_screen</title>
<path fill="none" stroke="black" d="M979,-87.72C979,-79.97 979,-70.79 979,-62.27"/>
<polygon fill="black" stroke="black" points="982.5,-62 979,-52 975.5,-62 982.5,-62"/>
</g>
<!-- user_opens_web_browser -->
<!-- user_types_URL_of_website -->
<!-- user_opens_web_browser&#45;&gt;user_types_URL_of_website -->
<g id="edge22" class="edge">
<title>user_opens_web_browser&#45;&gt;user_types_URL_of_website</title>
<path fill="none" stroke="black" d="M722,-1041.12C722.33,-1041.08 722.67,-1041.04 723,-1041 982.26,-1010.5 1286,-995.9 1463.79,-989.48"/>
<polygon fill="black" stroke="black" points="1464.13,-992.97 1474,-989.11 1463.88,-985.97 1464.13,-992.97"/>
</g>
<!-- user_opens_web_browseruser_moves_pointer_on_desktop_to_browser_icon_using_mouse -->
<g id="node16" class="node">
<title>user_opens_web_browseruser_moves_pointer_on_desktop_to_browser_icon_using_mouse</title>
<g id="a_node16"><a xlink:href="auto_2_user_opens_web_browser.svg" xlink:title="user moves pointer on desktop to browser icon using mouse">
<polygon fill="none" stroke="blue" points="460,-1082 16,-1082 16,-1046 460,-1046 460,-1082"/>
<text text-anchor="middle" x="238" y="-1060.3" font-family="Times,serif" font-size="14.00">user moves pointer on desktop to browser icon using mouse</text>
</a>
</g>
</g>
<!-- user_opens_web_browseruser_clicks_on_desktop_browser_icon -->
<g id="node17" class="node">
<title>user_opens_web_browseruser_clicks_on_desktop_browser_icon</title>
<g id="a_node17"><a xlink:href="auto_2_user_opens_web_browser.svg" xlink:title="user clicks on desktop browser icon">
<polygon fill="none" stroke="blue" points="377.5,-1002 98.5,-1002 98.5,-966 377.5,-966 377.5,-1002"/>
<text text-anchor="middle" x="238" y="-980.3" font-family="Times,serif" font-size="14.00">user clicks on desktop browser icon</text>
</a>
</g>
</g>
<!-- user_opens_web_browseruser_moves_pointer_on_desktop_to_browser_icon_using_mouse&#45;&gt;user_opens_web_browseruser_clicks_on_desktop_browser_icon -->
<g id="edge13" class="edge">
<title>user_opens_web_browseruser_moves_pointer_on_desktop_to_browser_icon_using_mouse&#45;&gt;user_opens_web_browseruser_clicks_on_desktop_browser_icon</title>
<path fill="none" stroke="black" d="M238,-1045.69C238,-1035.89 238,-1023.42 238,-1012.33"/>
<polygon fill="black" stroke="black" points="241.5,-1012.26 238,-1002.26 234.5,-1012.26 241.5,-1012.26"/>
</g>
<!-- user_opens_web_browseroperating_sytem_launches_web_browser -->
<g id="node18" class="node">
<title>user_opens_web_browseroperating_sytem_launches_web_browser</title>
<polygon fill="none" stroke="black" points="381.5,-927 94.5,-927 94.5,-891 381.5,-891 381.5,-927"/>
<text text-anchor="middle" x="238" y="-905.3" font-family="Times,serif" font-size="14.00">operating sytem launches web browser</text>
</g>
<!-- user_opens_web_browseruser_clicks_on_desktop_browser_icon&#45;&gt;user_opens_web_browseroperating_sytem_launches_web_browser -->
<g id="edge14" class="edge">
<title>user_opens_web_browseruser_clicks_on_desktop_browser_icon&#45;&gt;user_opens_web_browseroperating_sytem_launches_web_browser</title>
<path fill="none" stroke="black" d="M238,-965.7C238,-957.25 238,-946.87 238,-937.37"/>
<polygon fill="black" stroke="black" points="241.5,-937.18 238,-927.18 234.5,-937.18 241.5,-937.18"/>
</g>
<!-- user_types_URL_of_website&#45;&gt;web_browser_shows_webpage -->
<g id="edge23" class="edge">
<title>user_types_URL_of_website&#45;&gt;web_browser_shows_webpage</title>
<path fill="none" stroke="black" d="M1474,-959.37C1472,-958.77 1470,-958.18 1468,-957.58"/>
<polygon fill="black" stroke="black" points="1476.58,-956.49 1466,-956.98 1474.58,-963.2 1476.58,-956.49"/>
</g>
<!-- user_types_URL_of_websitekeyboard_key_presses_mechanical_switch -->
<g id="node20" class="node">
<title>user_types_URL_of_websitekeyboard_key_presses_mechanical_switch</title>
<polygon fill="none" stroke="black" points="2068,-1002 1766,-1002 1766,-966 2068,-966 2068,-1002"/>
<text text-anchor="middle" x="1917" y="-980.3" font-family="Times,serif" font-size="14.00">keyboard key presses mechanical switch</text>
</g>
<!-- user_types_URL_of_websitemechanical_switch_shorts_electrical_circuit -->
<g id="node21" class="node">
<title>user_types_URL_of_websitemechanical_switch_shorts_electrical_circuit</title>
<polygon fill="none" stroke="black" points="2067.5,-927 1728.5,-927 1728.5,-891 2067.5,-891 2067.5,-927"/>
<text text-anchor="middle" x="1898" y="-905.3" font-family="Times,serif" font-size="14.00">mechanical switch shorts electrical circuit</text>
</g>
<!-- user_types_URL_of_websitekeyboard_key_presses_mechanical_switch&#45;&gt;user_types_URL_of_websitemechanical_switch_shorts_electrical_circuit -->
<g id="edge15" class="edge">
<title>user_types_URL_of_websitekeyboard_key_presses_mechanical_switch&#45;&gt;user_types_URL_of_websitemechanical_switch_shorts_electrical_circuit</title>
<path fill="none" stroke="black" d="M1912.5,-965.7C1910.27,-957.15 1907.54,-946.65 1905.04,-937.07"/>
<polygon fill="black" stroke="black" points="1908.38,-935.97 1902.47,-927.18 1901.6,-937.73 1908.38,-935.97"/>
</g>
<!-- user_clicks_on_link -->
<!-- user_closes_web_browser -->
<!-- user_clicks_on_link&#45;&gt;user_closes_web_browser -->
<g id="edge25" class="edge">
<title>user_clicks_on_link&#45;&gt;user_closes_web_browser</title>
<path fill="none" stroke="black" d="M2026,-726.99C2024,-726.29 2022,-725.6 2020,-724.9"/>
<polygon fill="black" stroke="black" points="2028.59,-724.18 2018,-724.2 2026.29,-730.8 2028.59,-724.18"/>
</g>
<!-- user_clicks_on_linkmouse_hardware_depress_mechanical_switch -->
<g id="node23" class="node">
<title>user_clicks_on_linkmouse_hardware_depress_mechanical_switch</title>
<polygon fill="none" stroke="black" points="2575.5,-777 2258.5,-777 2258.5,-741 2575.5,-741 2575.5,-777"/>
<text text-anchor="middle" x="2417" y="-755.3" font-family="Times,serif" font-size="14.00">mouse hardware depress mechanical switch</text>
</g>
<!-- user_clicks_on_linkmouse_hardware_sends_signal_across_USB_cable -->
<g id="node24" class="node">
<title>user_clicks_on_linkmouse_hardware_sends_signal_across_USB_cable</title>
<polygon fill="none" stroke="black" points="2566.5,-704 2219.5,-704 2219.5,-668 2566.5,-668 2566.5,-704"/>
<text text-anchor="middle" x="2393" y="-682.3" font-family="Times,serif" font-size="14.00">mouse hardware sends signal across USB cable</text>
</g>
<!-- user_clicks_on_linkmouse_hardware_depress_mechanical_switch&#45;&gt;user_clicks_on_linkmouse_hardware_sends_signal_across_USB_cable -->
<g id="edge16" class="edge">
<title>user_clicks_on_linkmouse_hardware_depress_mechanical_switch&#45;&gt;user_clicks_on_linkmouse_hardware_sends_signal_across_USB_cable</title>
<path fill="none" stroke="black" d="M2411.19,-740.81C2408.45,-732.7 2405.11,-722.84 2402.05,-713.78"/>
<polygon fill="black" stroke="black" points="2405.27,-712.38 2398.76,-704.03 2398.64,-714.62 2405.27,-712.38"/>
</g>
<!-- user_clicks_on_linkoperating_system_translates_signal_from_USB_cable -->
<g id="node25" class="node">
<title>user_clicks_on_linkoperating_system_translates_signal_from_USB_cable</title>
<polygon fill="none" stroke="black" points="2576,-632 2192,-632 2192,-596 2576,-596 2576,-632"/>
<text text-anchor="middle" x="2384" y="-610.3" font-family="Times,serif" font-size="14.00">operating system translates signal from USB cable</text>
</g>
<!-- user_clicks_on_linkmouse_hardware_sends_signal_across_USB_cable&#45;&gt;user_clicks_on_linkoperating_system_translates_signal_from_USB_cable -->
<g id="edge17" class="edge">
<title>user_clicks_on_linkmouse_hardware_sends_signal_across_USB_cable&#45;&gt;user_clicks_on_linkoperating_system_translates_signal_from_USB_cable</title>
<path fill="none" stroke="black" d="M2390.78,-667.7C2389.78,-659.98 2388.59,-650.71 2387.49,-642.11"/>
<polygon fill="black" stroke="black" points="2390.95,-641.58 2386.2,-632.1 2384,-642.47 2390.95,-641.58"/>
</g>
<!-- user_clicks_on_linkoperating_system_acts_on_desktop_icon -->
<g id="node26" class="node">
<title>user_clicks_on_linkoperating_system_acts_on_desktop_icon</title>
<polygon fill="none" stroke="black" points="2531,-560 2237,-560 2237,-524 2531,-524 2531,-560"/>
<text text-anchor="middle" x="2384" y="-538.3" font-family="Times,serif" font-size="14.00">operating system acts on desktop icon</text>
</g>
<!-- user_clicks_on_linkoperating_system_translates_signal_from_USB_cable&#45;&gt;user_clicks_on_linkoperating_system_acts_on_desktop_icon -->
<g id="edge18" class="edge">
<title>user_clicks_on_linkoperating_system_translates_signal_from_USB_cable&#45;&gt;user_clicks_on_linkoperating_system_acts_on_desktop_icon</title>
<path fill="none" stroke="black" d="M2384,-595.7C2384,-587.98 2384,-578.71 2384,-570.11"/>
<polygon fill="black" stroke="black" points="2387.5,-570.1 2384,-560.1 2380.5,-570.1 2387.5,-570.1"/>
</g>
<!-- user_closes_web_browseruser_types_altf4 -->
<g id="node28" class="node">
<title>user_closes_web_browseruser_types_altf4</title>
<g id="a_node28"><a xlink:href="auto_2_user_closes_web_browser.svg" xlink:title="user types alt&#45;f4">
<polygon fill="none" stroke="blue" points="1959,-777 1815,-777 1815,-741 1959,-741 1959,-777"/>
<text text-anchor="middle" x="1887" y="-755.3" font-family="Times,serif" font-size="14.00">user types alt&#45;f4</text>
</a>
</g>
</g>
<!-- user_closes_web_browseruser_types_altf4&#45;&gt;user_closes_web_browser -->
<!-- user_closes_web_browseruser_moves_pointer_on_desktop_to_browser_close_icon_using_mouse -->
<g id="node29" class="node">
<title>user_closes_web_browseruser_moves_pointer_on_desktop_to_browser_close_icon_using_mouse</title>
<polygon fill="none" stroke="black" points="1746,-778 1482,-778 1482,-740 1746,-740 1746,-778"/>
<text text-anchor="middle" x="1614" y="-762.8" font-family="Times,serif" font-size="14.00">user moves pointer on desktop to </text>
<text text-anchor="middle" x="1614" y="-747.8" font-family="Times,serif" font-size="14.00">browser close icon using mouse</text>
</g>
<!-- user_closes_web_browseruser_clicks_on_browser_close_icon -->
<g id="node30" class="node">
<title>user_closes_web_browseruser_clicks_on_browser_close_icon</title>
<polygon fill="none" stroke="black" points="1746,-704 1482,-704 1482,-668 1746,-668 1746,-704"/>
<text text-anchor="middle" x="1614" y="-682.3" font-family="Times,serif" font-size="14.00">user clicks on browser close icon</text>
</g>
<!-- user_closes_web_browseruser_moves_pointer_on_desktop_to_browser_close_icon_using_mouse&#45;&gt;user_closes_web_browseruser_clicks_on_browser_close_icon -->
<g id="edge20" class="edge">
<title>user_closes_web_browseruser_moves_pointer_on_desktop_to_browser_close_icon_using_mouse&#45;&gt;user_closes_web_browseruser_clicks_on_browser_close_icon</title>
<path fill="none" stroke="black" d="M1614,-739.72C1614,-731.97 1614,-722.79 1614,-714.27"/>
<polygon fill="black" stroke="black" points="1617.5,-714 1614,-704 1610.5,-714 1617.5,-714"/>
</g>
<!-- user_closes_web_browseroperating_sytem_closes_web_browser -->
<g id="node31" class="node">
<title>user_closes_web_browseroperating_sytem_closes_web_browser</title>
<polygon fill="none" stroke="black" points="1754,-632 1482,-632 1482,-596 1754,-596 1754,-632"/>
<text text-anchor="middle" x="1618" y="-610.3" font-family="Times,serif" font-size="14.00">operating sytem closes web browser</text>
</g>
<!-- user_closes_web_browseruser_clicks_on_browser_close_icon&#45;&gt;user_closes_web_browseroperating_sytem_closes_web_browser -->
<g id="edge21" class="edge">
<title>user_closes_web_browseruser_clicks_on_browser_close_icon&#45;&gt;user_closes_web_browseroperating_sytem_closes_web_browser</title>
<path fill="none" stroke="black" d="M1614.99,-667.7C1615.43,-659.98 1615.96,-650.71 1616.45,-642.11"/>
<polygon fill="black" stroke="black" points="1619.95,-642.29 1617.02,-632.1 1612.96,-641.89 1619.95,-642.29"/>
</g>
<!-- user_reads_webpage&#45;&gt;user_clicks_on_link -->
<g id="edge26" class="edge">
<title>user_reads_webpage&#45;&gt;user_clicks_on_link</title>
<path fill="none" stroke="black" d="M1938.28,-826.18C1962.44,-822.64 1988.92,-817.82 2016.29,-810.52"/>
<polygon fill="black" stroke="black" points="2017.3,-813.87 2026,-807.83 2015.43,-807.12 2017.3,-813.87"/>
</g>
<!-- zoom out -->
<g id="node33" class="node">
<title>zoom out</title>
<g id="a_node33"><a xlink:href="auto_0_how_to_use_the_internet.svg" xlink:title="zoom out">
<polygon fill="none" stroke="red" points="832,-1087 731.82,-1052.5 932.18,-1052.5 832,-1087"/>
<text text-anchor="middle" x="832" y="-1060.3" font-family="Times,serif" font-size="14.00">zoom out</text>
</a>
</g>
</g>
</g>
</svg>
