<?xml version="1.0" encoding="UTF-8" standalone="no"?>
<!DOCTYPE svg PUBLIC "-//W3C//DTD SVG 1.1//EN"
 "http://www.w3.org/Graphics/SVG/1.1/DTD/svg11.dtd">
<!-- Generated by graphviz version 2.44.0 ()
 -->
<!-- Pages: 1 -->
<svg width="1032pt" height="248pt"
 viewBox="0.00 0.00 1032.09 248.00" xmlns="http://www.w3.org/2000/svg" xmlns:xlink="http://www.w3.org/1999/xlink">
<g id="graph0" class="graph" transform="scale(1 1) rotate(0) translate(4 244)">
<polygon fill="white" stroke="transparent" points="-4,4 -4,-244 1028.09,-244 1028.09,4 -4,4"/>
<g id="clust1" class="cluster">
<title>cluster_operating_system_implements_TCP_connection_to_router</title>
<g id="a_clust1"><a xlink:href="auto_7_operating_system_implements_TCP_connection_to_router.svg" xlink:title="operating system implements TCP connection to router">
<polygon fill="none" stroke="black" points="8,-8 8,-232 814,-232 814,-8 8,-8"/>
<text text-anchor="middle" x="411" y="-216.8" font-family="Times,serif" font-size="14.00">operating system implements TCP connection to router</text>
</a>
</g>
</g>
<!-- operating_system_implements_TCP_connection_to_router -->
<!-- operating_system_implements_TCP_connection_to_routerNIC_sends_SYN_packet_to_router -->
<g id="node2" class="node">
<title>operating_system_implements_TCP_connection_to_routerNIC_sends_SYN_packet_to_router</title>
<g id="a_node2"><a xlink:href="auto_7_operating_system_implements_TCP_connection_to_router.svg" xlink:title="NIC sends SYN packet to router">
<polygon fill="none" stroke="blue" points="258,-201 16,-201 16,-165 258,-165 258,-201"/>
<text text-anchor="middle" x="137" y="-179.3" font-family="Times,serif" font-size="14.00">NIC sends SYN packet to router</text>
</a>
</g>
</g>
<!-- operating_system_implements_TCP_connection_to_routerrouter_sends_SYNACK_packet_to_NIC -->
<g id="node3" class="node">
<title>operating_system_implements_TCP_connection_to_routerrouter_sends_SYNACK_packet_to_NIC</title>
<polygon fill="none" stroke="black" points="288,-124 16,-124 16,-88 288,-88 288,-124"/>
<text text-anchor="middle" x="152" y="-102.3" font-family="Times,serif" font-size="14.00">router sends SYN&#45;ACK packet to NIC</text>
</g>
<!-- operating_system_implements_TCP_connection_to_routerNIC_sends_SYN_packet_to_router&#45;&gt;operating_system_implements_TCP_connection_to_routerrouter_sends_SYNACK_packet_to_NIC -->
<g id="edge1" class="edge">
<title>operating_system_implements_TCP_connection_to_routerNIC_sends_SYN_packet_to_router&#45;&gt;operating_system_implements_TCP_connection_to_routerrouter_sends_SYNACK_packet_to_NIC</title>
<path fill="none" stroke="black" d="M140.4,-164.98C142.23,-155.84 144.53,-144.36 146.59,-134.03"/>
<polygon fill="black" stroke="black" points="150.03,-134.7 148.56,-124.21 143.16,-133.33 150.03,-134.7"/>
</g>
<!-- operating_system_implements_TCP_connection_to_routerNIC_sends_ACK_packet_to_router -->
<g id="node4" class="node">
<title>operating_system_implements_TCP_connection_to_routerNIC_sends_ACK_packet_to_router</title>
<polygon fill="none" stroke="black" points="273,-52 31,-52 31,-16 273,-16 273,-52"/>
<text text-anchor="middle" x="152" y="-30.3" font-family="Times,serif" font-size="14.00">NIC sends ACK packet to router</text>
</g>
<!-- operating_system_implements_TCP_connection_to_routerrouter_sends_SYNACK_packet_to_NIC&#45;&gt;operating_system_implements_TCP_connection_to_routerNIC_sends_ACK_packet_to_router -->
<g id="edge2" class="edge">
<title>operating_system_implements_TCP_connection_to_routerrouter_sends_SYNACK_packet_to_NIC&#45;&gt;operating_system_implements_TCP_connection_to_routerNIC_sends_ACK_packet_to_router</title>
<path fill="none" stroke="black" d="M152,-87.7C152,-79.98 152,-70.71 152,-62.11"/>
<polygon fill="black" stroke="black" points="155.5,-62.1 152,-52.1 148.5,-62.1 155.5,-62.1"/>
</g>
<!-- zoom out -->
<g id="node5" class="node">
<title>zoom out</title>
<g id="a_node5"><a xlink:href="auto_5_operating_system_checks_the_router_cache.svg" xlink:title="zoom out">
<polygon fill="none" stroke="red" points="924,-206 823.82,-171.5 1024.18,-171.5 924,-206"/>
<text text-anchor="middle" x="924" y="-179.3" font-family="Times,serif" font-size="14.00">zoom out</text>
</a>
</g>
</g>
</g>
</svg>
