<?xml version="1.0" encoding="UTF-8" standalone="no"?>
<!DOCTYPE svg PUBLIC "-//W3C//DTD SVG 1.1//EN"
 "http://www.w3.org/Graphics/SVG/1.1/DTD/svg11.dtd">
<!-- Generated by graphviz version 2.44.0 ()
 -->
<!-- Pages: 1 -->
<svg width="862pt" height="198pt"
 viewBox="0.00 0.00 861.91 198.00" xmlns="http://www.w3.org/2000/svg" xmlns:xlink="http://www.w3.org/1999/xlink">
<g id="graph0" class="graph" transform="scale(1 1) rotate(0) translate(4 194)">
<polygon fill="white" stroke="transparent" points="-4,4 -4,-194 857.91,-194 857.91,4 -4,4"/>
<!-- user_moves_pointer_on_desktop_to_browser_close_icon_using_mouse -->
<g id="node1" class="node">
<title>user_moves_pointer_on_desktop_to_browser_close_icon_using_mouse</title>
<ellipse fill="none" stroke="black" cx="317.82" cy="-167" rx="317.64" ry="18"/>
<text text-anchor="middle" x="317.82" y="-163.3" font-family="Times,serif" font-size="14.00">user_moves_pointer_on_desktop_to_browser_close_icon_using_mouse</text>
</g>
<!-- user_clicks_on_browser_close_icon -->
<g id="node2" class="node">
<title>user_clicks_on_browser_close_icon</title>
<ellipse fill="none" stroke="black" cx="317.82" cy="-90" rx="171.67" ry="18"/>
<text text-anchor="middle" x="317.82" y="-86.3" font-family="Times,serif" font-size="14.00">user_clicks_on_browser_close_icon</text>
</g>
<!-- user_moves_pointer_on_desktop_to_browser_close_icon_using_mouse&#45;&gt;user_clicks_on_browser_close_icon -->
<g id="edge1" class="edge">
<title>user_moves_pointer_on_desktop_to_browser_close_icon_using_mouse&#45;&gt;user_clicks_on_browser_close_icon</title>
<path fill="none" stroke="black" d="M317.82,-148.98C317.82,-139.94 317.82,-128.6 317.82,-118.35"/>
<polygon fill="black" stroke="black" points="321.32,-118.21 317.82,-108.21 314.32,-118.21 321.32,-118.21"/>
</g>
<!-- operating_sytem_closes_web_browser -->
<g id="node3" class="node">
<title>operating_sytem_closes_web_browser</title>
<ellipse fill="none" stroke="black" cx="317.82" cy="-18" rx="176.57" ry="18"/>
<text text-anchor="middle" x="317.82" y="-14.3" font-family="Times,serif" font-size="14.00">operating_sytem_closes_web_browser</text>
</g>
<!-- user_clicks_on_browser_close_icon&#45;&gt;operating_sytem_closes_web_browser -->
<g id="edge2" class="edge">
<title>user_clicks_on_browser_close_icon&#45;&gt;operating_sytem_closes_web_browser</title>
<path fill="none" stroke="black" d="M317.82,-71.7C317.82,-63.98 317.82,-54.71 317.82,-46.11"/>
<polygon fill="black" stroke="black" points="321.32,-46.1 317.82,-36.1 314.32,-46.1 321.32,-46.1"/>
</g>
<!-- zoom out -->
<g id="node4" class="node">
<title>zoom out</title>
<g id="a_node4"><a xlink:href="auto_1_user_browses_the_web.svg" xlink:title="zoom out">
<polygon fill="none" stroke="red" points="753.82,-190 653.64,-155.5 854,-155.5 753.82,-190"/>
<text text-anchor="middle" x="753.82" y="-163.3" font-family="Times,serif" font-size="14.00">zoom out</text>
</a>
</g>
</g>
</g>
</svg>
