<?xml version="1.0" encoding="UTF-8" standalone="no"?>
<!DOCTYPE svg PUBLIC "-//W3C//DTD SVG 1.1//EN"
 "http://www.w3.org/Graphics/SVG/1.1/DTD/svg11.dtd">
<!-- Generated by graphviz version 2.44.0 ()
 -->
<!-- Pages: 1 -->
<svg width="779pt" height="433pt"
 viewBox="0.00 0.00 778.92 433.00" xmlns="http://www.w3.org/2000/svg" xmlns:xlink="http://www.w3.org/1999/xlink">
<g id="graph0" class="graph" transform="scale(1 1) rotate(0) translate(4 429)">
<polygon fill="white" stroke="transparent" points="-4,4 -4,-429 774.92,-429 774.92,4 -4,4"/>
<g id="clust1" class="cluster">
<title>cluster_BIOS_boots_computer</title>
<g id="a_clust1"><a xlink:href="auto_2_BIOS_boots_computer.svg" xlink:title="BIOS boots computer">
<polygon fill="none" stroke="black" points="11.83,-8 11.83,-227 389.83,-227 389.83,-8 11.83,-8"/>
<text text-anchor="middle" x="200.83" y="-211.8" font-family="Times,serif" font-size="14.00">BIOS boots computer</text>
</a>
</g>
</g>
<!-- BIOS_boots_computer -->
<!-- operating_system_starts_desktop -->
<g id="node5" class="node">
<title>operating_system_starts_desktop</title>
<ellipse fill="none" stroke="black" cx="559.83" cy="-106" rx="161.67" ry="18"/>
<text text-anchor="middle" x="559.83" y="-102.3" font-family="Times,serif" font-size="14.00">operating_system_starts_desktop</text>
</g>
<!-- BIOS_boots_computer&#45;&gt;operating_system_starts_desktop -->
<g id="edge3" class="edge">
<title>BIOS_boots_computer&#45;&gt;operating_system_starts_desktop</title>
<path fill="none" stroke="black" d="M389.82,-149.35C422.54,-141.2 457.5,-132.49 487.15,-125.1"/>
<polygon fill="black" stroke="black" points="488.17,-128.46 497.03,-122.64 486.48,-121.66 488.17,-128.46"/>
</g>
<!-- BIOS_boots_computerBIOS_detects_RAM -->
<g id="node2" class="node">
<title>BIOS_boots_computerBIOS_detects_RAM</title>
<polygon fill="none" stroke="black" points="157.33,-196 20.33,-196 20.33,-160 157.33,-160 157.33,-196"/>
<text text-anchor="middle" x="88.83" y="-174.3" font-family="Times,serif" font-size="14.00">BIOS detects RAM</text>
</g>
<!-- BIOS_boots_computerBIOS_detects_hardware -->
<g id="node3" class="node">
<title>BIOS_boots_computerBIOS_detects_hardware</title>
<polygon fill="none" stroke="black" points="199.83,-124 25.83,-124 25.83,-88 199.83,-88 199.83,-124"/>
<text text-anchor="middle" x="112.83" y="-102.3" font-family="Times,serif" font-size="14.00">BIOS detects hardware</text>
</g>
<!-- BIOS_boots_computerBIOS_detects_RAM&#45;&gt;BIOS_boots_computerBIOS_detects_hardware -->
<g id="edge1" class="edge">
<title>BIOS_boots_computerBIOS_detects_RAM&#45;&gt;BIOS_boots_computerBIOS_detects_hardware</title>
<path fill="none" stroke="black" d="M94.76,-159.7C97.43,-151.9 100.65,-142.51 103.63,-133.83"/>
<polygon fill="black" stroke="black" points="107.03,-134.7 106.96,-124.1 100.41,-132.43 107.03,-134.7"/>
</g>
<!-- BIOS_boots_computerBIOS_loads_boot_sequence -->
<g id="node4" class="node">
<title>BIOS_boots_computerBIOS_loads_boot_sequence</title>
<g id="a_node4"><a xlink:href="auto_2_BIOS_boots_computer.svg" xlink:title="BIOS loads boot sequence">
<polygon fill="none" stroke="blue" points="217.33,-52 20.33,-52 20.33,-16 217.33,-16 217.33,-52"/>
<text text-anchor="middle" x="118.83" y="-30.3" font-family="Times,serif" font-size="14.00">BIOS loads boot sequence</text>
</a>
</g>
</g>
<!-- BIOS_boots_computerBIOS_detects_hardware&#45;&gt;BIOS_boots_computerBIOS_loads_boot_sequence -->
<g id="edge2" class="edge">
<title>BIOS_boots_computerBIOS_detects_hardware&#45;&gt;BIOS_boots_computerBIOS_loads_boot_sequence</title>
<path fill="none" stroke="black" d="M114.31,-87.7C114.97,-79.98 115.76,-70.71 116.5,-62.11"/>
<polygon fill="black" stroke="black" points="119.99,-62.37 117.36,-52.1 113.02,-61.77 119.99,-62.37"/>
</g>
<!-- while_computer_is_off_power_button_short_circuits_wire -->
<g id="node6" class="node">
<title>while_computer_is_off_power_button_short_circuits_wire</title>
<ellipse fill="none" stroke="black" cx="278.83" cy="-402" rx="274.05" ry="18"/>
<text text-anchor="middle" x="278.83" y="-398.3" font-family="Times,serif" font-size="14.00">while_computer_is_off_power_button_short_circuits_wire</text>
</g>
<!-- while_computer_is_off_motherboard_does_something_to_CPU -->
<g id="node7" class="node">
<title>while_computer_is_off_motherboard_does_something_to_CPU</title>
<ellipse fill="none" stroke="black" cx="278.83" cy="-325" rx="278.65" ry="18"/>
<text text-anchor="middle" x="278.83" y="-321.3" font-family="Times,serif" font-size="14.00">while_computer_is_off_motherboard_does_something_to_CPU</text>
</g>
<!-- while_computer_is_off_power_button_short_circuits_wire&#45;&gt;while_computer_is_off_motherboard_does_something_to_CPU -->
<g id="edge4" class="edge">
<title>while_computer_is_off_power_button_short_circuits_wire&#45;&gt;while_computer_is_off_motherboard_does_something_to_CPU</title>
<path fill="none" stroke="black" d="M278.83,-383.98C278.83,-374.94 278.83,-363.6 278.83,-353.35"/>
<polygon fill="black" stroke="black" points="282.33,-353.21 278.83,-343.21 275.33,-353.21 282.33,-353.21"/>
</g>
<!-- CPU_executes_BIOS_code_at_bottom_of_memory_map -->
<g id="node8" class="node">
<title>CPU_executes_BIOS_code_at_bottom_of_memory_map</title>
<ellipse fill="none" stroke="black" cx="278.83" cy="-253" rx="235.06" ry="18"/>
<text text-anchor="middle" x="278.83" y="-249.3" font-family="Times,serif" font-size="14.00">CPU_executes_BIOS_code_at_bottom_of_memory_map</text>
</g>
<!-- while_computer_is_off_motherboard_does_something_to_CPU&#45;&gt;CPU_executes_BIOS_code_at_bottom_of_memory_map -->
<g id="edge5" class="edge">
<title>while_computer_is_off_motherboard_does_something_to_CPU&#45;&gt;CPU_executes_BIOS_code_at_bottom_of_memory_map</title>
<path fill="none" stroke="black" d="M278.83,-306.7C278.83,-298.98 278.83,-289.71 278.83,-281.11"/>
<polygon fill="black" stroke="black" points="282.33,-281.1 278.83,-271.1 275.33,-281.1 282.33,-281.1"/>
</g>
<!-- CPU_executes_BIOS_code_at_bottom_of_memory_map&#45;&gt;BIOS_boots_computer -->
<g id="edge6" class="edge">
<title>CPU_executes_BIOS_code_at_bottom_of_memory_map&#45;&gt;BIOS_boots_computer</title>
<path fill="none" stroke="black" d="M278.83,-234.7C278.83,-234.55 278.83,-234.4 278.83,-234.24"/>
<polygon fill="black" stroke="black" points="282.33,-237 278.83,-227 275.33,-237 282.33,-237"/>
</g>
<!-- zoom out -->
<g id="node9" class="node">
<title>zoom out</title>
<g id="a_node9"><a xlink:href="auto_0_how_to_use_the_internet.svg" xlink:title="zoom out">
<polygon fill="none" stroke="red" points="670.83,-425 570.64,-390.5 771.01,-390.5 670.83,-425"/>
<text text-anchor="middle" x="670.83" y="-398.3" font-family="Times,serif" font-size="14.00">zoom out</text>
</a>
</g>
</g>
</g>
</svg>
