<?xml version="1.0" encoding="UTF-8" standalone="no"?>
<!DOCTYPE svg PUBLIC "-//W3C//DTD SVG 1.1//EN"
 "http://www.w3.org/Graphics/SVG/1.1/DTD/svg11.dtd">
<!-- Generated by graphviz version 2.44.0 ()
 -->
<!-- Pages: 1 -->
<svg width="750pt" height="176pt"
 viewBox="0.00 0.00 750.09 176.00" xmlns="http://www.w3.org/2000/svg" xmlns:xlink="http://www.w3.org/1999/xlink">
<g id="graph0" class="graph" transform="scale(1 1) rotate(0) translate(4 172)">
<polygon fill="white" stroke="transparent" points="-4,4 -4,-172 746.09,-172 746.09,4 -4,4"/>
<g id="clust1" class="cluster">
<title>cluster_user_types_REISUB</title>
<g id="a_clust1"><a xlink:href="auto_2_user_types_REISUB.svg" xlink:title="user types REISUB">
<polygon fill="none" stroke="black" points="8,-8 8,-160 532,-160 532,-8 8,-8"/>
<text text-anchor="middle" x="270" y="-144.8" font-family="Times,serif" font-size="14.00">user types REISUB</text>
</a>
</g>
</g>
<!-- user_types_REISUB -->
<!-- user_types_REISUBkeyboard_key_presses_mechanical_switch -->
<g id="node2" class="node">
<title>user_types_REISUBkeyboard_key_presses_mechanical_switch</title>
<polygon fill="none" stroke="black" points="318,-129 16,-129 16,-93 318,-93 318,-129"/>
<text text-anchor="middle" x="167" y="-107.3" font-family="Times,serif" font-size="14.00">keyboard key presses mechanical switch</text>
</g>
<!-- user_types_REISUBmechanical_switch_shorts_electrical_circuit -->
<g id="node3" class="node">
<title>user_types_REISUBmechanical_switch_shorts_electrical_circuit</title>
<polygon fill="none" stroke="black" points="355.5,-52 16.5,-52 16.5,-16 355.5,-16 355.5,-52"/>
<text text-anchor="middle" x="186" y="-30.3" font-family="Times,serif" font-size="14.00">mechanical switch shorts electrical circuit</text>
</g>
<!-- user_types_REISUBkeyboard_key_presses_mechanical_switch&#45;&gt;user_types_REISUBmechanical_switch_shorts_electrical_circuit -->
<g id="edge1" class="edge">
<title>user_types_REISUBkeyboard_key_presses_mechanical_switch&#45;&gt;user_types_REISUBmechanical_switch_shorts_electrical_circuit</title>
<path fill="none" stroke="black" d="M171.31,-92.98C173.63,-83.84 176.54,-72.36 179.15,-62.03"/>
<polygon fill="black" stroke="black" points="182.58,-62.76 181.64,-52.21 175.79,-61.05 182.58,-62.76"/>
</g>
<!-- zoom out -->
<g id="node4" class="node">
<title>zoom out</title>
<g id="a_node4"><a xlink:href="auto_0_how_to_use_the_internet.svg" xlink:title="zoom out">
<polygon fill="none" stroke="red" points="642,-134 541.82,-99.5 742.18,-99.5 642,-134"/>
<text text-anchor="middle" x="642" y="-107.3" font-family="Times,serif" font-size="14.00">zoom out</text>
</a>
</g>
</g>
</g>
</svg>
