<?xml version="1.0" encoding="UTF-8" standalone="no"?>
<!DOCTYPE svg PUBLIC "-//W3C//DTD SVG 1.1//EN"
 "http://www.w3.org/Graphics/SVG/1.1/DTD/svg11.dtd">
<!-- Generated by graphviz version 2.44.0 ()
 -->
<!-- Pages: 1 -->
<svg width="945pt" height="291pt"
 viewBox="0.00 0.00 945.09 291.00" xmlns="http://www.w3.org/2000/svg" xmlns:xlink="http://www.w3.org/1999/xlink">
<g id="graph0" class="graph" transform="scale(1 1) rotate(0) translate(4 287)">
<polygon fill="white" stroke="transparent" points="-4,4 -4,-287 941.09,-287 941.09,4 -4,4"/>
<g id="clust1" class="cluster">
<title>cluster_BIOS_loads_boot_sequence</title>
<g id="a_clust1"><a xlink:href="auto_3_BIOS_loads_boot_sequence.svg" xlink:title="BIOS loads boot sequence">
<polygon fill="none" stroke="black" points="8,-8 8,-157 766,-157 766,-8 8,-8"/>
<text text-anchor="middle" x="387" y="-141.8" font-family="Times,serif" font-size="14.00">BIOS loads boot sequence</text>
</a>
</g>
</g>
<!-- BIOS_loads_boot_sequence -->
<!-- BIOS_loads_boot_sequenceBIOS_boots_devices_directly_into_your_OSspecific_bootloader -->
<g id="node2" class="node">
<title>BIOS_loads_boot_sequenceBIOS_boots_devices_directly_into_your_OSspecific_bootloader</title>
<polygon fill="none" stroke="black" points="483.5,-126 16.5,-126 16.5,-90 483.5,-90 483.5,-126"/>
<text text-anchor="middle" x="250" y="-104.3" font-family="Times,serif" font-size="14.00">BIOS boots devices directly into your OS&#45;specific bootloader</text>
</g>
<!-- BIOS_loads_boot_sequenceBIOS_boots_devices_any_hard_disk_or_anything_emulating_a_hard_disk_into_an_MBR -->
<g id="node3" class="node">
<title>BIOS_loads_boot_sequenceBIOS_boots_devices_any_hard_disk_or_anything_emulating_a_hard_disk_into_an_MBR</title>
<polygon fill="none" stroke="black" points="434.5,-54 65.5,-54 65.5,-16 434.5,-16 434.5,-54"/>
<text text-anchor="middle" x="250" y="-38.8" font-family="Times,serif" font-size="14.00">BIOS boots devices (any hard disk, or anything </text>
<text text-anchor="middle" x="250" y="-23.8" font-family="Times,serif" font-size="14.00">emulating a hard disk) into an MBR</text>
</g>
<!-- BIOS_loads_boot_sequenceBIOS_boots_devices_directly_into_your_OSspecific_bootloader&#45;&gt;BIOS_loads_boot_sequenceBIOS_boots_devices_any_hard_disk_or_anything_emulating_a_hard_disk_into_an_MBR -->
<g id="edge1" class="edge">
<title>BIOS_loads_boot_sequenceBIOS_boots_devices_directly_into_your_OSspecific_bootloader&#45;&gt;BIOS_loads_boot_sequenceBIOS_boots_devices_any_hard_disk_or_anything_emulating_a_hard_disk_into_an_MBR</title>
<path fill="none" stroke="black" d="M250,-89.81C250,-82.11 250,-72.82 250,-64.15"/>
<polygon fill="black" stroke="black" points="253.5,-64.02 250,-54.02 246.5,-64.02 253.5,-64.02"/>
</g>
<!-- BIOS_detects_RAM -->
<g id="node4" class="node">
<title>BIOS_detects_RAM</title>
<ellipse fill="none" stroke="black" cx="630" cy="-260" rx="89.08" ry="18"/>
<text text-anchor="middle" x="630" y="-256.3" font-family="Times,serif" font-size="14.00">BIOS_detects_RAM</text>
</g>
<!-- BIOS_detects_hardware -->
<g id="node5" class="node">
<title>BIOS_detects_hardware</title>
<ellipse fill="none" stroke="black" cx="630" cy="-183" rx="113.18" ry="18"/>
<text text-anchor="middle" x="630" y="-179.3" font-family="Times,serif" font-size="14.00">BIOS_detects_hardware</text>
</g>
<!-- BIOS_detects_RAM&#45;&gt;BIOS_detects_hardware -->
<g id="edge2" class="edge">
<title>BIOS_detects_RAM&#45;&gt;BIOS_detects_hardware</title>
<path fill="none" stroke="black" d="M630,-241.98C630,-232.94 630,-221.6 630,-211.35"/>
<polygon fill="black" stroke="black" points="633.5,-211.21 630,-201.21 626.5,-211.21 633.5,-211.21"/>
</g>
<!-- BIOS_detects_hardware&#45;&gt;BIOS_loads_boot_sequence -->
<g id="edge3" class="edge">
<title>BIOS_detects_hardware&#45;&gt;BIOS_loads_boot_sequence</title>
<path fill="none" stroke="black" d="M630,-164.7C630,-164.55 630,-164.4 630,-164.24"/>
<polygon fill="black" stroke="black" points="633.5,-167 630,-157 626.5,-167 633.5,-167"/>
</g>
<!-- zoom out -->
<g id="node6" class="node">
<title>zoom out</title>
<g id="a_node6"><a xlink:href="auto_1_state_computer_is_turning_on.svg" xlink:title="zoom out">
<polygon fill="none" stroke="red" points="837,-283 736.82,-248.5 937.18,-248.5 837,-283"/>
<text text-anchor="middle" x="837" y="-256.3" font-family="Times,serif" font-size="14.00">zoom out</text>
</a>
</g>
</g>
</g>
</svg>
