<?xml version="1.0" encoding="UTF-8" standalone="no"?>
<!DOCTYPE svg PUBLIC "-//W3C//DTD SVG 1.1//EN"
 "http://www.w3.org/Graphics/SVG/1.1/DTD/svg11.dtd">
<!-- Generated by graphviz version 2.44.0 ()
 -->
<!-- Pages: 1 -->
<svg width="691pt" height="342pt"
 viewBox="0.00 0.00 691.12 342.00" xmlns="http://www.w3.org/2000/svg" xmlns:xlink="http://www.w3.org/1999/xlink">
<g id="graph0" class="graph" transform="scale(1 1) rotate(0) translate(4 338)">
<polygon fill="white" stroke="transparent" points="-4,4 -4,-338 687.12,-338 687.12,4 -4,4"/>
<!-- mouse_hardware_moves_across_surface -->
<g id="node1" class="node">
<title>mouse_hardware_moves_across_surface</title>
<ellipse fill="none" stroke="black" cx="284.02" cy="-311" rx="181.17" ry="18"/>
<text text-anchor="middle" x="284.02" y="-307.3" font-family="Times,serif" font-size="14.00">mouse_hardware_moves_across_surface</text>
</g>
<!-- mouse_hardware_light_sensor_detects_movement_using_light -->
<g id="node2" class="node">
<title>mouse_hardware_light_sensor_detects_movement_using_light</title>
<ellipse fill="none" stroke="black" cx="284.02" cy="-234" rx="284.05" ry="18"/>
<text text-anchor="middle" x="284.02" y="-230.3" font-family="Times,serif" font-size="14.00">mouse_hardware_light_sensor_detects_movement_using_light</text>
</g>
<!-- mouse_hardware_moves_across_surface&#45;&gt;mouse_hardware_light_sensor_detects_movement_using_light -->
<g id="edge1" class="edge">
<title>mouse_hardware_moves_across_surface&#45;&gt;mouse_hardware_light_sensor_detects_movement_using_light</title>
<path fill="none" stroke="black" d="M284.02,-292.98C284.02,-283.94 284.02,-272.6 284.02,-262.35"/>
<polygon fill="black" stroke="black" points="287.52,-262.21 284.02,-252.21 280.52,-262.21 287.52,-262.21"/>
</g>
<!-- mouse_hardware_sends_signal_across_USB_cable -->
<g id="node3" class="node">
<title>mouse_hardware_sends_signal_across_USB_cable</title>
<ellipse fill="none" stroke="black" cx="284.02" cy="-162" rx="225.56" ry="18"/>
<text text-anchor="middle" x="284.02" y="-158.3" font-family="Times,serif" font-size="14.00">mouse_hardware_sends_signal_across_USB_cable</text>
</g>
<!-- mouse_hardware_light_sensor_detects_movement_using_light&#45;&gt;mouse_hardware_sends_signal_across_USB_cable -->
<g id="edge2" class="edge">
<title>mouse_hardware_light_sensor_detects_movement_using_light&#45;&gt;mouse_hardware_sends_signal_across_USB_cable</title>
<path fill="none" stroke="black" d="M284.02,-215.7C284.02,-207.98 284.02,-198.71 284.02,-190.11"/>
<polygon fill="black" stroke="black" points="287.52,-190.1 284.02,-180.1 280.52,-190.1 287.52,-190.1"/>
</g>
<!-- operating_system_translates_signal_from_USB_cable -->
<g id="node4" class="node">
<title>operating_system_translates_signal_from_USB_cable</title>
<ellipse fill="none" stroke="black" cx="284.02" cy="-90" rx="249.66" ry="18"/>
<text text-anchor="middle" x="284.02" y="-86.3" font-family="Times,serif" font-size="14.00">operating_system_translates_signal_from_USB_cable</text>
</g>
<!-- mouse_hardware_sends_signal_across_USB_cable&#45;&gt;operating_system_translates_signal_from_USB_cable -->
<g id="edge3" class="edge">
<title>mouse_hardware_sends_signal_across_USB_cable&#45;&gt;operating_system_translates_signal_from_USB_cable</title>
<path fill="none" stroke="black" d="M284.02,-143.7C284.02,-135.98 284.02,-126.71 284.02,-118.11"/>
<polygon fill="black" stroke="black" points="287.52,-118.1 284.02,-108.1 280.52,-118.1 287.52,-118.1"/>
</g>
<!-- operating_system_moves_pointer_on_computer_screen -->
<g id="node5" class="node">
<title>operating_system_moves_pointer_on_computer_screen</title>
<ellipse fill="none" stroke="black" cx="284.02" cy="-18" rx="249.66" ry="18"/>
<text text-anchor="middle" x="284.02" y="-14.3" font-family="Times,serif" font-size="14.00">operating_system_moves_pointer_on_computer_screen</text>
</g>
<!-- operating_system_translates_signal_from_USB_cable&#45;&gt;operating_system_moves_pointer_on_computer_screen -->
<g id="edge4" class="edge">
<title>operating_system_translates_signal_from_USB_cable&#45;&gt;operating_system_moves_pointer_on_computer_screen</title>
<path fill="none" stroke="black" d="M284.02,-71.7C284.02,-63.98 284.02,-54.71 284.02,-46.11"/>
<polygon fill="black" stroke="black" points="287.52,-46.1 284.02,-36.1 280.52,-46.1 287.52,-46.1"/>
</g>
<!-- zoom out -->
<g id="node6" class="node">
<title>zoom out</title>
<g id="a_node6"><a xlink:href="auto_2_user_opens_web_browser.svg" xlink:title="zoom out">
<polygon fill="none" stroke="red" points="583.02,-334 482.84,-299.5 683.21,-299.5 583.02,-334"/>
<text text-anchor="middle" x="583.02" y="-307.3" font-family="Times,serif" font-size="14.00">zoom out</text>
</a>
</g>
</g>
</g>
</svg>
