<?xml version="1.0" encoding="UTF-8" standalone="no"?>
<!DOCTYPE svg PUBLIC "-//W3C//DTD SVG 1.1//EN"
 "http://www.w3.org/Graphics/SVG/1.1/DTD/svg11.dtd">
<!-- Generated by graphviz version 2.44.0 ()
 -->
<!-- Pages: 1 -->
<svg width="888pt" height="176pt"
 viewBox="0.00 0.00 888.09 176.00" xmlns="http://www.w3.org/2000/svg" xmlns:xlink="http://www.w3.org/1999/xlink">
<g id="graph0" class="graph" transform="scale(1 1) rotate(0) translate(4 172)">
<polygon fill="white" stroke="transparent" points="-4,4 -4,-172 884.09,-172 884.09,4 -4,4"/>
<g id="clust1" class="cluster">
<title>cluster_NIC_sends_IP_dataframe_to_router_NIC</title>
<g id="a_clust1"><a xlink:href="auto_9_NIC_sends_IP_dataframe_to_router_NIC.svg" xlink:title="NIC sends IP dataframe to router NIC">
<polygon fill="none" stroke="black" points="8,-8 8,-160 398,-160 398,-8 8,-8"/>
<text text-anchor="middle" x="203" y="-144.8" font-family="Times,serif" font-size="14.00">NIC sends IP dataframe to router NIC</text>
</a>
</g>
</g>
<!-- NIC_sends_IP_dataframe_to_router_NIC -->
<!-- NIC_sends_IP_dataframe_to_router_NICNIC_firmware_sends_signal_to_ethernet -->
<g id="node2" class="node">
<title>NIC_sends_IP_dataframe_to_router_NICNIC_firmware_sends_signal_to_ethernet</title>
<g id="a_node2"><a xlink:href="auto_9_NIC_sends_IP_dataframe_to_router_NIC.svg" xlink:title="NIC firmware sends signal to ethernet">
<polygon fill="none" stroke="blue" points="350,-129 56,-129 56,-93 350,-93 350,-129"/>
<text text-anchor="middle" x="203" y="-107.3" font-family="Times,serif" font-size="14.00">NIC firmware sends signal to ethernet</text>
</a>
</g>
</g>
<!-- NIC_sends_IP_dataframe_to_router_NICNIC_firmware_sends_signal_to_ethernet&#45;&gt;NIC_sends_IP_dataframe_to_router_NIC -->
<!-- NIC_creates_IP_dataframe -->
<g id="node3" class="node">
<title>NIC_creates_IP_dataframe</title>
<ellipse fill="none" stroke="black" cx="534" cy="-111" rx="128.08" ry="18"/>
<text text-anchor="middle" x="534" y="-107.3" font-family="Times,serif" font-size="14.00">NIC_creates_IP_dataframe</text>
</g>
<!-- NIC_creates_IP_dataframe&#45;&gt;NIC_sends_IP_dataframe_to_router_NIC -->
<g id="edge2" class="edge">
<title>NIC_creates_IP_dataframe&#45;&gt;NIC_sends_IP_dataframe_to_router_NIC</title>
<path fill="none" stroke="black" d="M469.39,-95.36C451,-91.19 429.92,-86.42 407.85,-81.42"/>
<polygon fill="black" stroke="black" points="408.52,-77.98 398,-79.18 406.98,-84.81 408.52,-77.98"/>
</g>
<!-- zoom out -->
<g id="node4" class="node">
<title>zoom out</title>
<g id="a_node4"><a xlink:href="auto_7_operating_system_implements_TCP_connection_to_router.svg" xlink:title="zoom out">
<polygon fill="none" stroke="red" points="780,-134 679.82,-99.5 880.18,-99.5 780,-134"/>
<text text-anchor="middle" x="780" y="-107.3" font-family="Times,serif" font-size="14.00">zoom out</text>
</a>
</g>
</g>
</g>
</svg>
