<?xml version="1.0" encoding="UTF-8" standalone="no"?>
<!DOCTYPE svg PUBLIC "-//W3C//DTD SVG 1.1//EN"
 "http://www.w3.org/Graphics/SVG/1.1/DTD/svg11.dtd">
<!-- Generated by graphviz version 2.44.0 ()
 -->
<!-- Pages: 1 -->
<svg width="2011pt" height="395pt"
 viewBox="0.00 0.00 2010.53 395.00" xmlns="http://www.w3.org/2000/svg" xmlns:xlink="http://www.w3.org/1999/xlink">
<g id="graph0" class="graph" transform="scale(1 1) rotate(0) translate(4 391)">
<polygon fill="white" stroke="transparent" points="-4,4 -4,-391 2006.53,-391 2006.53,4 -4,4"/>
<g id="clust1" class="cluster">
<title>cluster_user_moves_pointer_on_desktop_to_browser_icon_using_mouse</title>
<g id="a_clust1"><a xlink:href="auto_3_user_moves_pointer_on_desktop_to_browser_icon_using_mouse.svg" xlink:title="user moves pointer on desktop to browser icon using mouse">
<polygon fill="none" stroke="black" points="8,-8 8,-379 899,-379 899,-8 8,-8"/>
<text text-anchor="middle" x="453.5" y="-363.8" font-family="Times,serif" font-size="14.00">user moves pointer on desktop to browser icon using mouse</text>
</a>
</g>
</g>
<g id="clust2" class="cluster">
<title>cluster_user_clicks_on_desktop_browser_icon</title>
<g id="a_clust2"><a xlink:href="auto_3_user_clicks_on_desktop_browser_icon.svg" xlink:title="user clicks on desktop browser icon">
<polygon fill="none" stroke="black" points="907,-8 907,-299 1621,-299 1621,-8 907,-8"/>
<text text-anchor="middle" x="1264" y="-283.8" font-family="Times,serif" font-size="14.00">user clicks on desktop browser icon</text>
</a>
</g>
</g>
<!-- user_moves_pointer_on_desktop_to_browser_icon_using_mouse -->
<!-- user_clicks_on_desktop_browser_icon -->
<!-- user_moves_pointer_on_desktop_to_browser_icon_using_mouse&#45;&gt;user_clicks_on_desktop_browser_icon -->
<g id="edge8" class="edge">
<title>user_moves_pointer_on_desktop_to_browser_icon_using_mouse&#45;&gt;user_clicks_on_desktop_browser_icon</title>
<path fill="none" stroke="black" d="M899,-307.05C899.33,-307.03 899.67,-307.02 900,-307 972.67,-303.47 1150.5,-308.77 1231.67,-300.24"/>
<polygon fill="black" stroke="black" points="1232.49,-303.66 1242,-299 1231.66,-296.71 1232.49,-303.66"/>
</g>
<!-- user_moves_pointer_on_desktop_to_browser_icon_using_mousemouse_hardware_moves_across_surface -->
<g id="node2" class="node">
<title>user_moves_pointer_on_desktop_to_browser_icon_using_mousemouse_hardware_moves_across_surface</title>
<polygon fill="none" stroke="black" points="295.5,-348 16.5,-348 16.5,-312 295.5,-312 295.5,-348"/>
<text text-anchor="middle" x="156" y="-326.3" font-family="Times,serif" font-size="14.00">mouse hardware moves across surface</text>
</g>
<!-- user_moves_pointer_on_desktop_to_browser_icon_using_mousemouse_hardware_light_sensor_detects_movement_using_light -->
<g id="node3" class="node">
<title>user_moves_pointer_on_desktop_to_browser_icon_using_mousemouse_hardware_light_sensor_detects_movement_using_light</title>
<polygon fill="none" stroke="black" points="452.5,-268 15.5,-268 15.5,-232 452.5,-232 452.5,-268"/>
<text text-anchor="middle" x="234" y="-246.3" font-family="Times,serif" font-size="14.00">mouse hardware light sensor detects movement using light</text>
</g>
<!-- user_moves_pointer_on_desktop_to_browser_icon_using_mousemouse_hardware_moves_across_surface&#45;&gt;user_moves_pointer_on_desktop_to_browser_icon_using_mousemouse_hardware_light_sensor_detects_movement_using_light -->
<g id="edge1" class="edge">
<title>user_moves_pointer_on_desktop_to_browser_icon_using_mousemouse_hardware_moves_across_surface&#45;&gt;user_moves_pointer_on_desktop_to_browser_icon_using_mousemouse_hardware_light_sensor_detects_movement_using_light</title>
<path fill="none" stroke="black" d="M173.31,-311.69C183.91,-301.09 197.65,-287.35 209.38,-275.62"/>
<polygon fill="black" stroke="black" points="212.14,-277.81 216.74,-268.26 207.19,-272.86 212.14,-277.81"/>
</g>
<!-- user_moves_pointer_on_desktop_to_browser_icon_using_mousemouse_hardware_sends_signal_across_USB_cable -->
<g id="node4" class="node">
<title>user_moves_pointer_on_desktop_to_browser_icon_using_mousemouse_hardware_sends_signal_across_USB_cable</title>
<polygon fill="none" stroke="black" points="407.5,-196 60.5,-196 60.5,-160 407.5,-160 407.5,-196"/>
<text text-anchor="middle" x="234" y="-174.3" font-family="Times,serif" font-size="14.00">mouse hardware sends signal across USB cable</text>
</g>
<!-- user_moves_pointer_on_desktop_to_browser_icon_using_mousemouse_hardware_light_sensor_detects_movement_using_light&#45;&gt;user_moves_pointer_on_desktop_to_browser_icon_using_mousemouse_hardware_sends_signal_across_USB_cable -->
<g id="edge2" class="edge">
<title>user_moves_pointer_on_desktop_to_browser_icon_using_mousemouse_hardware_light_sensor_detects_movement_using_light&#45;&gt;user_moves_pointer_on_desktop_to_browser_icon_using_mousemouse_hardware_sends_signal_across_USB_cable</title>
<path fill="none" stroke="black" d="M234,-231.7C234,-223.98 234,-214.71 234,-206.11"/>
<polygon fill="black" stroke="black" points="237.5,-206.1 234,-196.1 230.5,-206.1 237.5,-206.1"/>
</g>
<!-- user_moves_pointer_on_desktop_to_browser_icon_using_mouseoperating_system_translates_signal_from_USB_cable -->
<g id="node5" class="node">
<title>user_moves_pointer_on_desktop_to_browser_icon_using_mouseoperating_system_translates_signal_from_USB_cable</title>
<polygon fill="none" stroke="black" points="426,-124 42,-124 42,-88 426,-88 426,-124"/>
<text text-anchor="middle" x="234" y="-102.3" font-family="Times,serif" font-size="14.00">operating system translates signal from USB cable</text>
</g>
<!-- user_moves_pointer_on_desktop_to_browser_icon_using_mousemouse_hardware_sends_signal_across_USB_cable&#45;&gt;user_moves_pointer_on_desktop_to_browser_icon_using_mouseoperating_system_translates_signal_from_USB_cable -->
<g id="edge3" class="edge">
<title>user_moves_pointer_on_desktop_to_browser_icon_using_mousemouse_hardware_sends_signal_across_USB_cable&#45;&gt;user_moves_pointer_on_desktop_to_browser_icon_using_mouseoperating_system_translates_signal_from_USB_cable</title>
<path fill="none" stroke="black" d="M234,-159.7C234,-151.98 234,-142.71 234,-134.11"/>
<polygon fill="black" stroke="black" points="237.5,-134.1 234,-124.1 230.5,-134.1 237.5,-134.1"/>
</g>
<!-- user_moves_pointer_on_desktop_to_browser_icon_using_mouseoperating_system_moves_pointer_on_computer_screen -->
<g id="node6" class="node">
<title>user_moves_pointer_on_desktop_to_browser_icon_using_mouseoperating_system_moves_pointer_on_computer_screen</title>
<polygon fill="none" stroke="black" points="426,-52 42,-52 42,-16 426,-16 426,-52"/>
<text text-anchor="middle" x="234" y="-30.3" font-family="Times,serif" font-size="14.00">operating system moves pointer on computer screen</text>
</g>
<!-- user_moves_pointer_on_desktop_to_browser_icon_using_mouseoperating_system_translates_signal_from_USB_cable&#45;&gt;user_moves_pointer_on_desktop_to_browser_icon_using_mouseoperating_system_moves_pointer_on_computer_screen -->
<g id="edge4" class="edge">
<title>user_moves_pointer_on_desktop_to_browser_icon_using_mouseoperating_system_translates_signal_from_USB_cable&#45;&gt;user_moves_pointer_on_desktop_to_browser_icon_using_mouseoperating_system_moves_pointer_on_computer_screen</title>
<path fill="none" stroke="black" d="M234,-87.7C234,-79.98 234,-70.71 234,-62.11"/>
<polygon fill="black" stroke="black" points="237.5,-62.1 234,-52.1 230.5,-62.1 237.5,-62.1"/>
</g>
<!-- operating_sytem_launches_web_browser -->
<g id="node12" class="node">
<title>operating_sytem_launches_web_browser</title>
<ellipse fill="none" stroke="black" cx="1816" cy="-178" rx="186.57" ry="18"/>
<text text-anchor="middle" x="1816" y="-174.3" font-family="Times,serif" font-size="14.00">operating_sytem_launches_web_browser</text>
</g>
<!-- user_clicks_on_desktop_browser_icon&#45;&gt;operating_sytem_launches_web_browser -->
<g id="edge9" class="edge">
<title>user_clicks_on_desktop_browser_icon&#45;&gt;operating_sytem_launches_web_browser</title>
<path fill="none" stroke="black" d="M1621,-214.55C1656.46,-208.08 1692.06,-201.59 1722.95,-195.96"/>
<polygon fill="black" stroke="black" points="1723.76,-199.37 1732.97,-194.14 1722.5,-192.49 1723.76,-199.37"/>
</g>
<!-- user_clicks_on_desktop_browser_iconmouse_hardware_depress_mechanical_switch -->
<g id="node8" class="node">
<title>user_clicks_on_desktop_browser_iconmouse_hardware_depress_mechanical_switch</title>
<polygon fill="none" stroke="black" points="1232.5,-268 915.5,-268 915.5,-232 1232.5,-232 1232.5,-268"/>
<text text-anchor="middle" x="1074" y="-246.3" font-family="Times,serif" font-size="14.00">mouse hardware depress mechanical switch</text>
</g>
<!-- user_clicks_on_desktop_browser_iconmouse_hardware_sends_signal_across_USB_cable -->
<g id="node9" class="node">
<title>user_clicks_on_desktop_browser_iconmouse_hardware_sends_signal_across_USB_cable</title>
<polygon fill="none" stroke="black" points="1270.5,-196 923.5,-196 923.5,-160 1270.5,-160 1270.5,-196"/>
<text text-anchor="middle" x="1097" y="-174.3" font-family="Times,serif" font-size="14.00">mouse hardware sends signal across USB cable</text>
</g>
<!-- user_clicks_on_desktop_browser_iconmouse_hardware_depress_mechanical_switch&#45;&gt;user_clicks_on_desktop_browser_iconmouse_hardware_sends_signal_across_USB_cable -->
<g id="edge5" class="edge">
<title>user_clicks_on_desktop_browser_iconmouse_hardware_depress_mechanical_switch&#45;&gt;user_clicks_on_desktop_browser_iconmouse_hardware_sends_signal_across_USB_cable</title>
<path fill="none" stroke="black" d="M1079.69,-231.7C1082.25,-223.9 1085.33,-214.51 1088.18,-205.83"/>
<polygon fill="black" stroke="black" points="1091.58,-206.7 1091.38,-196.1 1084.93,-204.51 1091.58,-206.7"/>
</g>
<!-- user_clicks_on_desktop_browser_iconoperating_system_translates_signal_from_USB_cable -->
<g id="node10" class="node">
<title>user_clicks_on_desktop_browser_iconoperating_system_translates_signal_from_USB_cable</title>
<polygon fill="none" stroke="black" points="1299,-124 915,-124 915,-88 1299,-88 1299,-124"/>
<text text-anchor="middle" x="1107" y="-102.3" font-family="Times,serif" font-size="14.00">operating system translates signal from USB cable</text>
</g>
<!-- user_clicks_on_desktop_browser_iconmouse_hardware_sends_signal_across_USB_cable&#45;&gt;user_clicks_on_desktop_browser_iconoperating_system_translates_signal_from_USB_cable -->
<g id="edge6" class="edge">
<title>user_clicks_on_desktop_browser_iconmouse_hardware_sends_signal_across_USB_cable&#45;&gt;user_clicks_on_desktop_browser_iconoperating_system_translates_signal_from_USB_cable</title>
<path fill="none" stroke="black" d="M1099.47,-159.7C1100.57,-151.98 1101.9,-142.71 1103.13,-134.11"/>
<polygon fill="black" stroke="black" points="1106.61,-134.5 1104.56,-124.1 1099.68,-133.51 1106.61,-134.5"/>
</g>
<!-- user_clicks_on_desktop_browser_iconoperating_system_acts_on_desktop_icon -->
<g id="node11" class="node">
<title>user_clicks_on_desktop_browser_iconoperating_system_acts_on_desktop_icon</title>
<polygon fill="none" stroke="black" points="1254,-52 960,-52 960,-16 1254,-16 1254,-52"/>
<text text-anchor="middle" x="1107" y="-30.3" font-family="Times,serif" font-size="14.00">operating system acts on desktop icon</text>
</g>
<!-- user_clicks_on_desktop_browser_iconoperating_system_translates_signal_from_USB_cable&#45;&gt;user_clicks_on_desktop_browser_iconoperating_system_acts_on_desktop_icon -->
<g id="edge7" class="edge">
<title>user_clicks_on_desktop_browser_iconoperating_system_translates_signal_from_USB_cable&#45;&gt;user_clicks_on_desktop_browser_iconoperating_system_acts_on_desktop_icon</title>
<path fill="none" stroke="black" d="M1107,-87.7C1107,-79.98 1107,-70.71 1107,-62.11"/>
<polygon fill="black" stroke="black" points="1110.5,-62.1 1107,-52.1 1103.5,-62.1 1110.5,-62.1"/>
</g>
<!-- zoom out -->
<g id="node13" class="node">
<title>zoom out</title>
<g id="a_node13"><a xlink:href="auto_1_user_browses_the_web.svg" xlink:title="zoom out">
<polygon fill="none" stroke="red" points="1009,-353 908.82,-318.5 1109.18,-318.5 1009,-353"/>
<text text-anchor="middle" x="1009" y="-326.3" font-family="Times,serif" font-size="14.00">zoom out</text>
</a>
</g>
</g>
</g>
</svg>
