<?xml version="1.0" encoding="UTF-8" standalone="no"?>
<!DOCTYPE svg PUBLIC "-//W3C//DTD SVG 1.1//EN"
 "http://www.w3.org/Graphics/SVG/1.1/DTD/svg11.dtd">
<!-- Generated by graphviz version 2.44.0 ()
 -->
<!-- Pages: 1 -->
<svg width="682pt" height="270pt"
 viewBox="0.00 0.00 681.67 270.00" xmlns="http://www.w3.org/2000/svg" xmlns:xlink="http://www.w3.org/1999/xlink">
<g id="graph0" class="graph" transform="scale(1 1) rotate(0) translate(4 266)">
<polygon fill="white" stroke="transparent" points="-4,4 -4,-266 677.67,-266 677.67,4 -4,4"/>
<!-- mouse_hardware_depress_mechanical_switch -->
<g id="node1" class="node">
<title>mouse_hardware_depress_mechanical_switch</title>
<ellipse fill="none" stroke="black" cx="249.58" cy="-239" rx="206.06" ry="18"/>
<text text-anchor="middle" x="249.58" y="-235.3" font-family="Times,serif" font-size="14.00">mouse_hardware_depress_mechanical_switch</text>
</g>
<!-- mouse_hardware_sends_signal_across_USB_cable -->
<g id="node2" class="node">
<title>mouse_hardware_sends_signal_across_USB_cable</title>
<ellipse fill="none" stroke="black" cx="249.58" cy="-162" rx="225.56" ry="18"/>
<text text-anchor="middle" x="249.58" y="-158.3" font-family="Times,serif" font-size="14.00">mouse_hardware_sends_signal_across_USB_cable</text>
</g>
<!-- mouse_hardware_depress_mechanical_switch&#45;&gt;mouse_hardware_sends_signal_across_USB_cable -->
<g id="edge1" class="edge">
<title>mouse_hardware_depress_mechanical_switch&#45;&gt;mouse_hardware_sends_signal_across_USB_cable</title>
<path fill="none" stroke="black" d="M249.58,-220.98C249.58,-211.94 249.58,-200.6 249.58,-190.35"/>
<polygon fill="black" stroke="black" points="253.08,-190.21 249.58,-180.21 246.08,-190.21 253.08,-190.21"/>
</g>
<!-- operating_system_translates_signal_from_USB_cable -->
<g id="node3" class="node">
<title>operating_system_translates_signal_from_USB_cable</title>
<ellipse fill="none" stroke="black" cx="249.58" cy="-90" rx="249.66" ry="18"/>
<text text-anchor="middle" x="249.58" y="-86.3" font-family="Times,serif" font-size="14.00">operating_system_translates_signal_from_USB_cable</text>
</g>
<!-- mouse_hardware_sends_signal_across_USB_cable&#45;&gt;operating_system_translates_signal_from_USB_cable -->
<g id="edge2" class="edge">
<title>mouse_hardware_sends_signal_across_USB_cable&#45;&gt;operating_system_translates_signal_from_USB_cable</title>
<path fill="none" stroke="black" d="M249.58,-143.7C249.58,-135.98 249.58,-126.71 249.58,-118.11"/>
<polygon fill="black" stroke="black" points="253.08,-118.1 249.58,-108.1 246.08,-118.1 253.08,-118.1"/>
</g>
<!-- operating_system_acts_on_desktop_icon -->
<g id="node4" class="node">
<title>operating_system_acts_on_desktop_icon</title>
<ellipse fill="none" stroke="black" cx="249.58" cy="-18" rx="191.17" ry="18"/>
<text text-anchor="middle" x="249.58" y="-14.3" font-family="Times,serif" font-size="14.00">operating_system_acts_on_desktop_icon</text>
</g>
<!-- operating_system_translates_signal_from_USB_cable&#45;&gt;operating_system_acts_on_desktop_icon -->
<g id="edge3" class="edge">
<title>operating_system_translates_signal_from_USB_cable&#45;&gt;operating_system_acts_on_desktop_icon</title>
<path fill="none" stroke="black" d="M249.58,-71.7C249.58,-63.98 249.58,-54.71 249.58,-46.11"/>
<polygon fill="black" stroke="black" points="253.08,-46.1 249.58,-36.1 246.08,-46.1 253.08,-46.1"/>
</g>
<!-- zoom out -->
<g id="node5" class="node">
<title>zoom out</title>
<g id="a_node5"><a xlink:href="layer_plus_one_2_user_opens_web_browser.svg" xlink:title="zoom out">
<polygon fill="none" stroke="red" points="573.58,-262 473.4,-227.5 673.76,-227.5 573.58,-262"/>
<text text-anchor="middle" x="573.58" y="-235.3" font-family="Times,serif" font-size="14.00">zoom out</text>
</a>
</g>
</g>
</g>
</svg>
