<?xml version="1.0" encoding="UTF-8" standalone="no"?>
<!DOCTYPE svg PUBLIC "-//W3C//DTD SVG 1.1//EN"
 "http://www.w3.org/Graphics/SVG/1.1/DTD/svg11.dtd">
<!-- Generated by graphviz version 2.44.0 ()
 -->
<!-- Pages: 1 -->
<svg width="652pt" height="304pt"
 viewBox="0.00 0.00 652.09 304.00" xmlns="http://www.w3.org/2000/svg" xmlns:xlink="http://www.w3.org/1999/xlink">
<g id="graph0" class="graph" transform="scale(1 1) rotate(0) translate(4 300)">
<polygon fill="white" stroke="transparent" points="-4,4 -4,-300 648.09,-300 648.09,4 -4,4"/>
<g id="clust1" class="cluster">
<title>cluster_operating_system_sends_request_to_router</title>
<g id="a_clust1"><a xlink:href="layer_plus_one_6_operating_system_sends_request_to_router.svg" xlink:title="operating system sends request to router">
<polygon fill="none" stroke="black" points="8,-136 8,-288 436,-288 436,-136 8,-136"/>
<text text-anchor="middle" x="222" y="-272.8" font-family="Times,serif" font-size="14.00">operating system sends request to router</text>
</a>
</g>
</g>
<!-- operating_system_sends_request_to_router -->
<!-- router_checks_local_cache_on_router -->
<g id="node3" class="node">
<title>router_checks_local_cache_on_router</title>
<ellipse fill="none" stroke="black" cx="222" cy="-90" rx="181.17" ry="18"/>
<text text-anchor="middle" x="222" y="-86.3" font-family="Times,serif" font-size="14.00">router_checks_local_cache_on_router</text>
</g>
<!-- operating_system_sends_request_to_router&#45;&gt;router_checks_local_cache_on_router -->
<g id="edge2" class="edge">
<title>operating_system_sends_request_to_router&#45;&gt;router_checks_local_cache_on_router</title>
<path fill="none" stroke="black" d="M222,-136C222,-130.2 222,-124 222,-118.11"/>
<polygon fill="black" stroke="black" points="225.5,-118.1 222,-108.1 218.5,-118.1 225.5,-118.1"/>
</g>
<!-- operating_system_sends_request_to_routeroperating_system_implements_TCP_connection_to_router -->
<g id="node2" class="node">
<title>operating_system_sends_request_to_routeroperating_system_implements_TCP_connection_to_router</title>
<g id="a_node2"><a xlink:href="layer_plus_one_6_operating_system_sends_request_to_router.svg" xlink:title="operating system implements TCP connection to router">
<polygon fill="none" stroke="blue" points="425.5,-257 18.5,-257 18.5,-221 425.5,-221 425.5,-257"/>
<text text-anchor="middle" x="222" y="-235.3" font-family="Times,serif" font-size="14.00">operating system implements TCP connection to router</text>
</a>
</g>
</g>
<!-- operating_system_sends_request_to_routeroperating_system_implements_TCP_connection_to_router&#45;&gt;operating_system_sends_request_to_router -->
<!-- router_checks_the_ISP_cache -->
<g id="node4" class="node">
<title>router_checks_the_ISP_cache</title>
<ellipse fill="none" stroke="black" cx="222" cy="-18" rx="142.17" ry="18"/>
<text text-anchor="middle" x="222" y="-14.3" font-family="Times,serif" font-size="14.00">router_checks_the_ISP_cache</text>
</g>
<!-- router_checks_local_cache_on_router&#45;&gt;router_checks_the_ISP_cache -->
<g id="edge3" class="edge">
<title>router_checks_local_cache_on_router&#45;&gt;router_checks_the_ISP_cache</title>
<path fill="none" stroke="black" d="M222,-71.7C222,-63.98 222,-54.71 222,-46.11"/>
<polygon fill="black" stroke="black" points="225.5,-46.1 222,-36.1 218.5,-46.1 225.5,-46.1"/>
</g>
<!-- zoom out -->
<g id="node5" class="node">
<title>zoom out</title>
<g id="a_node5"><a xlink:href="layer_plus_one_4_web_browser_checks_the_operating_system_cache.svg" xlink:title="zoom out">
<polygon fill="none" stroke="red" points="544,-262 443.82,-227.5 644.18,-227.5 544,-262"/>
<text text-anchor="middle" x="544" y="-235.3" font-family="Times,serif" font-size="14.00">zoom out</text>
</a>
</g>
</g>
</g>
</svg>
