<?xml version="1.0" encoding="UTF-8" standalone="no"?>
<!DOCTYPE svg PUBLIC "-//W3C//DTD SVG 1.1//EN"
 "http://www.w3.org/Graphics/SVG/1.1/DTD/svg11.dtd">
<!-- Generated by graphviz version 2.44.0 ()
 -->
<!-- Pages: 1 -->
<svg width="972pt" height="423pt"
 viewBox="0.00 0.00 971.84 423.00" xmlns="http://www.w3.org/2000/svg" xmlns:xlink="http://www.w3.org/1999/xlink">
<g id="graph0" class="graph" transform="scale(1 1) rotate(0) translate(4 419)">
<polygon fill="white" stroke="transparent" points="-4,4 -4,-419 967.84,-419 967.84,4 -4,4"/>
<g id="clust1" class="cluster">
<title>cluster_user_story_computer_hBIOS_boots_computer</title>
<polygon fill="none" stroke="black" points="8,-8 8,-227 632,-227 632,-8 8,-8"/>
<text text-anchor="middle" x="320" y="-211.8" font-family="Times,serif" font-size="14.00">BIOS boots computer</text>
</g>
<!-- user_story_computer_hBIOS_boots_computer -->
<!-- user_story_computer_hoperating_system_starts_desktop -->
<g id="node8" class="node">
<title>user_story_computer_hoperating_system_starts_desktop</title>
<ellipse fill="none" stroke="black" cx="802" cy="-106" rx="161.67" ry="18"/>
<text text-anchor="middle" x="802" y="-102.3" font-family="Times,serif" font-size="14.00">operating system starts desktop</text>
</g>
<!-- user_story_computer_hBIOS_boots_computer&#45;&gt;user_story_computer_hoperating_system_starts_desktop -->
<g id="edge6" class="edge">
<title>user_story_computer_hBIOS_boots_computer&#45;&gt;user_story_computer_hoperating_system_starts_desktop</title>
<path fill="none" stroke="black" d="M502.75,-161.55C564.7,-150.26 648.58,-134.97 711.78,-123.45"/>
<polygon fill="black" stroke="black" points="712.53,-126.87 721.74,-121.63 711.27,-119.98 712.53,-126.87"/>
</g>
<!-- user_story_computer_hBIOS_boots_computerBIOS_detects_RAM -->
<g id="node2" class="node">
<title>user_story_computer_hBIOS_boots_computerBIOS_detects_RAM</title>
<ellipse fill="none" stroke="black" cx="105" cy="-178" rx="89.08" ry="18"/>
<text text-anchor="middle" x="105" y="-174.3" font-family="Times,serif" font-size="14.00">BIOS detects RAM</text>
</g>
<!-- user_story_computer_hBIOS_boots_computerBIOS_detects_hardware -->
<g id="node3" class="node">
<title>user_story_computer_hBIOS_boots_computerBIOS_detects_hardware</title>
<ellipse fill="none" stroke="black" cx="129" cy="-106" rx="113.18" ry="18"/>
<text text-anchor="middle" x="129" y="-102.3" font-family="Times,serif" font-size="14.00">BIOS detects hardware</text>
</g>
<!-- user_story_computer_hBIOS_boots_computerBIOS_detects_RAM&#45;&gt;user_story_computer_hBIOS_boots_computerBIOS_detects_hardware -->
<g id="edge1" class="edge">
<title>user_story_computer_hBIOS_boots_computerBIOS_detects_RAM&#45;&gt;user_story_computer_hBIOS_boots_computerBIOS_detects_hardware</title>
<path fill="none" stroke="black" d="M110.93,-159.7C113.61,-151.9 116.83,-142.51 119.8,-133.83"/>
<polygon fill="black" stroke="black" points="123.2,-134.7 123.14,-124.1 116.58,-132.43 123.2,-134.7"/>
</g>
<!-- user_story_computer_hBIOS_boots_computerBIOS_loads_boot_sequence -->
<g id="node4" class="node">
<title>user_story_computer_hBIOS_boots_computerBIOS_loads_boot_sequence</title>
<g id="a_node4"><a xlink:href="user_story_computer_h_BIOS_boots.svg" xlink:title="BIOS loads boot sequence">
<polygon fill="none" stroke="blue" points="227.5,-52 30.5,-52 30.5,-16 227.5,-16 227.5,-52"/>
<text text-anchor="middle" x="129" y="-30.3" font-family="Times,serif" font-size="14.00">BIOS loads boot sequence</text>
</a>
</g>
</g>
<!-- user_story_computer_hBIOS_boots_computerBIOS_detects_hardware&#45;&gt;user_story_computer_hBIOS_boots_computerBIOS_loads_boot_sequence -->
<g id="edge2" class="edge">
<title>user_story_computer_hBIOS_boots_computerBIOS_detects_hardware&#45;&gt;user_story_computer_hBIOS_boots_computerBIOS_loads_boot_sequence</title>
<path fill="none" stroke="black" d="M129,-87.7C129,-79.98 129,-70.71 129,-62.11"/>
<polygon fill="black" stroke="black" points="132.5,-62.1 129,-52.1 125.5,-62.1 132.5,-62.1"/>
</g>
<!-- user_story_computer_hpower_button_short_circuits_wire -->
<g id="node5" class="node">
<title>user_story_computer_hpower_button_short_circuits_wire</title>
<ellipse fill="none" stroke="black" cx="418" cy="-397" rx="167.07" ry="18"/>
<text text-anchor="middle" x="418" y="-393.3" font-family="Times,serif" font-size="14.00">power button short circuits wire</text>
</g>
<!-- user_story_computer_hmotherboard_does_something_to_CPU -->
<g id="node6" class="node">
<title>user_story_computer_hmotherboard_does_something_to_CPU</title>
<ellipse fill="none" stroke="black" cx="418" cy="-325" rx="171.67" ry="18"/>
<text text-anchor="middle" x="418" y="-321.3" font-family="Times,serif" font-size="14.00">motherboard does something to CPU</text>
</g>
<!-- user_story_computer_hpower_button_short_circuits_wire&#45;&gt;user_story_computer_hmotherboard_does_something_to_CPU -->
<g id="edge3" class="edge">
<title>user_story_computer_hpower_button_short_circuits_wire&#45;&gt;user_story_computer_hmotherboard_does_something_to_CPU</title>
<path fill="none" stroke="black" d="M418,-378.7C418,-370.98 418,-361.71 418,-353.11"/>
<polygon fill="black" stroke="black" points="421.5,-353.1 418,-343.1 414.5,-353.1 421.5,-353.1"/>
</g>
<!-- user_story_computer_hCPU_executes_BIOS_code_at_bottom_of_memory_map -->
<g id="node7" class="node">
<title>user_story_computer_hCPU_executes_BIOS_code_at_bottom_of_memory_map</title>
<ellipse fill="none" stroke="black" cx="418" cy="-253" rx="235.06" ry="18"/>
<text text-anchor="middle" x="418" y="-249.3" font-family="Times,serif" font-size="14.00">CPU executes BIOS code at bottom of memory map</text>
</g>
<!-- user_story_computer_hmotherboard_does_something_to_CPU&#45;&gt;user_story_computer_hCPU_executes_BIOS_code_at_bottom_of_memory_map -->
<g id="edge4" class="edge">
<title>user_story_computer_hmotherboard_does_something_to_CPU&#45;&gt;user_story_computer_hCPU_executes_BIOS_code_at_bottom_of_memory_map</title>
<path fill="none" stroke="black" d="M418,-306.7C418,-298.98 418,-289.71 418,-281.11"/>
<polygon fill="black" stroke="black" points="421.5,-281.1 418,-271.1 414.5,-281.1 421.5,-281.1"/>
</g>
<!-- user_story_computer_hCPU_executes_BIOS_code_at_bottom_of_memory_map&#45;&gt;user_story_computer_hBIOS_boots_computer -->
<g id="edge5" class="edge">
<title>user_story_computer_hCPU_executes_BIOS_code_at_bottom_of_memory_map&#45;&gt;user_story_computer_hBIOS_boots_computer</title>
<path fill="none" stroke="black" d="M418,-234.7C418,-226.25 418,-215.87 418,-206.37"/>
<polygon fill="black" stroke="black" points="421.5,-206.18 418,-196.18 414.5,-206.18 421.5,-206.18"/>
</g>
</g>
</svg>
