<?xml version="1.0" encoding="UTF-8" standalone="no"?>
<!DOCTYPE svg PUBLIC "-//W3C//DTD SVG 1.1//EN"
 "http://www.w3.org/Graphics/SVG/1.1/DTD/svg11.dtd">
<!-- Generated by graphviz version 2.44.0 ()
 -->
<!-- Pages: 1 -->
<svg width="4107pt" height="786pt"
 viewBox="0.00 0.00 4107.00 786.00" xmlns="http://www.w3.org/2000/svg" xmlns:xlink="http://www.w3.org/1999/xlink">
<g id="graph0" class="graph" transform="scale(1 1) rotate(0) translate(4 782)">
<polygon fill="white" stroke="transparent" points="-4,4 -4,-782 4103,-782 4103,4 -4,4"/>
<g id="clust1" class="cluster">
<title>cluster_user_storyuser_turns_off_the_computer</title>
<polygon fill="none" stroke="black" points="8,-537 8,-770 1312,-770 1312,-537 8,-537"/>
<text text-anchor="middle" x="660" y="-754.8" font-family="Times,serif" font-size="14.00">user turns off the computer</text>
</g>
<g id="clust2" class="cluster">
<title>cluster_user_storycomputer_has_state_off</title>
<polygon fill="none" stroke="black" points="1320,-620 1320,-695 2050,-695 2050,-620 1320,-620"/>
<text text-anchor="middle" x="1685" y="-679.8" font-family="Times,serif" font-size="14.00">computer has state off</text>
</g>
<g id="clust3" class="cluster">
<title>cluster_user_storycomputer_has_state_turning_on</title>
<polygon fill="none" stroke="black" points="2005,-152 2005,-529 2775,-529 2775,-152 2005,-152"/>
<text text-anchor="middle" x="2390" y="-513.8" font-family="Times,serif" font-size="14.00">computer has state turning on</text>
</g>
<g id="clust4" class="cluster">
<title>cluster_user_storyuser_turns_on_computer</title>
<polygon fill="none" stroke="black" points="1373,-379 1373,-612 1997,-612 1997,-379 1373,-379"/>
<text text-anchor="middle" x="1685" y="-596.8" font-family="Times,serif" font-size="14.00">user turns on computer</text>
</g>
<g id="clust5" class="cluster">
<title>cluster_user_storycomputer_has_state_idle</title>
<polygon fill="none" stroke="black" points="3321,-296 3321,-371 4091,-371 4091,-296 3321,-296"/>
<text text-anchor="middle" x="3706" y="-355.8" font-family="Times,serif" font-size="14.00">computer has state idle</text>
</g>
<g id="clust6" class="cluster">
<title>cluster_user_storyuser_browses_the_web</title>
<polygon fill="none" stroke="black" points="2783,-8 2783,-454 3313,-454 3313,-8 2783,-8"/>
<text text-anchor="middle" x="3048" y="-438.8" font-family="Times,serif" font-size="14.00">user browses the web</text>
</g>
<!-- user_storyuser_turns_off_the_computer -->
<!-- user_storycomputer_has_state_off -->
<!-- user_storyuser_turns_off_the_computer&#45;&gt;user_storycomputer_has_state_off -->
<g id="edge20" class="edge">
<title>user_storyuser_turns_off_the_computer&#45;&gt;user_storycomputer_has_state_off</title>
<path fill="none" stroke="black" d="M1298.49,-716.59C1440.63,-713.13 1624.61,-706.58 1699,-695 1739.02,-688.77 1782.97,-676.79 1816.94,-666.35"/>
<polygon fill="black" stroke="black" points="1818.19,-669.63 1826.7,-663.32 1816.11,-662.95 1818.19,-669.63"/>
</g>
<!-- user_storyuser_turns_off_the_computeruser_pushes_power_button -->
<g id="node2" class="node">
<title>user_storyuser_turns_off_the_computeruser_pushes_power_button</title>
<ellipse fill="none" stroke="black" cx="776" cy="-721" rx="128.08" ry="18"/>
<text text-anchor="middle" x="776" y="-717.3" font-family="Times,serif" font-size="14.00">user pushes power button</text>
</g>
<!-- user_storyuser_turns_off_the_computerpower_button_short_circuits_wire -->
<g id="node3" class="node">
<title>user_storyuser_turns_off_the_computerpower_button_short_circuits_wire</title>
<ellipse fill="none" stroke="black" cx="776" cy="-646" rx="167.07" ry="18"/>
<text text-anchor="middle" x="776" y="-642.3" font-family="Times,serif" font-size="14.00">power button short circuits wire</text>
</g>
<!-- user_storyuser_turns_off_the_computeruser_pushes_power_button&#45;&gt;user_storyuser_turns_off_the_computerpower_button_short_circuits_wire -->
<g id="edge1" class="edge">
<title>user_storyuser_turns_off_the_computeruser_pushes_power_button&#45;&gt;user_storyuser_turns_off_the_computerpower_button_short_circuits_wire</title>
<path fill="none" stroke="black" d="M776,-702.7C776,-694.25 776,-683.87 776,-674.37"/>
<polygon fill="black" stroke="black" points="779.5,-674.18 776,-664.18 772.5,-674.18 779.5,-674.18"/>
</g>
<!-- user_storyuser_turns_off_the_computermotherboard_does_something_to_CPU -->
<g id="node4" class="node">
<title>user_storyuser_turns_off_the_computermotherboard_does_something_to_CPU</title>
<ellipse fill="none" stroke="black" cx="776" cy="-563" rx="171.67" ry="18"/>
<text text-anchor="middle" x="776" y="-559.3" font-family="Times,serif" font-size="14.00">motherboard does something to CPU</text>
</g>
<!-- user_storyuser_turns_off_the_computerpower_button_short_circuits_wire&#45;&gt;user_storyuser_turns_off_the_computermotherboard_does_something_to_CPU -->
<g id="edge2" class="edge">
<title>user_storyuser_turns_off_the_computerpower_button_short_circuits_wire&#45;&gt;user_storyuser_turns_off_the_computermotherboard_does_something_to_CPU</title>
<path fill="none" stroke="black" d="M776,-627.82C776,-617.19 776,-603.31 776,-591.2"/>
<polygon fill="black" stroke="black" points="779.5,-591.15 776,-581.15 772.5,-591.15 779.5,-591.15"/>
</g>
<!-- user_storyuser_turns_off_the_computeruser_selects_shutdown_menu_option_on_desktop -->
<g id="node5" class="node">
<title>user_storyuser_turns_off_the_computeruser_selects_shutdown_menu_option_on_desktop</title>
<ellipse fill="none" stroke="black" cx="404" cy="-721" rx="225.56" ry="18"/>
<text text-anchor="middle" x="404" y="-717.3" font-family="Times,serif" font-size="14.00">user selects shutdown menu option on desktop</text>
</g>
<!-- user_storyuser_turns_off_the_computeroperating_system_terminates_desktop -->
<g id="node6" class="node">
<title>user_storyuser_turns_off_the_computeroperating_system_terminates_desktop</title>
<ellipse fill="none" stroke="black" cx="404" cy="-646" rx="181.17" ry="18"/>
<text text-anchor="middle" x="404" y="-642.3" font-family="Times,serif" font-size="14.00">operating system terminates desktop</text>
</g>
<!-- user_storyuser_turns_off_the_computeruser_selects_shutdown_menu_option_on_desktop&#45;&gt;user_storyuser_turns_off_the_computeroperating_system_terminates_desktop -->
<g id="edge3" class="edge">
<title>user_storyuser_turns_off_the_computeruser_selects_shutdown_menu_option_on_desktop&#45;&gt;user_storyuser_turns_off_the_computeroperating_system_terminates_desktop</title>
<path fill="none" stroke="black" d="M404,-702.7C404,-694.25 404,-683.87 404,-674.37"/>
<polygon fill="black" stroke="black" points="407.5,-674.18 404,-664.18 400.5,-674.18 407.5,-674.18"/>
</g>
<!-- user_storyuser_turns_off_the_computeruser_types_REISUB -->
<g id="node7" class="node">
<title>user_storyuser_turns_off_the_computeruser_types_REISUB</title>
<g id="a_node7"><a xlink:href="user_story_user_turns.svg" xlink:title="user types REISUB">
<polygon fill="none" stroke="blue" points="160,-739 16,-739 16,-703 160,-703 160,-739"/>
<text text-anchor="middle" x="88" y="-717.3" font-family="Times,serif" font-size="14.00">user types REISUB</text>
</a>
</g>
</g>
<!-- user_storyuser_turns_on_computer -->
<!-- user_storycomputer_has_state_off&#45;&gt;user_storyuser_turns_on_computer -->
<g id="edge15" class="edge">
<title>user_storycomputer_has_state_off&#45;&gt;user_storyuser_turns_on_computer</title>
<path fill="none" stroke="black" d="M1863.76,-627.82C1856.52,-616.76 1846.98,-602.18 1838.85,-589.75"/>
<polygon fill="black" stroke="black" points="1841.63,-587.6 1833.22,-581.15 1835.77,-591.44 1841.63,-587.6"/>
</g>
<!-- user_storycomputer_has_state_offmotherboard_uses_power_from_battery -->
<g id="node9" class="node">
<title>user_storycomputer_has_state_offmotherboard_uses_power_from_battery</title>
<ellipse fill="none" stroke="black" cx="1509" cy="-646" rx="181.17" ry="18"/>
<text text-anchor="middle" x="1509" y="-642.3" font-family="Times,serif" font-size="14.00">motherboard uses power from battery</text>
</g>
<!-- user_storycomputer_has_state_turning_on -->
<!-- user_storyuser_browses_the_web -->
<!-- user_storycomputer_has_state_turning_on&#45;&gt;user_storyuser_browses_the_web -->
<g id="edge17" class="edge">
<title>user_storycomputer_has_state_turning_on&#45;&gt;user_storyuser_browses_the_web</title>
<path fill="none" stroke="black" d="M2762.26,-476.13C2832.02,-472.77 2910.88,-466.26 2982,-454 3019.51,-447.53 3060.61,-435.69 3092.53,-425.38"/>
<polygon fill="black" stroke="black" points="3093.72,-428.68 3102.13,-422.24 3091.54,-422.02 3093.72,-428.68"/>
</g>
<!-- user_storycomputer_has_state_turning_onpower_button_short_circuits_wire -->
<g id="node11" class="node">
<title>user_storycomputer_has_state_turning_onpower_button_short_circuits_wire</title>
<ellipse fill="none" stroke="black" cx="2180" cy="-480" rx="167.07" ry="18"/>
<text text-anchor="middle" x="2180" y="-476.3" font-family="Times,serif" font-size="14.00">power button short circuits wire</text>
</g>
<!-- user_storycomputer_has_state_turning_onmotherboard_does_something_to_CPU -->
<g id="node12" class="node">
<title>user_storycomputer_has_state_turning_onmotherboard_does_something_to_CPU</title>
<ellipse fill="none" stroke="black" cx="2216" cy="-405" rx="171.67" ry="18"/>
<text text-anchor="middle" x="2216" y="-401.3" font-family="Times,serif" font-size="14.00">motherboard does something to CPU</text>
</g>
<!-- user_storycomputer_has_state_turning_onpower_button_short_circuits_wire&#45;&gt;user_storycomputer_has_state_turning_onmotherboard_does_something_to_CPU -->
<g id="edge4" class="edge">
<title>user_storycomputer_has_state_turning_onpower_button_short_circuits_wire&#45;&gt;user_storycomputer_has_state_turning_onmotherboard_does_something_to_CPU</title>
<path fill="none" stroke="black" d="M2188.53,-461.7C2192.88,-452.88 2198.26,-441.97 2203.1,-432.15"/>
<polygon fill="black" stroke="black" points="2206.25,-433.69 2207.53,-423.18 2199.97,-430.6 2206.25,-433.69"/>
</g>
<!-- user_storycomputer_has_state_turning_onCPU_executes_BIOS_code_at_bottom_of_memory_map -->
<g id="node13" class="node">
<title>user_storycomputer_has_state_turning_onCPU_executes_BIOS_code_at_bottom_of_memory_map</title>
<ellipse fill="none" stroke="black" cx="2248" cy="-322" rx="235.06" ry="18"/>
<text text-anchor="middle" x="2248" y="-318.3" font-family="Times,serif" font-size="14.00">CPU executes BIOS code at bottom of memory map</text>
</g>
<!-- user_storycomputer_has_state_turning_onmotherboard_does_something_to_CPU&#45;&gt;user_storycomputer_has_state_turning_onCPU_executes_BIOS_code_at_bottom_of_memory_map -->
<g id="edge5" class="edge">
<title>user_storycomputer_has_state_turning_onmotherboard_does_something_to_CPU&#45;&gt;user_storycomputer_has_state_turning_onCPU_executes_BIOS_code_at_bottom_of_memory_map</title>
<path fill="none" stroke="black" d="M2222.79,-386.82C2227.07,-375.98 2232.69,-361.74 2237.54,-349.47"/>
<polygon fill="black" stroke="black" points="2240.8,-350.74 2241.22,-340.15 2234.29,-348.17 2240.8,-350.74"/>
</g>
<!-- user_storycomputer_has_state_turning_onBIOS_boots_computer -->
<g id="node14" class="node">
<title>user_storycomputer_has_state_turning_onBIOS_boots_computer</title>
<g id="a_node14"><a xlink:href="user_story_computer_h.svg" xlink:title="BIOS boots computer">
<polygon fill="none" stroke="blue" points="2327.5,-268 2168.5,-268 2168.5,-232 2327.5,-232 2327.5,-268"/>
<text text-anchor="middle" x="2248" y="-246.3" font-family="Times,serif" font-size="14.00">BIOS boots computer</text>
</a>
</g>
</g>
<!-- user_storycomputer_has_state_turning_onCPU_executes_BIOS_code_at_bottom_of_memory_map&#45;&gt;user_storycomputer_has_state_turning_onBIOS_boots_computer -->
<g id="edge6" class="edge">
<title>user_storycomputer_has_state_turning_onCPU_executes_BIOS_code_at_bottom_of_memory_map&#45;&gt;user_storycomputer_has_state_turning_onBIOS_boots_computer</title>
<path fill="none" stroke="black" d="M2248,-303.7C2248,-295.98 2248,-286.71 2248,-278.11"/>
<polygon fill="black" stroke="black" points="2251.5,-278.1 2248,-268.1 2244.5,-278.1 2251.5,-278.1"/>
</g>
<!-- user_storycomputer_has_state_turning_onoperating_system_starts_desktop -->
<g id="node15" class="node">
<title>user_storycomputer_has_state_turning_onoperating_system_starts_desktop</title>
<ellipse fill="none" stroke="black" cx="2248" cy="-178" rx="161.67" ry="18"/>
<text text-anchor="middle" x="2248" y="-174.3" font-family="Times,serif" font-size="14.00">operating system starts desktop</text>
</g>
<!-- user_storycomputer_has_state_turning_onBIOS_boots_computer&#45;&gt;user_storycomputer_has_state_turning_onoperating_system_starts_desktop -->
<g id="edge7" class="edge">
<title>user_storycomputer_has_state_turning_onBIOS_boots_computer&#45;&gt;user_storycomputer_has_state_turning_onoperating_system_starts_desktop</title>
<path fill="none" stroke="black" d="M2248,-231.7C2248,-223.98 2248,-214.71 2248,-206.11"/>
<polygon fill="black" stroke="black" points="2251.5,-206.1 2248,-196.1 2244.5,-206.1 2251.5,-206.1"/>
</g>
<!-- user_storyuser_turns_on_computer&#45;&gt;user_storycomputer_has_state_turning_on -->
<g id="edge16" class="edge">
<title>user_storyuser_turns_on_computer&#45;&gt;user_storycomputer_has_state_turning_on</title>
<path fill="none" stroke="black" d="M1984.53,-558.83C2090.7,-555.07 2232.12,-546.86 2356,-529 2403.53,-522.15 2456.22,-510.09 2496.93,-499.78"/>
<polygon fill="black" stroke="black" points="2497.92,-503.13 2506.74,-497.26 2496.19,-496.35 2497.92,-503.13"/>
</g>
<!-- user_storyuser_turns_on_computeruser_pushes_power_button -->
<g id="node17" class="node">
<title>user_storyuser_turns_on_computeruser_pushes_power_button</title>
<ellipse fill="none" stroke="black" cx="1509" cy="-563" rx="128.08" ry="18"/>
<text text-anchor="middle" x="1509" y="-559.3" font-family="Times,serif" font-size="14.00">user pushes power button</text>
</g>
<!-- user_storyuser_turns_on_computerpower_button_short_circuits_wire -->
<g id="node18" class="node">
<title>user_storyuser_turns_on_computerpower_button_short_circuits_wire</title>
<ellipse fill="none" stroke="black" cx="1550" cy="-480" rx="167.07" ry="18"/>
<text text-anchor="middle" x="1550" y="-476.3" font-family="Times,serif" font-size="14.00">power button short circuits wire</text>
</g>
<!-- user_storyuser_turns_on_computeruser_pushes_power_button&#45;&gt;user_storyuser_turns_on_computerpower_button_short_circuits_wire -->
<g id="edge8" class="edge">
<title>user_storyuser_turns_on_computeruser_pushes_power_button&#45;&gt;user_storyuser_turns_on_computerpower_button_short_circuits_wire</title>
<path fill="none" stroke="black" d="M1517.7,-544.82C1523.24,-533.87 1530.53,-519.46 1536.78,-507.11"/>
<polygon fill="black" stroke="black" points="1539.92,-508.66 1541.32,-498.15 1533.68,-505.49 1539.92,-508.66"/>
</g>
<!-- user_storyuser_turns_on_computermotherboard_does_something_to_CPU -->
<g id="node19" class="node">
<title>user_storyuser_turns_on_computermotherboard_does_something_to_CPU</title>
<ellipse fill="none" stroke="black" cx="1553" cy="-405" rx="171.67" ry="18"/>
<text text-anchor="middle" x="1553" y="-401.3" font-family="Times,serif" font-size="14.00">motherboard does something to CPU</text>
</g>
<!-- user_storyuser_turns_on_computerpower_button_short_circuits_wire&#45;&gt;user_storyuser_turns_on_computermotherboard_does_something_to_CPU -->
<g id="edge9" class="edge">
<title>user_storyuser_turns_on_computerpower_button_short_circuits_wire&#45;&gt;user_storyuser_turns_on_computermotherboard_does_something_to_CPU</title>
<path fill="none" stroke="black" d="M1550.71,-461.7C1551.06,-453.25 1551.48,-442.87 1551.88,-433.37"/>
<polygon fill="black" stroke="black" points="1555.38,-433.31 1552.29,-423.18 1548.39,-433.02 1555.38,-433.31"/>
</g>
<!-- user_storycomputer_has_state_idle -->
<!-- user_storycomputer_has_state_idle&#45;&gt;user_storyuser_turns_off_the_computer -->
<g id="edge19" class="edge">
<title>user_storycomputer_has_state_idle&#45;&gt;user_storyuser_turns_off_the_computer</title>
<path fill="none" stroke="black" d="M3859.33,-339.27C3776.21,-367.02 3622,-425.69 3622,-479 3622,-564 3622,-564 3622,-564 3622,-679.5 1905.88,-710.66 1312.22,-717.98"/>
<polygon fill="black" stroke="black" points="1311.8,-714.48 1301.84,-718.11 1311.88,-721.48 1311.8,-714.48"/>
</g>
<!-- user_storycomputer_has_state_idleoperating_system_waiting_for_interrupt -->
<g id="node21" class="node">
<title>user_storycomputer_has_state_idleoperating_system_waiting_for_interrupt</title>
<ellipse fill="none" stroke="black" cx="3525" cy="-322" rx="196.07" ry="18"/>
<text text-anchor="middle" x="3525" y="-318.3" font-family="Times,serif" font-size="14.00">operating system waiting for interrupt</text>
</g>
<!-- user_storyuser_browses_the_web&#45;&gt;user_storycomputer_has_state_idle -->
<g id="edge18" class="edge">
<title>user_storyuser_browses_the_web&#45;&gt;user_storycomputer_has_state_idle</title>
<path fill="none" stroke="black" d="M3286.63,-396.48C3455.31,-387.29 3719.15,-372.73 3730,-371 3771.08,-364.46 3816.32,-352.46 3851.3,-342.1"/>
<polygon fill="black" stroke="black" points="3852.3,-345.45 3860.88,-339.23 3850.29,-338.75 3852.3,-345.45"/>
</g>
<!-- user_storyuser_browses_the_webuser_opens_web_browser -->
<g id="node23" class="node">
<title>user_storyuser_browses_the_webuser_opens_web_browser</title>
<g id="a_node23"><a xlink:href="user_story_user_brows.svg" xlink:title="user opens web browser">
<polygon fill="none" stroke="blue" points="2973,-423 2791,-423 2791,-387 2973,-387 2973,-423"/>
<text text-anchor="middle" x="2882" y="-401.3" font-family="Times,serif" font-size="14.00">user opens web browser</text>
</a>
</g>
</g>
<!-- user_storyuser_browses_the_webuser_types_URL_of_website -->
<g id="node24" class="node">
<title>user_storyuser_browses_the_webuser_types_URL_of_website</title>
<g id="a_node24"><a xlink:href="user_story_user_brows.svg" xlink:title="user types URL of website">
<polygon fill="none" stroke="blue" points="2995,-340 2791,-340 2791,-304 2995,-304 2995,-340"/>
<text text-anchor="middle" x="2893" y="-318.3" font-family="Times,serif" font-size="14.00">user types URL of website</text>
</a>
</g>
</g>
<!-- user_storyuser_browses_the_webuser_opens_web_browser&#45;&gt;user_storyuser_browses_the_webuser_types_URL_of_website -->
<g id="edge10" class="edge">
<title>user_storyuser_browses_the_webuser_opens_web_browser&#45;&gt;user_storyuser_browses_the_webuser_types_URL_of_website</title>
<path fill="none" stroke="black" d="M2884.33,-386.82C2885.78,-376.19 2887.66,-362.31 2889.31,-350.2"/>
<polygon fill="black" stroke="black" points="2892.79,-350.53 2890.67,-340.15 2885.86,-349.59 2892.79,-350.53"/>
</g>
<!-- user_storyuser_browses_the_webweb_browser_shows_webpage -->
<g id="node25" class="node">
<title>user_storyuser_browses_the_webweb_browser_shows_webpage</title>
<g id="a_node25"><a xlink:href="user_story_user_brows.svg" xlink:title="web browser shows webpage">
<polygon fill="none" stroke="blue" points="2995,-268 2791,-268 2791,-232 2995,-232 2995,-268"/>
<text text-anchor="middle" x="2893" y="-246.3" font-family="Times,serif" font-size="14.00">web browser shows webpage</text>
</a>
</g>
</g>
<!-- user_storyuser_browses_the_webuser_types_URL_of_website&#45;&gt;user_storyuser_browses_the_webweb_browser_shows_webpage -->
<g id="edge11" class="edge">
<title>user_storyuser_browses_the_webuser_types_URL_of_website&#45;&gt;user_storyuser_browses_the_webweb_browser_shows_webpage</title>
<path fill="none" stroke="black" d="M2893,-303.7C2893,-295.98 2893,-286.71 2893,-278.11"/>
<polygon fill="black" stroke="black" points="2896.5,-278.1 2893,-268.1 2889.5,-278.1 2896.5,-278.1"/>
</g>
<!-- user_storyuser_browses_the_webuser_reads_webpage -->
<g id="node26" class="node">
<title>user_storyuser_browses_the_webuser_reads_webpage</title>
<ellipse fill="none" stroke="black" cx="2893" cy="-178" rx="98.58" ry="18"/>
<text text-anchor="middle" x="2893" y="-174.3" font-family="Times,serif" font-size="14.00">user reads webpage</text>
</g>
<!-- user_storyuser_browses_the_webweb_browser_shows_webpage&#45;&gt;user_storyuser_browses_the_webuser_reads_webpage -->
<g id="edge12" class="edge">
<title>user_storyuser_browses_the_webweb_browser_shows_webpage&#45;&gt;user_storyuser_browses_the_webuser_reads_webpage</title>
<path fill="none" stroke="black" d="M2893,-231.7C2893,-223.98 2893,-214.71 2893,-206.11"/>
<polygon fill="black" stroke="black" points="2896.5,-206.1 2893,-196.1 2889.5,-206.1 2896.5,-206.1"/>
</g>
<!-- user_storyuser_browses_the_webuser_clicks_on_link -->
<g id="node27" class="node">
<title>user_storyuser_browses_the_webuser_clicks_on_link</title>
<g id="a_node27"><a xlink:href="user_story_user_brows.svg" xlink:title="user clicks on link">
<polygon fill="none" stroke="blue" points="2972.5,-124 2813.5,-124 2813.5,-88 2972.5,-88 2972.5,-124"/>
<text text-anchor="middle" x="2893" y="-102.3" font-family="Times,serif" font-size="14.00">user clicks on link</text>
</a>
</g>
</g>
<!-- user_storyuser_browses_the_webuser_reads_webpage&#45;&gt;user_storyuser_browses_the_webuser_clicks_on_link -->
<g id="edge13" class="edge">
<title>user_storyuser_browses_the_webuser_reads_webpage&#45;&gt;user_storyuser_browses_the_webuser_clicks_on_link</title>
<path fill="none" stroke="black" d="M2893,-159.7C2893,-151.98 2893,-142.71 2893,-134.11"/>
<polygon fill="black" stroke="black" points="2896.5,-134.1 2893,-124.1 2889.5,-134.1 2896.5,-134.1"/>
</g>
<!-- user_storyuser_browses_the_webuser_closes_web_browser -->
<g id="node28" class="node">
<title>user_storyuser_browses_the_webuser_closes_web_browser</title>
<g id="a_node28"><a xlink:href="user_story_user_brows.svg" xlink:title="user closes web browser">
<polygon fill="none" stroke="blue" points="2987.5,-52 2798.5,-52 2798.5,-16 2987.5,-16 2987.5,-52"/>
<text text-anchor="middle" x="2893" y="-30.3" font-family="Times,serif" font-size="14.00">user closes web browser</text>
</a>
</g>
</g>
<!-- user_storyuser_browses_the_webuser_clicks_on_link&#45;&gt;user_storyuser_browses_the_webuser_closes_web_browser -->
<g id="edge14" class="edge">
<title>user_storyuser_browses_the_webuser_clicks_on_link&#45;&gt;user_storyuser_browses_the_webuser_closes_web_browser</title>
<path fill="none" stroke="black" d="M2893,-87.7C2893,-79.98 2893,-70.71 2893,-62.11"/>
<polygon fill="black" stroke="black" points="2896.5,-62.1 2893,-52.1 2889.5,-62.1 2896.5,-62.1"/>
</g>
</g>
</svg>
