<?xml version="1.0" encoding="UTF-8" standalone="no"?>
<!DOCTYPE svg PUBLIC "-//W3C//DTD SVG 1.1//EN"
 "http://www.w3.org/Graphics/SVG/1.1/DTD/svg11.dtd">
<!-- Generated by graphviz version 2.44.0 ()
 -->
<!-- Pages: 1 -->
<svg width="313pt" height="404pt"
 viewBox="0.00 0.00 312.50 404.00" xmlns="http://www.w3.org/2000/svg" xmlns:xlink="http://www.w3.org/1999/xlink">
<g id="graph0" class="graph" transform="scale(1 1) rotate(0) translate(4 400)">
<polygon fill="white" stroke="transparent" points="-4,4 -4,-400 308.5,-400 308.5,4 -4,4"/>
<!-- computer_has_state_off -->
<g id="node1" class="node">
<title>computer_has_state_off</title>
<g id="a_node1"><a xlink:href="single_layer_1_computer_has_state_off.svg" xlink:title="computer has state off">
<polygon fill="none" stroke="blue" points="280,-396 98,-396 98,-360 280,-360 280,-396"/>
<text text-anchor="middle" x="189" y="-374.3" font-family="Times,serif" font-size="14.00">computer has state off</text>
</a>
</g>
</g>
<!-- user_turns_on_computer -->
<g id="node2" class="node">
<title>user_turns_on_computer</title>
<g id="a_node2"><a xlink:href="single_layer_1_user_turns_on_computer.svg" xlink:title="user turns on computer">
<polygon fill="none" stroke="blue" points="221,-324 39,-324 39,-288 221,-288 221,-324"/>
<text text-anchor="middle" x="130" y="-302.3" font-family="Times,serif" font-size="14.00">user turns on computer</text>
</a>
</g>
</g>
<!-- computer_has_state_off&#45;&gt;user_turns_on_computer -->
<g id="edge1" class="edge">
<title>computer_has_state_off&#45;&gt;user_turns_on_computer</title>
<path fill="none" stroke="black" d="M174.42,-359.7C167.34,-351.3 158.72,-341.07 150.95,-331.86"/>
<polygon fill="black" stroke="black" points="153.54,-329.49 144.42,-324.1 148.19,-334.01 153.54,-329.49"/>
</g>
<!-- computer_has_state_turning_on -->
<g id="node3" class="node">
<title>computer_has_state_turning_on</title>
<g id="a_node3"><a xlink:href="single_layer_1_computer_has_state_turning_on.svg" xlink:title="computer has state turning on">
<polygon fill="none" stroke="blue" points="234,-252 0,-252 0,-216 234,-216 234,-252"/>
<text text-anchor="middle" x="117" y="-230.3" font-family="Times,serif" font-size="14.00">computer has state turning on</text>
</a>
</g>
</g>
<!-- user_turns_on_computer&#45;&gt;computer_has_state_turning_on -->
<g id="edge2" class="edge">
<title>user_turns_on_computer&#45;&gt;computer_has_state_turning_on</title>
<path fill="none" stroke="black" d="M126.79,-287.7C125.35,-279.98 123.63,-270.71 122.04,-262.11"/>
<polygon fill="black" stroke="black" points="125.44,-261.3 120.18,-252.1 118.56,-262.58 125.44,-261.3"/>
</g>
<!-- user_browses_the_web -->
<g id="node4" class="node">
<title>user_browses_the_web</title>
<g id="a_node4"><a xlink:href="single_layer_1_user_browses_the_web.svg" xlink:title="user browses the web">
<polygon fill="none" stroke="blue" points="211.5,-180 44.5,-180 44.5,-144 211.5,-144 211.5,-180"/>
<text text-anchor="middle" x="128" y="-158.3" font-family="Times,serif" font-size="14.00">user browses the web</text>
</a>
</g>
</g>
<!-- computer_has_state_turning_on&#45;&gt;user_browses_the_web -->
<g id="edge3" class="edge">
<title>computer_has_state_turning_on&#45;&gt;user_browses_the_web</title>
<path fill="none" stroke="black" d="M119.72,-215.7C120.93,-207.98 122.39,-198.71 123.74,-190.11"/>
<polygon fill="black" stroke="black" points="127.22,-190.53 125.31,-180.1 120.3,-189.44 127.22,-190.53"/>
</g>
<!-- computer_has_state_idle -->
<g id="node5" class="node">
<title>computer_has_state_idle</title>
<g id="a_node5"><a xlink:href="single_layer_1_computer_has_state_idle.svg" xlink:title="computer has state idle">
<polygon fill="none" stroke="blue" points="228.5,-108 39.5,-108 39.5,-72 228.5,-72 228.5,-108"/>
<text text-anchor="middle" x="134" y="-86.3" font-family="Times,serif" font-size="14.00">computer has state idle</text>
</a>
</g>
</g>
<!-- user_browses_the_web&#45;&gt;computer_has_state_idle -->
<g id="edge4" class="edge">
<title>user_browses_the_web&#45;&gt;computer_has_state_idle</title>
<path fill="none" stroke="black" d="M129.48,-143.7C130.14,-135.98 130.94,-126.71 131.68,-118.11"/>
<polygon fill="black" stroke="black" points="135.17,-118.37 132.53,-108.1 128.19,-117.77 135.17,-118.37"/>
</g>
<!-- user_turns_off_the_computer -->
<g id="node6" class="node">
<title>user_turns_off_the_computer</title>
<g id="a_node6"><a xlink:href="single_layer_1_user_turns_off_the_computer.svg" xlink:title="user turns off the computer">
<polygon fill="none" stroke="blue" points="304.5,-36 85.5,-36 85.5,0 304.5,0 304.5,-36"/>
<text text-anchor="middle" x="195" y="-14.3" font-family="Times,serif" font-size="14.00">user turns off the computer</text>
</a>
</g>
</g>
<!-- computer_has_state_idle&#45;&gt;user_turns_off_the_computer -->
<g id="edge5" class="edge">
<title>computer_has_state_idle&#45;&gt;user_turns_off_the_computer</title>
<path fill="none" stroke="black" d="M149.08,-71.7C156.39,-63.3 165.31,-53.07 173.34,-43.86"/>
<polygon fill="black" stroke="black" points="176.16,-45.94 180.09,-36.1 170.89,-41.34 176.16,-45.94"/>
</g>
<!-- user_turns_off_the_computer&#45;&gt;computer_has_state_off -->
<g id="edge6" class="edge">
<title>user_turns_off_the_computer&#45;&gt;computer_has_state_off</title>
<path fill="none" stroke="black" d="M211.7,-36.4C220.32,-46.19 230.38,-59.03 237,-72 255.68,-108.59 262,-119.91 262,-161 262,-235 262,-235 262,-235 262,-279.97 232.69,-324.96 211.21,-351.9"/>
<polygon fill="black" stroke="black" points="208.48,-349.71 204.84,-359.65 213.89,-354.15 208.48,-349.71"/>
</g>
</g>
</svg>
