<?xml version="1.0" encoding="UTF-8" standalone="no"?>
<!DOCTYPE svg PUBLIC "-//W3C//DTD SVG 1.1//EN"
 "http://www.w3.org/Graphics/SVG/1.1/DTD/svg11.dtd">
<!-- Generated by graphviz version 2.44.0 ()
 -->
<!-- Pages: 1 -->
<svg width="419pt" height="414pt"
 viewBox="0.00 0.00 419.09 414.00" xmlns="http://www.w3.org/2000/svg" xmlns:xlink="http://www.w3.org/1999/xlink">
<g id="graph0" class="graph" transform="scale(1 1) rotate(0) translate(4 410)">
<polygon fill="white" stroke="transparent" points="-4,4 -4,-410 415.09,-410 415.09,4 -4,4"/>
<!-- user_opens_web_browser -->
<g id="node1" class="node">
<title>user_opens_web_browser</title>
<g id="a_node1"><a xlink:href="single_layer_2_user_opens_web_browser.svg" xlink:title="user opens web browser">
<polygon fill="none" stroke="blue" points="193,-401 11,-401 11,-365 193,-365 193,-401"/>
<text text-anchor="middle" x="102" y="-379.3" font-family="Times,serif" font-size="14.00">user opens web browser</text>
</a>
</g>
</g>
<!-- user_types_URL_of_website -->
<g id="node2" class="node">
<title>user_types_URL_of_website</title>
<g id="a_node2"><a xlink:href="single_layer_2_user_types_URL_of_website.svg" xlink:title="user types URL of website">
<polygon fill="none" stroke="blue" points="204,-324 0,-324 0,-288 204,-288 204,-324"/>
<text text-anchor="middle" x="102" y="-302.3" font-family="Times,serif" font-size="14.00">user types URL of website</text>
</a>
</g>
</g>
<!-- user_opens_web_browser&#45;&gt;user_types_URL_of_website -->
<g id="edge1" class="edge">
<title>user_opens_web_browser&#45;&gt;user_types_URL_of_website</title>
<path fill="none" stroke="black" d="M102,-364.98C102,-355.94 102,-344.6 102,-334.35"/>
<polygon fill="black" stroke="black" points="105.5,-334.21 102,-324.21 98.5,-334.21 105.5,-334.21"/>
</g>
<!-- web_browser_shows_webpage -->
<g id="node3" class="node">
<title>web_browser_shows_webpage</title>
<g id="a_node3"><a xlink:href="single_layer_2_web_browser_shows_webpage.svg" xlink:title="web browser shows webpage">
<polygon fill="none" stroke="blue" points="204,-252 0,-252 0,-216 204,-216 204,-252"/>
<text text-anchor="middle" x="102" y="-230.3" font-family="Times,serif" font-size="14.00">web browser shows webpage</text>
</a>
</g>
</g>
<!-- user_types_URL_of_website&#45;&gt;web_browser_shows_webpage -->
<g id="edge2" class="edge">
<title>user_types_URL_of_website&#45;&gt;web_browser_shows_webpage</title>
<path fill="none" stroke="black" d="M102,-287.7C102,-279.98 102,-270.71 102,-262.11"/>
<polygon fill="black" stroke="black" points="105.5,-262.1 102,-252.1 98.5,-262.1 105.5,-262.1"/>
</g>
<!-- user_reads_webpage -->
<g id="node4" class="node">
<title>user_reads_webpage</title>
<ellipse fill="none" stroke="black" cx="102" cy="-162" rx="98.58" ry="18"/>
<text text-anchor="middle" x="102" y="-158.3" font-family="Times,serif" font-size="14.00">user reads webpage</text>
</g>
<!-- web_browser_shows_webpage&#45;&gt;user_reads_webpage -->
<g id="edge3" class="edge">
<title>web_browser_shows_webpage&#45;&gt;user_reads_webpage</title>
<path fill="none" stroke="black" d="M102,-215.7C102,-207.98 102,-198.71 102,-190.11"/>
<polygon fill="black" stroke="black" points="105.5,-190.1 102,-180.1 98.5,-190.1 105.5,-190.1"/>
</g>
<!-- user_clicks_on_link -->
<g id="node5" class="node">
<title>user_clicks_on_link</title>
<g id="a_node5"><a xlink:href="single_layer_2_user_clicks_on_link.svg" xlink:title="user clicks on link">
<polygon fill="none" stroke="blue" points="181.5,-108 22.5,-108 22.5,-72 181.5,-72 181.5,-108"/>
<text text-anchor="middle" x="102" y="-86.3" font-family="Times,serif" font-size="14.00">user clicks on link</text>
</a>
</g>
</g>
<!-- user_reads_webpage&#45;&gt;user_clicks_on_link -->
<g id="edge4" class="edge">
<title>user_reads_webpage&#45;&gt;user_clicks_on_link</title>
<path fill="none" stroke="black" d="M102,-143.7C102,-135.98 102,-126.71 102,-118.11"/>
<polygon fill="black" stroke="black" points="105.5,-118.1 102,-108.1 98.5,-118.1 105.5,-118.1"/>
</g>
<!-- user_closes_web_browser -->
<g id="node6" class="node">
<title>user_closes_web_browser</title>
<g id="a_node6"><a xlink:href="single_layer_2_user_closes_web_browser.svg" xlink:title="user closes web browser">
<polygon fill="none" stroke="blue" points="196.5,-36 7.5,-36 7.5,0 196.5,0 196.5,-36"/>
<text text-anchor="middle" x="102" y="-14.3" font-family="Times,serif" font-size="14.00">user closes web browser</text>
</a>
</g>
</g>
<!-- user_clicks_on_link&#45;&gt;user_closes_web_browser -->
<g id="edge5" class="edge">
<title>user_clicks_on_link&#45;&gt;user_closes_web_browser</title>
<path fill="none" stroke="black" d="M102,-71.7C102,-63.98 102,-54.71 102,-46.11"/>
<polygon fill="black" stroke="black" points="105.5,-46.1 102,-36.1 98.5,-46.1 105.5,-46.1"/>
</g>
<!-- zoom out -->
<g id="node7" class="node">
<title>zoom out</title>
<g id="a_node7"><a xlink:href="single_layer_0_top.svg" xlink:title="zoom out">
<polygon fill="none" stroke="red" points="311,-406 210.82,-371.5 411.18,-371.5 311,-406"/>
<text text-anchor="middle" x="311" y="-379.3" font-family="Times,serif" font-size="14.00">zoom out</text>
</a>
</g>
</g>
</g>
</svg>
