<?xml version="1.0" encoding="UTF-8" standalone="no"?>
<!DOCTYPE svg PUBLIC "-//W3C//DTD SVG 1.1//EN"
 "http://www.w3.org/Graphics/SVG/1.1/DTD/svg11.dtd">
<!-- Generated by graphviz version 2.44.0 ()
 -->
<!-- Pages: 1 -->
<svg width="716pt" height="126pt"
 viewBox="0.00 0.00 716.12 126.00" xmlns="http://www.w3.org/2000/svg" xmlns:xlink="http://www.w3.org/1999/xlink">
<g id="graph0" class="graph" transform="scale(1 1) rotate(0) translate(4 122)">
<polygon fill="white" stroke="transparent" points="-4,4 -4,-122 712.12,-122 712.12,4 -4,4"/>
<!-- web_browser_checks_the_browsers_inmemory_cache -->
<g id="node1" class="node">
<title>web_browser_checks_the_browsers_inmemory_cache</title>
<ellipse fill="none" stroke="black" cx="245.03" cy="-95" rx="245.06" ry="18"/>
<text text-anchor="middle" x="245.03" y="-91.3" font-family="Times,serif" font-size="14.00">web browser checks the browser&#39;s in&#45;memory cache</text>
</g>
<!-- web_browser_checks_the_operating_system_cache -->
<g id="node2" class="node">
<title>web_browser_checks_the_operating_system_cache</title>
<g id="a_node2"><a xlink:href="single_layer_4_web_browser_checks_the_operating_system_cache.svg" xlink:title="web browser checks the operating system cache">
<polygon fill="none" stroke="blue" points="422.03,-36 68.03,-36 68.03,0 422.03,0 422.03,-36"/>
<text text-anchor="middle" x="245.03" y="-14.3" font-family="Times,serif" font-size="14.00">web browser checks the operating system cache</text>
</a>
</g>
</g>
<!-- web_browser_checks_the_browsers_inmemory_cache&#45;&gt;web_browser_checks_the_operating_system_cache -->
<g id="edge1" class="edge">
<title>web_browser_checks_the_browsers_inmemory_cache&#45;&gt;web_browser_checks_the_operating_system_cache</title>
<path fill="none" stroke="black" d="M245.03,-76.98C245.03,-67.94 245.03,-56.6 245.03,-46.35"/>
<polygon fill="black" stroke="black" points="248.53,-46.21 245.03,-36.21 241.53,-46.21 248.53,-46.21"/>
</g>
<!-- zoom out -->
<g id="node3" class="node">
<title>zoom out</title>
<g id="a_node3"><a xlink:href="single_layer_2_web_browser_shows_webpage.svg" xlink:title="zoom out">
<polygon fill="none" stroke="red" points="608.03,-118 507.85,-83.5 708.21,-83.5 608.03,-118"/>
<text text-anchor="middle" x="608.03" y="-91.3" font-family="Times,serif" font-size="14.00">zoom out</text>
</a>
</g>
</g>
</g>
</svg>
