<?xml version="1.0" encoding="UTF-8" standalone="no"?>
<!DOCTYPE svg PUBLIC "-//W3C//DTD SVG 1.1//EN"
 "http://www.w3.org/Graphics/SVG/1.1/DTD/svg11.dtd">
<!-- Generated by graphviz version 2.44.0 ()
 -->
<!-- Pages: 1 -->
<svg width="736pt" height="198pt"
 viewBox="0.00 0.00 735.87 198.00" xmlns="http://www.w3.org/2000/svg" xmlns:xlink="http://www.w3.org/1999/xlink">
<g id="graph0" class="graph" transform="scale(1 1) rotate(0) translate(4 194)">
<polygon fill="white" stroke="transparent" points="-4,4 -4,-194 731.87,-194 731.87,4 -4,4"/>
<!-- web_browser_make_a_system_call_to_operating_system -->
<g id="node1" class="node">
<title>web_browser_make_a_system_call_to_operating_system</title>
<ellipse fill="none" stroke="black" cx="254.78" cy="-167" rx="254.55" ry="18"/>
<text text-anchor="middle" x="254.78" y="-163.3" font-family="Times,serif" font-size="14.00">web browser make a system call to operating system</text>
</g>
<!-- operating_system_checks_the_local_cache_in_OS -->
<g id="node2" class="node">
<title>operating_system_checks_the_local_cache_in_OS</title>
<ellipse fill="none" stroke="black" cx="254.78" cy="-90" rx="230.16" ry="18"/>
<text text-anchor="middle" x="254.78" y="-86.3" font-family="Times,serif" font-size="14.00">operating system checks the local cache in OS</text>
</g>
<!-- web_browser_make_a_system_call_to_operating_system&#45;&gt;operating_system_checks_the_local_cache_in_OS -->
<g id="edge1" class="edge">
<title>web_browser_make_a_system_call_to_operating_system&#45;&gt;operating_system_checks_the_local_cache_in_OS</title>
<path fill="none" stroke="black" d="M254.78,-148.98C254.78,-139.94 254.78,-128.6 254.78,-118.35"/>
<polygon fill="black" stroke="black" points="258.28,-118.21 254.78,-108.21 251.28,-118.21 258.28,-118.21"/>
</g>
<!-- operating_system_checks_the_router_cache -->
<g id="node3" class="node">
<title>operating_system_checks_the_router_cache</title>
<g id="a_node3"><a xlink:href="single_layer_5_operating_system_checks_the_router_cache.svg" xlink:title="operating system checks the router cache">
<polygon fill="none" stroke="blue" points="413.28,-36 96.28,-36 96.28,0 413.28,0 413.28,-36"/>
<text text-anchor="middle" x="254.78" y="-14.3" font-family="Times,serif" font-size="14.00">operating system checks the router cache</text>
</a>
</g>
</g>
<!-- operating_system_checks_the_local_cache_in_OS&#45;&gt;operating_system_checks_the_router_cache -->
<g id="edge2" class="edge">
<title>operating_system_checks_the_local_cache_in_OS&#45;&gt;operating_system_checks_the_router_cache</title>
<path fill="none" stroke="black" d="M254.78,-71.7C254.78,-63.98 254.78,-54.71 254.78,-46.11"/>
<polygon fill="black" stroke="black" points="258.28,-46.1 254.78,-36.1 251.28,-46.1 258.28,-46.1"/>
</g>
<!-- zoom out -->
<g id="node4" class="node">
<title>zoom out</title>
<g id="a_node4"><a xlink:href="single_layer_3_web_browser_browser_checks_the_cache_for_a_DNS_record_to_find_the_corresponding_IP_address_of_URL.svg" xlink:title="zoom out">
<polygon fill="none" stroke="red" points="627.78,-190 527.6,-155.5 727.96,-155.5 627.78,-190"/>
<text text-anchor="middle" x="627.78" y="-163.3" font-family="Times,serif" font-size="14.00">zoom out</text>
</a>
</g>
</g>
</g>
</svg>
