<?xml version="1.0" encoding="UTF-8" standalone="no"?>
<!DOCTYPE svg PUBLIC "-//W3C//DTD SVG 1.1//EN"
 "http://www.w3.org/Graphics/SVG/1.1/DTD/svg11.dtd">
<!-- Generated by graphviz version 2.44.0 ()
 -->
<!-- Pages: 1 -->
<svg width="566pt" height="198pt"
 viewBox="0.00 0.00 566.43 198.00" xmlns="http://www.w3.org/2000/svg" xmlns:xlink="http://www.w3.org/1999/xlink">
<g id="graph0" class="graph" transform="scale(1 1) rotate(0) translate(4 194)">
<polygon fill="white" stroke="transparent" points="-4,4 -4,-194 562.43,-194 562.43,4 -4,4"/>
<!-- operating_system_sends_request_to_router -->
<g id="node1" class="node">
<title>operating_system_sends_request_to_router</title>
<g id="a_node1"><a xlink:href="single_layer_6_operating_system_sends_request_to_router.svg" xlink:title="operating system sends request to router">
<polygon fill="none" stroke="blue" points="339.83,-185 22.83,-185 22.83,-149 339.83,-149 339.83,-185"/>
<text text-anchor="middle" x="181.33" y="-163.3" font-family="Times,serif" font-size="14.00">operating system sends request to router</text>
</a>
</g>
</g>
<!-- router_checks_local_cache_on_router -->
<g id="node2" class="node">
<title>router_checks_local_cache_on_router</title>
<ellipse fill="none" stroke="black" cx="181.33" cy="-90" rx="181.17" ry="18"/>
<text text-anchor="middle" x="181.33" y="-86.3" font-family="Times,serif" font-size="14.00">router checks local cache on router</text>
</g>
<!-- operating_system_sends_request_to_router&#45;&gt;router_checks_local_cache_on_router -->
<g id="edge1" class="edge">
<title>operating_system_sends_request_to_router&#45;&gt;router_checks_local_cache_on_router</title>
<path fill="none" stroke="black" d="M181.33,-148.98C181.33,-139.94 181.33,-128.6 181.33,-118.35"/>
<polygon fill="black" stroke="black" points="184.83,-118.21 181.33,-108.21 177.83,-118.21 184.83,-118.21"/>
</g>
<!-- router_checks_the_ISP_cache -->
<g id="node3" class="node">
<title>router_checks_the_ISP_cache</title>
<ellipse fill="none" stroke="black" cx="181.33" cy="-18" rx="142.17" ry="18"/>
<text text-anchor="middle" x="181.33" y="-14.3" font-family="Times,serif" font-size="14.00">router checks the ISP cache</text>
</g>
<!-- router_checks_local_cache_on_router&#45;&gt;router_checks_the_ISP_cache -->
<g id="edge2" class="edge">
<title>router_checks_local_cache_on_router&#45;&gt;router_checks_the_ISP_cache</title>
<path fill="none" stroke="black" d="M181.33,-71.7C181.33,-63.98 181.33,-54.71 181.33,-46.11"/>
<polygon fill="black" stroke="black" points="184.83,-46.1 181.33,-36.1 177.83,-46.1 184.83,-46.1"/>
</g>
<!-- zoom out -->
<g id="node4" class="node">
<title>zoom out</title>
<g id="a_node4"><a xlink:href="single_layer_4_web_browser_checks_the_operating_system_cache.svg" xlink:title="zoom out">
<polygon fill="none" stroke="red" points="458.33,-190 358.15,-155.5 558.52,-155.5 458.33,-190"/>
<text text-anchor="middle" x="458.33" y="-163.3" font-family="Times,serif" font-size="14.00">zoom out</text>
</a>
</g>
</g>
</g>
</svg>
