<?xml version="1.0" encoding="UTF-8" standalone="no"?>
<!DOCTYPE svg PUBLIC "-//W3C//DTD SVG 1.1//EN"
 "http://www.w3.org/Graphics/SVG/1.1/DTD/svg11.dtd">
<!-- Generated by graphviz version 2.44.0 ()
 -->
<!-- Pages: 1 -->
<svg width="670pt" height="198pt"
 viewBox="0.00 0.00 670.09 198.00" xmlns="http://www.w3.org/2000/svg" xmlns:xlink="http://www.w3.org/1999/xlink">
<g id="graph0" class="graph" transform="scale(1 1) rotate(0) translate(4 194)">
<polygon fill="white" stroke="transparent" points="-4,4 -4,-194 666.09,-194 666.09,4 -4,4"/>
<!-- user_moves_pointer_on_desktop_to_browser_icon_using_mouse -->
<g id="node1" class="node">
<title>user_moves_pointer_on_desktop_to_browser_icon_using_mouse</title>
<g id="a_node1"><a xlink:href="single_layer_3_user_moves_pointer_on_desktop_to_browser_icon_using_mouse.svg" xlink:title="user moves pointer on desktop to browser icon using mouse">
<polygon fill="none" stroke="blue" points="444,-185 0,-185 0,-149 444,-149 444,-185"/>
<text text-anchor="middle" x="222" y="-163.3" font-family="Times,serif" font-size="14.00">user moves pointer on desktop to browser icon using mouse</text>
</a>
</g>
</g>
<!-- user_clicks_on_desktop_browser_icon -->
<g id="node2" class="node">
<title>user_clicks_on_desktop_browser_icon</title>
<g id="a_node2"><a xlink:href="single_layer_3_user_clicks_on_desktop_browser_icon.svg" xlink:title="user clicks on desktop browser icon">
<polygon fill="none" stroke="blue" points="361.5,-108 82.5,-108 82.5,-72 361.5,-72 361.5,-108"/>
<text text-anchor="middle" x="222" y="-86.3" font-family="Times,serif" font-size="14.00">user clicks on desktop browser icon</text>
</a>
</g>
</g>
<!-- user_moves_pointer_on_desktop_to_browser_icon_using_mouse&#45;&gt;user_clicks_on_desktop_browser_icon -->
<g id="edge1" class="edge">
<title>user_moves_pointer_on_desktop_to_browser_icon_using_mouse&#45;&gt;user_clicks_on_desktop_browser_icon</title>
<path fill="none" stroke="black" d="M222,-148.98C222,-139.94 222,-128.6 222,-118.35"/>
<polygon fill="black" stroke="black" points="225.5,-118.21 222,-108.21 218.5,-118.21 225.5,-118.21"/>
</g>
<!-- operating_sytem_launches_web_browser -->
<g id="node3" class="node">
<title>operating_sytem_launches_web_browser</title>
<ellipse fill="none" stroke="black" cx="222" cy="-18" rx="186.57" ry="18"/>
<text text-anchor="middle" x="222" y="-14.3" font-family="Times,serif" font-size="14.00">operating sytem launches web browser</text>
</g>
<!-- user_clicks_on_desktop_browser_icon&#45;&gt;operating_sytem_launches_web_browser -->
<g id="edge2" class="edge">
<title>user_clicks_on_desktop_browser_icon&#45;&gt;operating_sytem_launches_web_browser</title>
<path fill="none" stroke="black" d="M222,-71.7C222,-63.98 222,-54.71 222,-46.11"/>
<polygon fill="black" stroke="black" points="225.5,-46.1 222,-36.1 218.5,-46.1 225.5,-46.1"/>
</g>
<!-- zoom out -->
<g id="node4" class="node">
<title>zoom out</title>
<g id="a_node4"><a xlink:href="single_layer_1_user_browses_the_web.svg" xlink:title="zoom out">
<polygon fill="none" stroke="red" points="562,-190 461.82,-155.5 662.18,-155.5 562,-190"/>
<text text-anchor="middle" x="562" y="-163.3" font-family="Times,serif" font-size="14.00">zoom out</text>
</a>
</g>
</g>
</g>
</svg>
