<?xml version="1.0" encoding="UTF-8" standalone="no"?>
<!DOCTYPE svg PUBLIC "-//W3C//DTD SVG 1.1//EN"
 "http://www.w3.org/Graphics/SVG/1.1/DTD/svg11.dtd">
<!-- Generated by graphviz version 2.44.0 ()
 -->
<!-- Pages: 1 -->
<svg width="600pt" height="206pt"
 viewBox="0.00 0.00 599.77 205.74" xmlns="http://www.w3.org/2000/svg" xmlns:xlink="http://www.w3.org/1999/xlink">
<g id="graph0" class="graph" transform="scale(1 1) rotate(0) translate(4 201.74)">
<polygon fill="white" stroke="transparent" points="-4,4 -4,-201.74 595.77,-201.74 595.77,4 -4,4"/>
<!-- user_moves_pointer_on_desktop_to_browser_close_icon_using_mouse -->
<g id="node1" class="node">
<title>user_moves_pointer_on_desktop_to_browser_close_icon_using_mouse</title>
<ellipse fill="none" stroke="black" cx="186.68" cy="-170.87" rx="186.85" ry="26.74"/>
<text text-anchor="middle" x="186.68" y="-174.67" font-family="Times,serif" font-size="14.00">user moves pointer on desktop to </text>
<text text-anchor="middle" x="186.68" y="-159.67" font-family="Times,serif" font-size="14.00">browser close icon using mouse</text>
</g>
<!-- user_clicks_on_browser_close_icon -->
<g id="node2" class="node">
<title>user_clicks_on_browser_close_icon</title>
<ellipse fill="none" stroke="black" cx="186.68" cy="-90" rx="171.67" ry="18"/>
<text text-anchor="middle" x="186.68" y="-86.3" font-family="Times,serif" font-size="14.00">user clicks on browser close icon</text>
</g>
<!-- user_moves_pointer_on_desktop_to_browser_close_icon_using_mouse&#45;&gt;user_clicks_on_browser_close_icon -->
<g id="edge1" class="edge">
<title>user_moves_pointer_on_desktop_to_browser_close_icon_using_mouse&#45;&gt;user_clicks_on_browser_close_icon</title>
<path fill="none" stroke="black" d="M186.68,-143.61C186.68,-135.51 186.68,-126.57 186.68,-118.39"/>
<polygon fill="black" stroke="black" points="190.18,-118.22 186.68,-108.22 183.18,-118.22 190.18,-118.22"/>
</g>
<!-- operating_sytem_closes_web_browser -->
<g id="node3" class="node">
<title>operating_sytem_closes_web_browser</title>
<ellipse fill="none" stroke="black" cx="186.68" cy="-18" rx="176.57" ry="18"/>
<text text-anchor="middle" x="186.68" y="-14.3" font-family="Times,serif" font-size="14.00">operating sytem closes web browser</text>
</g>
<!-- user_clicks_on_browser_close_icon&#45;&gt;operating_sytem_closes_web_browser -->
<g id="edge2" class="edge">
<title>user_clicks_on_browser_close_icon&#45;&gt;operating_sytem_closes_web_browser</title>
<path fill="none" stroke="black" d="M186.68,-71.7C186.68,-63.98 186.68,-54.71 186.68,-46.11"/>
<polygon fill="black" stroke="black" points="190.18,-46.1 186.68,-36.1 183.18,-46.1 190.18,-46.1"/>
</g>
<!-- zoom out -->
<g id="node4" class="node">
<title>zoom out</title>
<g id="a_node4"><a xlink:href="single_layer_1_user_browses_the_web.svg" xlink:title="zoom out">
<polygon fill="none" stroke="red" points="491.68,-193.87 391.49,-159.37 591.86,-159.37 491.68,-193.87"/>
<text text-anchor="middle" x="491.68" y="-167.17" font-family="Times,serif" font-size="14.00">zoom out</text>
</a>
</g>
</g>
</g>
</svg>
