<?xml version="1.0" encoding="UTF-8" standalone="no"?>
<!DOCTYPE svg PUBLIC "-//W3C//DTD SVG 1.1//EN"
 "http://www.w3.org/Graphics/SVG/1.1/DTD/svg11.dtd">
<!-- Generated by graphviz version 2.44.0 ()
 -->
<!-- Pages: 1 -->
<svg width="2602pt" height="703pt"
 viewBox="0.00 0.00 2602.39 703.00" xmlns="http://www.w3.org/2000/svg" xmlns:xlink="http://www.w3.org/1999/xlink">
<g id="graph0" class="graph" transform="scale(1 1) rotate(0) translate(4 699)">
<polygon fill="white" stroke="transparent" points="-4,4 -4,-699 2598.39,-699 2598.39,4 -4,4"/>
<g id="clust1" class="cluster">
<title>cluster_user_turns_on_computer</title>
<g id="a_clust1"><a xlink:href="layer_plus_one_1_user_turns_on_computer.svg" xlink:title="user turns on computer">
<polygon fill="none" stroke="black" points="1307,-540 1307,-687 1685,-687 1685,-540 1307,-540"/>
<text text-anchor="middle" x="1496" y="-671.8" font-family="Times,serif" font-size="14.00">user turns on computer</text>
</a>
</g>
</g>
<g id="clust2" class="cluster">
<title>cluster_computer_has_state_turning_on</title>
<g id="a_clust2"><a xlink:href="layer_plus_one_1_computer_has_state_turning_on.svg" xlink:title="computer has state turning on">
<polygon fill="none" stroke="black" points="8,-152 8,-532 768,-532 768,-152 8,-152"/>
<text text-anchor="middle" x="388" y="-516.8" font-family="Times,serif" font-size="14.00">computer has state turning on</text>
</a>
</g>
</g>
<g id="clust3" class="cluster">
<title>cluster_computer_has_state_off</title>
<g id="a_clust3"><a xlink:href="layer_plus_one_1_computer_has_state_off.svg" xlink:title="computer has state off">
<polygon fill="none" stroke="black" points="2267,-152 2267,-299 2563,-299 2563,-152 2267,-152"/>
<text text-anchor="middle" x="2415" y="-283.8" font-family="Times,serif" font-size="14.00">computer has state off</text>
</a>
</g>
</g>
<g id="clust4" class="cluster">
<title>cluster_user_browses_the_web</title>
<g id="a_clust4"><a xlink:href="layer_plus_one_1_user_browses_the_web.svg" xlink:title="user browses the web">
<polygon fill="none" stroke="black" points="776,-8 776,-457 1210,-457 1210,-8 776,-8"/>
<text text-anchor="middle" x="993" y="-441.8" font-family="Times,serif" font-size="14.00">user browses the web</text>
</a>
</g>
</g>
<g id="clust5" class="cluster">
<title>cluster_computer_has_state_idle</title>
<g id="a_clust5"><a xlink:href="layer_plus_one_1_computer_has_state_idle.svg" xlink:title="computer has state idle">
<polygon fill="none" stroke="black" points="2256,-307 2256,-457 2574,-457 2574,-307 2256,-307"/>
<text text-anchor="middle" x="2415" y="-441.8" font-family="Times,serif" font-size="14.00">computer has state idle</text>
</a>
</g>
</g>
<g id="clust6" class="cluster">
<title>cluster_user_turns_off_the_computer</title>
<g id="a_clust6"><a xlink:href="layer_plus_one_1_user_turns_off_the_computer.svg" xlink:title="user turns off the computer">
<polygon fill="none" stroke="black" points="1218,-152 1218,-382 2248,-382 2248,-152 1218,-152"/>
<text text-anchor="middle" x="1733" y="-366.8" font-family="Times,serif" font-size="14.00">user turns off the computer</text>
</a>
</g>
</g>
<!-- user_turns_on_computer -->
<!-- computer_has_state_turning_on -->
<!-- user_turns_on_computer&#45;&gt;computer_has_state_turning_on -->
<g id="edge18" class="edge">
<title>user_turns_on_computer&#45;&gt;computer_has_state_turning_on</title>
<path fill="none" stroke="black" d="M1307,-547.76C1150.23,-533.46 929.29,-513.31 778.02,-499.51"/>
<polygon fill="black" stroke="black" points="778.27,-496.02 768,-498.59 777.64,-502.99 778.27,-496.02"/>
</g>
<!-- user_turns_on_computerwhile_computer_is_off_user_pushes_power_button -->
<g id="node2" class="node">
<title>user_turns_on_computerwhile_computer_is_off_user_pushes_power_button</title>
<polygon fill="none" stroke="black" points="1677,-656 1315,-656 1315,-620 1677,-620 1677,-656"/>
<text text-anchor="middle" x="1496" y="-634.3" font-family="Times,serif" font-size="14.00">while computer is off user pushes power button</text>
</g>
<!-- user_turns_on_computerwhile_computer_is_off_user_pushes_power_button&#45;&gt;user_turns_on_computer -->
<!-- user_browses_the_web -->
<!-- computer_has_state_turning_on&#45;&gt;user_browses_the_web -->
<g id="edge19" class="edge">
<title>computer_has_state_turning_on&#45;&gt;user_browses_the_web</title>
<path fill="none" stroke="black" d="M768,-476.09C841.94,-472.44 922.63,-466.91 965.14,-459.03"/>
<polygon fill="black" stroke="black" points="965.91,-462.45 975,-457 964.5,-455.59 965.91,-462.45"/>
</g>
<!-- computer_has_state_turning_onwhile_computer_is_off_power_button_short_circuits_wire -->
<g id="node4" class="node">
<title>computer_has_state_turning_onwhile_computer_is_off_power_button_short_circuits_wire</title>
<polygon fill="none" stroke="black" points="438,-501 16,-501 16,-465 438,-465 438,-501"/>
<text text-anchor="middle" x="227" y="-479.3" font-family="Times,serif" font-size="14.00">while computer is off power button short circuits wire</text>
</g>
<!-- computer_has_state_turning_onwhile_computer_is_off_motherboard_does_something_to_CPU -->
<g id="node5" class="node">
<title>computer_has_state_turning_onwhile_computer_is_off_motherboard_does_something_to_CPU</title>
<polygon fill="none" stroke="black" points="445.5,-426 16.5,-426 16.5,-390 445.5,-390 445.5,-426"/>
<text text-anchor="middle" x="231" y="-404.3" font-family="Times,serif" font-size="14.00">while computer is off motherboard does something to CPU</text>
</g>
<!-- computer_has_state_turning_onwhile_computer_is_off_power_button_short_circuits_wire&#45;&gt;computer_has_state_turning_onwhile_computer_is_off_motherboard_does_something_to_CPU -->
<g id="edge2" class="edge">
<title>computer_has_state_turning_onwhile_computer_is_off_power_button_short_circuits_wire&#45;&gt;computer_has_state_turning_onwhile_computer_is_off_motherboard_does_something_to_CPU</title>
<path fill="none" stroke="black" d="M227.95,-464.7C228.41,-456.25 228.98,-445.87 229.5,-436.37"/>
<polygon fill="black" stroke="black" points="233.01,-436.35 230.06,-426.18 226.02,-435.97 233.01,-436.35"/>
</g>
<!-- computer_has_state_turning_onCPU_executes_BIOS_code_at_bottom_of_memory_map -->
<g id="node6" class="node">
<title>computer_has_state_turning_onCPU_executes_BIOS_code_at_bottom_of_memory_map</title>
<polygon fill="none" stroke="black" points="412,-351 50,-351 50,-315 412,-315 412,-351"/>
<text text-anchor="middle" x="231" y="-329.3" font-family="Times,serif" font-size="14.00">CPU executes BIOS code at bottom of memory map</text>
</g>
<!-- computer_has_state_turning_onwhile_computer_is_off_motherboard_does_something_to_CPU&#45;&gt;computer_has_state_turning_onCPU_executes_BIOS_code_at_bottom_of_memory_map -->
<g id="edge3" class="edge">
<title>computer_has_state_turning_onwhile_computer_is_off_motherboard_does_something_to_CPU&#45;&gt;computer_has_state_turning_onCPU_executes_BIOS_code_at_bottom_of_memory_map</title>
<path fill="none" stroke="black" d="M231,-389.7C231,-381.25 231,-370.87 231,-361.37"/>
<polygon fill="black" stroke="black" points="234.5,-361.18 231,-351.18 227.5,-361.18 234.5,-361.18"/>
</g>
<!-- computer_has_state_turning_onBIOS_boots_computer -->
<g id="node7" class="node">
<title>computer_has_state_turning_onBIOS_boots_computer</title>
<g id="a_node7"><a xlink:href="layer_plus_one_1_computer_has_state_turning_on.svg" xlink:title="BIOS boots computer">
<polygon fill="none" stroke="blue" points="310.5,-268 151.5,-268 151.5,-232 310.5,-232 310.5,-268"/>
<text text-anchor="middle" x="231" y="-246.3" font-family="Times,serif" font-size="14.00">BIOS boots computer</text>
</a>
</g>
</g>
<!-- computer_has_state_turning_onCPU_executes_BIOS_code_at_bottom_of_memory_map&#45;&gt;computer_has_state_turning_onBIOS_boots_computer -->
<g id="edge4" class="edge">
<title>computer_has_state_turning_onCPU_executes_BIOS_code_at_bottom_of_memory_map&#45;&gt;computer_has_state_turning_onBIOS_boots_computer</title>
<path fill="none" stroke="black" d="M231,-314.82C231,-304.19 231,-290.31 231,-278.2"/>
<polygon fill="black" stroke="black" points="234.5,-278.15 231,-268.15 227.5,-278.15 234.5,-278.15"/>
</g>
<!-- computer_has_state_turning_onoperating_system_starts_desktop -->
<g id="node8" class="node">
<title>computer_has_state_turning_onoperating_system_starts_desktop</title>
<polygon fill="none" stroke="black" points="355.5,-196 106.5,-196 106.5,-160 355.5,-160 355.5,-196"/>
<text text-anchor="middle" x="231" y="-174.3" font-family="Times,serif" font-size="14.00">operating system starts desktop</text>
</g>
<!-- computer_has_state_turning_onBIOS_boots_computer&#45;&gt;computer_has_state_turning_onoperating_system_starts_desktop -->
<g id="edge5" class="edge">
<title>computer_has_state_turning_onBIOS_boots_computer&#45;&gt;computer_has_state_turning_onoperating_system_starts_desktop</title>
<path fill="none" stroke="black" d="M231,-231.7C231,-223.98 231,-214.71 231,-206.11"/>
<polygon fill="black" stroke="black" points="234.5,-206.1 231,-196.1 227.5,-206.1 234.5,-206.1"/>
</g>
<!-- computer_has_state_off -->
<!-- computer_has_state_off&#45;&gt;user_turns_on_computer -->
<g id="edge17" class="edge">
<title>computer_has_state_off&#45;&gt;user_turns_on_computer</title>
<path fill="none" stroke="black" d="M2563,-230.96C2563.33,-231.3 2563.67,-231.65 2564,-232 2595.98,-265.63 2594,-285.6 2594,-332 2594,-409 2594,-409 2594,-409 2594,-431.49 2595.57,-442.96 2578,-457 2510.69,-510.8 1989.04,-542.79 1695.35,-556.72"/>
<polygon fill="black" stroke="black" points="1694.82,-553.24 1685,-557.21 1695.15,-560.23 1694.82,-553.24"/>
</g>
<!-- computer_has_state_offmotherboard_uses_power_from_battery -->
<g id="node10" class="node">
<title>computer_has_state_offmotherboard_uses_power_from_battery</title>
<polygon fill="none" stroke="black" points="2554.5,-268 2275.5,-268 2275.5,-232 2554.5,-232 2554.5,-268"/>
<text text-anchor="middle" x="2415" y="-246.3" font-family="Times,serif" font-size="14.00">motherboard uses power from battery</text>
</g>
<!-- computer_has_state_offmotherboard_uses_power_from_battery&#45;&gt;computer_has_state_off -->
<!-- computer_has_state_idle -->
<!-- user_browses_the_web&#45;&gt;computer_has_state_idle -->
<g id="edge20" class="edge">
<title>user_browses_the_web&#45;&gt;computer_has_state_idle</title>
<path fill="none" stroke="black" d="M1210,-406.59C1476.42,-405.37 2115.16,-400.68 2246.09,-382.79"/>
<polygon fill="black" stroke="black" points="2246.66,-386.24 2256,-381.23 2245.58,-379.33 2246.66,-386.24"/>
</g>
<!-- user_browses_the_webuser_opens_web_browser -->
<g id="node12" class="node">
<title>user_browses_the_webuser_opens_web_browser</title>
<g id="a_node12"><a xlink:href="layer_plus_one_1_user_browses_the_web.svg" xlink:title="user opens web browser">
<polygon fill="none" stroke="blue" points="966,-426 784,-426 784,-390 966,-390 966,-426"/>
<text text-anchor="middle" x="875" y="-404.3" font-family="Times,serif" font-size="14.00">user opens web browser</text>
</a>
</g>
</g>
<!-- user_browses_the_webuser_types_URL_of_website -->
<g id="node13" class="node">
<title>user_browses_the_webuser_types_URL_of_website</title>
<g id="a_node13"><a xlink:href="layer_plus_one_1_user_browses_the_web.svg" xlink:title="user types URL of website">
<polygon fill="none" stroke="blue" points="988,-351 784,-351 784,-315 988,-315 988,-351"/>
<text text-anchor="middle" x="886" y="-329.3" font-family="Times,serif" font-size="14.00">user types URL of website</text>
</a>
</g>
</g>
<!-- user_browses_the_webuser_opens_web_browser&#45;&gt;user_browses_the_webuser_types_URL_of_website -->
<g id="edge7" class="edge">
<title>user_browses_the_webuser_opens_web_browser&#45;&gt;user_browses_the_webuser_types_URL_of_website</title>
<path fill="none" stroke="black" d="M877.61,-389.7C878.89,-381.15 880.48,-370.65 881.92,-361.07"/>
<polygon fill="black" stroke="black" points="885.38,-361.59 883.41,-351.18 878.46,-360.54 885.38,-361.59"/>
</g>
<!-- user_browses_the_webweb_browser_shows_webpage -->
<g id="node14" class="node">
<title>user_browses_the_webweb_browser_shows_webpage</title>
<g id="a_node14"><a xlink:href="layer_plus_one_1_user_browses_the_web.svg" xlink:title="web browser shows webpage">
<polygon fill="none" stroke="blue" points="988,-268 784,-268 784,-232 988,-232 988,-268"/>
<text text-anchor="middle" x="886" y="-246.3" font-family="Times,serif" font-size="14.00">web browser shows webpage</text>
</a>
</g>
</g>
<!-- user_browses_the_webuser_types_URL_of_website&#45;&gt;user_browses_the_webweb_browser_shows_webpage -->
<g id="edge8" class="edge">
<title>user_browses_the_webuser_types_URL_of_website&#45;&gt;user_browses_the_webweb_browser_shows_webpage</title>
<path fill="none" stroke="black" d="M886,-314.82C886,-304.19 886,-290.31 886,-278.2"/>
<polygon fill="black" stroke="black" points="889.5,-278.15 886,-268.15 882.5,-278.15 889.5,-278.15"/>
</g>
<!-- user_browses_the_webuser_reads_webpage -->
<g id="node15" class="node">
<title>user_browses_the_webuser_reads_webpage</title>
<polygon fill="none" stroke="black" points="962,-196 810,-196 810,-160 962,-160 962,-196"/>
<text text-anchor="middle" x="886" y="-174.3" font-family="Times,serif" font-size="14.00">user reads webpage</text>
</g>
<!-- user_browses_the_webweb_browser_shows_webpage&#45;&gt;user_browses_the_webuser_reads_webpage -->
<g id="edge9" class="edge">
<title>user_browses_the_webweb_browser_shows_webpage&#45;&gt;user_browses_the_webuser_reads_webpage</title>
<path fill="none" stroke="black" d="M886,-231.7C886,-223.98 886,-214.71 886,-206.11"/>
<polygon fill="black" stroke="black" points="889.5,-206.1 886,-196.1 882.5,-206.1 889.5,-206.1"/>
</g>
<!-- user_browses_the_webuser_clicks_on_link -->
<g id="node16" class="node">
<title>user_browses_the_webuser_clicks_on_link</title>
<g id="a_node16"><a xlink:href="layer_plus_one_1_user_browses_the_web.svg" xlink:title="user clicks on link">
<polygon fill="none" stroke="blue" points="965.5,-124 806.5,-124 806.5,-88 965.5,-88 965.5,-124"/>
<text text-anchor="middle" x="886" y="-102.3" font-family="Times,serif" font-size="14.00">user clicks on link</text>
</a>
</g>
</g>
<!-- user_browses_the_webuser_reads_webpage&#45;&gt;user_browses_the_webuser_clicks_on_link -->
<g id="edge10" class="edge">
<title>user_browses_the_webuser_reads_webpage&#45;&gt;user_browses_the_webuser_clicks_on_link</title>
<path fill="none" stroke="black" d="M886,-159.7C886,-151.98 886,-142.71 886,-134.11"/>
<polygon fill="black" stroke="black" points="889.5,-134.1 886,-124.1 882.5,-134.1 889.5,-134.1"/>
</g>
<!-- user_browses_the_webuser_closes_web_browser -->
<g id="node17" class="node">
<title>user_browses_the_webuser_closes_web_browser</title>
<g id="a_node17"><a xlink:href="layer_plus_one_1_user_browses_the_web.svg" xlink:title="user closes web browser">
<polygon fill="none" stroke="blue" points="980.5,-52 791.5,-52 791.5,-16 980.5,-16 980.5,-52"/>
<text text-anchor="middle" x="886" y="-30.3" font-family="Times,serif" font-size="14.00">user closes web browser</text>
</a>
</g>
</g>
<!-- user_browses_the_webuser_clicks_on_link&#45;&gt;user_browses_the_webuser_closes_web_browser -->
<g id="edge11" class="edge">
<title>user_browses_the_webuser_clicks_on_link&#45;&gt;user_browses_the_webuser_closes_web_browser</title>
<path fill="none" stroke="black" d="M886,-87.7C886,-79.98 886,-70.71 886,-62.11"/>
<polygon fill="black" stroke="black" points="889.5,-62.1 886,-52.1 882.5,-62.1 889.5,-62.1"/>
</g>
<!-- user_turns_off_the_computer -->
<!-- computer_has_state_idle&#45;&gt;user_turns_off_the_computer -->
<g id="edge21" class="edge">
<title>computer_has_state_idle&#45;&gt;user_turns_off_the_computer</title>
<path fill="none" stroke="black" d="M2292.17,-307C2282.31,-304.33 2272.45,-301.63 2263,-299 2261.3,-298.53 2259.6,-298.05 2257.89,-297.57"/>
<polygon fill="black" stroke="black" points="2258.57,-294.13 2248,-294.8 2256.68,-300.87 2258.57,-294.13"/>
</g>
<!-- computer_has_state_idleoperating_system_waiting_for_interrupt -->
<g id="node19" class="node">
<title>computer_has_state_idleoperating_system_waiting_for_interrupt</title>
<polygon fill="none" stroke="black" points="2566,-426 2264,-426 2264,-390 2566,-390 2566,-426"/>
<text text-anchor="middle" x="2415" y="-404.3" font-family="Times,serif" font-size="14.00">operating system waiting for interrupt</text>
</g>
<!-- computer_has_state_idleoperating_system_waiting_for_interrupt&#45;&gt;computer_has_state_idle -->
<!-- user_turns_off_the_computer&#45;&gt;computer_has_state_off -->
<g id="edge22" class="edge">
<title>user_turns_off_the_computer&#45;&gt;computer_has_state_off</title>
<path fill="none" stroke="black" d="M2248,-215.88C2251,-215.21 2254.01,-214.55 2257.01,-213.89"/>
<polygon fill="black" stroke="black" points="2257.99,-217.25 2267,-211.68 2256.48,-210.42 2257.99,-217.25"/>
</g>
<!-- user_turns_off_the_computerwhile_computer_is_on_user_pushes_power_button -->
<g id="node21" class="node">
<title>user_turns_off_the_computerwhile_computer_is_on_user_pushes_power_button</title>
<polygon fill="none" stroke="black" points="1944,-351 1590,-351 1590,-315 1944,-315 1944,-351"/>
<text text-anchor="middle" x="1767" y="-329.3" font-family="Times,serif" font-size="14.00">while computer is on user pushes power button</text>
</g>
<!-- user_turns_off_the_computerwhile_computer_is_on_power_button_short_circuits_wire -->
<g id="node22" class="node">
<title>user_turns_off_the_computerwhile_computer_is_on_power_button_short_circuits_wire</title>
<polygon fill="none" stroke="black" points="1938,-268 1524,-268 1524,-232 1938,-232 1938,-268"/>
<text text-anchor="middle" x="1731" y="-246.3" font-family="Times,serif" font-size="14.00">while computer is on power button short circuits wire</text>
</g>
<!-- user_turns_off_the_computerwhile_computer_is_on_user_pushes_power_button&#45;&gt;user_turns_off_the_computerwhile_computer_is_on_power_button_short_circuits_wire -->
<g id="edge13" class="edge">
<title>user_turns_off_the_computerwhile_computer_is_on_user_pushes_power_button&#45;&gt;user_turns_off_the_computerwhile_computer_is_on_power_button_short_circuits_wire</title>
<path fill="none" stroke="black" d="M1759.37,-314.82C1754.54,-303.98 1748.22,-289.74 1742.77,-277.47"/>
<polygon fill="black" stroke="black" points="1745.88,-275.87 1738.62,-268.15 1739.49,-278.71 1745.88,-275.87"/>
</g>
<!-- user_turns_off_the_computerwhile_computer_is_on_motherboard_does_something_to_CPU -->
<g id="node23" class="node">
<title>user_turns_off_the_computerwhile_computer_is_on_motherboard_does_something_to_CPU</title>
<polygon fill="none" stroke="black" points="1942,-196 1520,-196 1520,-160 1942,-160 1942,-196"/>
<text text-anchor="middle" x="1731" y="-174.3" font-family="Times,serif" font-size="14.00">while computer is on motherboard does something to CPU</text>
</g>
<!-- user_turns_off_the_computerwhile_computer_is_on_power_button_short_circuits_wire&#45;&gt;user_turns_off_the_computerwhile_computer_is_on_motherboard_does_something_to_CPU -->
<g id="edge14" class="edge">
<title>user_turns_off_the_computerwhile_computer_is_on_power_button_short_circuits_wire&#45;&gt;user_turns_off_the_computerwhile_computer_is_on_motherboard_does_something_to_CPU</title>
<path fill="none" stroke="black" d="M1731,-231.7C1731,-223.98 1731,-214.71 1731,-206.11"/>
<polygon fill="black" stroke="black" points="1734.5,-206.1 1731,-196.1 1727.5,-206.1 1734.5,-206.1"/>
</g>
<!-- user_turns_off_the_computeruser_selects_shutdown_menu_option_on_desktop -->
<g id="node24" class="node">
<title>user_turns_off_the_computeruser_selects_shutdown_menu_option_on_desktop</title>
<polygon fill="none" stroke="black" points="1572.5,-351 1225.5,-351 1225.5,-315 1572.5,-315 1572.5,-351"/>
<text text-anchor="middle" x="1399" y="-329.3" font-family="Times,serif" font-size="14.00">user selects shutdown menu option on desktop</text>
</g>
<!-- user_turns_off_the_computeroperating_system_terminates_desktop -->
<g id="node25" class="node">
<title>user_turns_off_the_computeroperating_system_terminates_desktop</title>
<polygon fill="none" stroke="black" points="1505.5,-268 1226.5,-268 1226.5,-232 1505.5,-232 1505.5,-268"/>
<text text-anchor="middle" x="1366" y="-246.3" font-family="Times,serif" font-size="14.00">operating system terminates desktop</text>
</g>
<!-- user_turns_off_the_computeruser_selects_shutdown_menu_option_on_desktop&#45;&gt;user_turns_off_the_computeroperating_system_terminates_desktop -->
<g id="edge15" class="edge">
<title>user_turns_off_the_computeruser_selects_shutdown_menu_option_on_desktop&#45;&gt;user_turns_off_the_computeroperating_system_terminates_desktop</title>
<path fill="none" stroke="black" d="M1392,-314.82C1387.58,-303.98 1381.78,-289.74 1376.79,-277.47"/>
<polygon fill="black" stroke="black" points="1380,-276.09 1372.99,-268.15 1373.52,-278.73 1380,-276.09"/>
</g>
<!-- user_turns_off_the_computeruser_types_REISUB -->
<g id="node26" class="node">
<title>user_turns_off_the_computeruser_types_REISUB</title>
<g id="a_node26"><a xlink:href="layer_plus_one_1_user_turns_off_the_computer.svg" xlink:title="user types REISUB">
<polygon fill="none" stroke="blue" points="2170,-351 2026,-351 2026,-315 2170,-315 2170,-351"/>
<text text-anchor="middle" x="2098" y="-329.3" font-family="Times,serif" font-size="14.00">user types REISUB</text>
</a>
</g>
</g>
<!-- user_turns_off_the_computeruser_types_REISUB&#45;&gt;user_turns_off_the_computer -->
</g>
</svg>
